<svg width="128" height="128" viewBox="0 0 128 128" fill="none" xmlns="http://www.w3.org/2000/svg">
<path d="M41.0457 26.6532C41.0478 26.5834 41.0435 26.5136 41.0329 26.4446C40.9841 26.1651 40.8266 25.9164 40.5949 25.7528C40.3632 25.5892 40.0761 25.5241 39.7964 25.5716C39.6116 25.6036 39.439 25.6855 39.2972 25.8084C39.1284 25.4857 38.8683 25.2199 38.5494 25.0439C38.2305 24.868 37.867 24.7898 37.5039 24.819C37.085 24.8383 36.6774 24.961 36.3174 25.1761C36.1685 25.2457 36.0372 25.3479 35.9331 25.4751C35.8289 25.6022 35.7547 25.7511 35.7158 25.9108C35.6451 25.9119 35.5746 25.9174 35.5046 25.9274C35.1769 25.9839 34.8787 26.1513 34.6598 26.4016C34.441 26.652 34.3149 26.9699 34.3027 27.3022C34.204 27.3054 34.1057 27.3148 34.0083 27.3303C33.5226 27.4173 33.0895 27.6888 32.7996 28.088C32.5097 28.4872 32.3855 28.9831 32.4531 29.4718L42.5651 27.7246C42.4978 27.3851 42.3025 27.0845 42.0197 26.885C41.7368 26.6856 41.3881 26.6026 41.0457 26.6532ZM40.3199 34.4932C40.164 34.6817 40.0883 34.9238 40.1092 35.1675C40.13 35.4112 40.2457 35.637 40.4313 35.7962C40.3839 35.7079 40.5811 35.3252 40.8844 34.9156C41.1878 34.506 41.4975 34.2116 41.5974 34.227C41.3919 34.0956 41.1431 34.0499 40.9044 34.0997C40.6656 34.1494 40.4558 34.2907 40.3199 34.4932ZM41.6844 37.4628C41.3811 37.8686 41.0713 38.1668 40.9753 38.1502C41.1856 38.2696 41.4324 38.3074 41.6688 38.2565C41.9051 38.2055 42.1145 38.0694 42.2569 37.874C42.3993 37.6786 42.4648 37.4376 42.4409 37.197C42.417 36.9563 42.3054 36.7329 42.1273 36.5694C42.2067 36.6282 42.0095 37.0263 41.6844 37.4628ZM37.0175 39.5723L38.0236 39.3982C38.0784 39.3889 38.1297 39.3653 38.1725 39.3298C38.2152 39.2943 38.2477 39.2481 38.2668 39.1959L38.6227 38.2347C38.6409 38.1818 38.6454 38.1252 38.6358 38.0701C38.6262 38.015 38.6027 37.9633 38.5676 37.9198L37.9135 37.139C37.8774 37.0956 37.8304 37.0626 37.7773 37.0432C37.7243 37.0239 37.6671 37.019 37.6115 37.0289L36.6079 37.2017C36.5526 37.211 36.5008 37.2348 36.4579 37.2708C36.4149 37.3069 36.3823 37.3537 36.3635 37.4065L36.0076 38.3614C35.9879 38.4146 35.9826 38.4722 35.9923 38.5281C36.002 38.5841 36.0262 38.6365 36.0627 38.6801L36.718 39.4609C36.7535 39.5045 36.7999 39.5378 36.8526 39.5574C36.9053 39.577 36.9622 39.5821 37.0175 39.5723ZM36.2406 61.6727C37.8611 62.4676 39.2729 62.9079 39.3958 62.6583C39.5187 62.4087 38.3039 61.5627 36.6847 60.7703C35.0655 59.978 33.6537 59.5377 33.5321 59.7873C33.4105 60.0369 34.6252 60.8791 36.2406 61.6727ZM36.5747 37.0123L37.582 36.8382C37.6368 36.8276 37.688 36.8032 37.7307 36.7674C37.7735 36.7316 37.8065 36.6854 37.8265 36.6334L38.1811 35.6747C38.1987 35.6217 38.2029 35.5652 38.1933 35.5103C38.1837 35.4553 38.1606 35.4036 38.126 35.3598L37.4694 34.5738C37.4335 34.5312 37.3871 34.4988 37.3348 34.4797C37.2824 34.4606 37.226 34.4555 37.1711 34.4651L36.1651 34.6391C36.1098 34.6484 36.058 34.6723 36.015 34.7083C35.972 34.7443 35.9394 34.7911 35.9206 34.8439L35.566 35.8014C35.5464 35.8542 35.5412 35.9113 35.5508 35.9669C35.5605 36.0224 35.5847 36.0744 35.6211 36.1175L36.2764 36.9009C36.3117 36.9444 36.3579 36.9776 36.4104 36.9972C36.4628 37.0168 36.5195 37.022 36.5747 37.0123ZM44.6003 109.069C45.5182 109.044 46.3891 108.657 47.022 107.992C47.2195 107.807 47.3774 107.584 47.4861 107.336C47.5948 107.088 47.652 106.82 47.6543 106.55C47.6468 106.374 47.5969 106.203 47.5088 106.051C47.4208 105.9 47.2972 105.771 47.1487 105.678C46.6281 107.021 45.7461 108.195 44.6003 109.069ZM46.0799 106.272C46.091 106.23 46.0858 106.186 46.0655 106.148C46.0452 106.11 46.0113 106.081 45.9706 106.067C45.9298 106.053 45.8853 106.055 45.846 106.073C45.8067 106.09 45.7755 106.122 45.7587 106.162C45.2605 107.379 44.3091 108.354 43.1052 108.883C43.072 108.897 43.0441 108.922 43.0257 108.953C43.0074 108.984 42.9995 109.02 43.0032 109.056C43.0069 109.092 43.0221 109.126 43.0464 109.152C43.0708 109.179 43.103 109.197 43.1385 109.204C43.1724 109.212 43.208 109.209 43.2396 109.194C43.8819 108.917 44.4633 108.517 44.9507 108.016C45.4381 107.514 45.8218 106.922 46.0799 106.272ZM42.1119 36.563C41.9017 36.4466 41.6563 36.411 41.4217 36.4629C41.1871 36.5148 40.9796 36.6506 40.8381 36.8448C40.6966 37.039 40.6309 37.2781 40.6533 37.5173C40.6757 37.7565 40.7848 37.9793 40.9599 38.1438C40.8819 38.0849 41.079 37.6843 41.4015 37.2478C41.7075 36.8407 42.0147 36.5476 42.1119 36.563ZM40.3686 38.081C40.3321 38.0377 40.2849 38.0045 40.2317 37.985C40.1785 37.9655 40.1211 37.9602 40.0652 37.9697L39.0604 38.1438C39.005 38.1532 38.9531 38.1771 38.91 38.2131C38.8668 38.2491 38.8339 38.2958 38.8147 38.3486L38.4627 39.3034C38.4429 39.3561 38.4376 39.413 38.4473 39.4684C38.4569 39.5238 38.4813 39.5755 38.5177 39.6183L39.1692 40.403C39.2052 40.4463 39.2519 40.4793 39.3047 40.4989C39.3575 40.5184 39.4145 40.5237 39.47 40.5143L40.4748 40.3403C40.5309 40.3307 40.5834 40.3065 40.627 40.2701C40.6706 40.2337 40.7038 40.1863 40.7231 40.1329L41.0739 39.1767C41.0935 39.1242 41.0989 39.0673 41.0895 39.012C41.08 38.9567 41.0561 38.9049 41.0201 38.8619L40.3686 38.081ZM43.4559 60.9278C42.711 59.2842 41.902 58.0478 41.6499 58.163C41.3977 58.2782 41.7983 59.699 42.5459 61.3412C43.2934 62.9835 44.0998 64.2225 44.3519 64.1086C44.6041 63.9946 44.2022 62.5674 43.4559 60.9278ZM39.5238 55.3931C40.0268 53.6612 40.2175 52.193 39.9513 52.1188C39.6851 52.0446 39.063 53.3834 38.5587 55.1114C38.0543 56.8395 37.8636 58.3115 38.1299 58.3883C38.3961 58.4651 39.0207 57.1249 39.5238 55.3931ZM40.4569 35.8155C40.6673 35.933 40.9134 35.9694 41.1488 35.9178C41.3842 35.8661 41.5925 35.73 41.7344 35.5352C41.8763 35.3404 41.9418 35.1004 41.9187 34.8605C41.8956 34.6206 41.7854 34.3975 41.6089 34.2334C41.687 34.2923 41.4899 34.6903 41.1647 35.1294C40.8639 35.5338 40.5542 35.8308 40.4569 35.8155ZM38.2105 33.8007C38.0543 33.9925 37.98 34.2382 38.004 34.4843C38.028 34.7305 38.1482 34.9573 38.3385 35.1153C38.2591 35.0577 38.4563 34.6558 38.7814 34.2193C39.0886 33.8084 39.3945 33.5115 39.4943 33.5268C39.2871 33.3952 39.0365 33.3501 38.7964 33.4014C38.5563 33.4526 38.346 33.596 38.2105 33.8007ZM38.3487 35.123C38.5594 35.2399 38.8056 35.2758 39.0409 35.2237C39.2762 35.1717 39.4843 35.0353 39.626 34.8404C39.7677 34.6455 39.8331 34.4055 39.8101 34.1656C39.787 33.9258 39.677 33.7027 39.5007 33.5383C39.5788 33.5959 39.3791 33.9978 39.0579 34.4343C38.7545 34.8414 38.4486 35.1383 38.3487 35.123ZM38.071 37.034L38.7225 37.8174C38.7586 37.8609 38.8055 37.8941 38.8586 37.9136C38.9116 37.9332 38.9689 37.9384 39.0246 37.9287L40.0281 37.7547C40.0839 37.7451 40.1363 37.7211 40.1799 37.6849C40.2235 37.6487 40.2568 37.6017 40.2764 37.5486L40.6271 36.5924C40.6467 36.5396 40.652 36.4826 40.6425 36.4271C40.6331 36.3717 40.6093 36.3196 40.5734 36.2762L39.9206 35.4916C39.884 35.4488 39.837 35.4161 39.784 35.3968C39.7311 35.3775 39.6741 35.3722 39.6185 35.3815L38.615 35.5543C38.5596 35.5645 38.5077 35.5889 38.4644 35.625C38.4212 35.6611 38.3879 35.7077 38.3679 35.7604L38.0159 36.7179C37.9963 36.7707 37.9911 36.8278 38.0008 36.8834C38.0104 36.9389 38.0347 36.9909 38.071 37.034ZM42.3679 79.1038C41.698 79.2817 41.0959 79.6543 40.6377 80.1745C40.1795 80.6947 39.8859 81.339 39.7939 82.0261C39.702 82.7131 39.8158 83.412 40.1211 84.0343C40.4263 84.6567 40.9093 85.1745 41.5089 85.5224C42.1084 85.8702 42.7977 86.0325 43.4895 85.9886C44.1813 85.9447 44.8445 85.6967 45.3953 85.2758C45.9461 84.855 46.3598 84.2803 46.5839 83.6243C46.8081 82.9684 46.8327 82.2607 46.6547 81.5908C46.5366 81.146 46.3321 80.7287 46.0527 80.363C45.7734 79.9972 45.4247 79.6901 45.0266 79.4591C44.6285 79.2282 44.1888 79.0779 43.7326 79.0169C43.2764 78.956 42.8127 78.9855 42.3679 79.1038ZM42.3679 83.8078C41.9307 83.5847 41.5867 83.2138 41.3971 82.761C41.2075 82.3082 41.1846 81.8029 41.3324 81.3348C41.3364 81.327 41.3424 81.3205 41.3499 81.3159C41.3573 81.3113 41.3659 81.3089 41.3747 81.3089C41.3834 81.3089 41.392 81.3113 41.3994 81.3159C41.4069 81.3205 41.4129 81.327 41.4169 81.3348C41.8622 81.9196 42.4866 82.3427 43.1948 82.5393C43.8564 82.7914 44.4722 83.1503 45.0175 83.6017C45.0244 83.6043 45.0307 83.6084 45.0357 83.6138C45.0408 83.6191 45.0446 83.6256 45.0468 83.6326C45.049 83.6396 45.0496 83.647 45.0485 83.6543C45.0475 83.6616 45.0447 83.6686 45.0406 83.6747C44.6902 84.0229 44.2232 84.2292 43.7298 84.2538C43.2363 84.2784 42.7512 84.1195 42.3679 83.8078ZM45.1673 83.4635C45.1636 83.472 45.1576 83.4792 45.1498 83.4843C45.1421 83.4894 45.133 83.4921 45.1238 83.4921C45.1145 83.4921 45.1055 83.4894 45.0977 83.4843C45.09 83.4792 45.0839 83.472 45.0803 83.4635C44.6833 82.8559 44.0613 82.431 43.351 82.282C42.6659 82.0415 42.0298 81.6795 41.4732 81.2132C41.4664 81.2103 41.4603 81.206 41.4554 81.2004C41.4504 81.1949 41.4468 81.1884 41.4447 81.1813C41.4426 81.1742 41.4422 81.1667 41.4433 81.1594C41.4445 81.152 41.4473 81.1451 41.4515 81.139C41.8025 80.7908 42.27 80.5851 42.7638 80.5614C43.2577 80.5378 43.7427 80.6979 44.1254 81.011C44.5573 81.2344 44.8974 81.602 45.0865 82.05C45.2757 82.498 45.302 82.9981 45.1609 83.4635H45.1673Z" fill="white"/>
<path d="M100.352 6.3999H27.648C26.29 6.3999 24.9878 6.93933 24.0276 7.89952C23.0674 8.8597 22.528 10.162 22.528 11.5199V116.48C22.528 117.838 23.0674 119.14 24.0276 120.1C24.9878 121.06 26.29 121.6 27.648 121.6H100.352C101.71 121.6 103.012 121.06 103.972 120.1C104.933 119.14 105.472 117.838 105.472 116.48V11.5199C105.472 10.162 104.933 8.8597 103.972 7.89952C103.012 6.93933 101.71 6.3999 100.352 6.3999ZM70.3091 14.5189H72.0179V17.5167C71.9935 17.826 72.0626 18.1355 72.2163 18.405C72.2852 18.4917 72.3728 18.5617 72.4725 18.6098C72.5723 18.6579 72.6815 18.6829 72.7923 18.6829C72.903 18.6829 73.0123 18.6579 73.112 18.6098C73.2118 18.5617 73.2993 18.4917 73.3683 18.405C73.5214 18.1353 73.5905 17.826 73.5667 17.5167V14.5189H75.246V17.5717C75.2902 18.2772 75.0564 18.972 74.5945 19.5071C74.0936 19.9515 73.4472 20.1969 72.7776 20.1969C72.1079 20.1969 71.4615 19.9515 70.9606 19.5071C70.4992 18.9717 70.2654 18.2772 70.3091 17.5717V14.5189ZM64.5324 14.5189H65.9404L67.8668 17.0405V14.5189H69.5308V20.0703H68.1228L66.2028 17.5487V20.0703H64.5388L64.5324 14.5189ZM59.6595 14.5189H63.7785V15.9269H61.3388V16.5772H63.488V17.925H61.3388V18.6546H63.872V20.0626H59.6595V14.5189ZM59.8515 38.6021H100.79C100.959 38.6021 101.122 38.6696 101.242 38.7896C101.362 38.9096 101.43 39.0724 101.43 39.2421C101.43 39.4119 101.362 39.5747 101.242 39.6947C101.122 39.8147 100.959 39.8821 100.79 39.8821H59.8515C59.6817 39.8821 59.5189 39.8147 59.3989 39.6947C59.2789 39.5747 59.2115 39.4119 59.2115 39.2421C59.2115 39.0724 59.2789 38.9096 59.3989 38.7896C59.5189 38.6696 59.6817 38.6021 59.8515 38.6021ZM59.8515 43.6415H100.79C100.959 43.6415 101.122 43.7089 101.242 43.829C101.362 43.949 101.43 44.1118 101.43 44.2815C101.43 44.4512 101.362 44.614 101.242 44.7341C101.122 44.8541 100.959 44.9215 100.79 44.9215H59.8515C59.6817 44.9215 59.5189 44.8541 59.3989 44.7341C59.2789 44.614 59.2115 44.4512 59.2115 44.2815C59.2115 44.1118 59.2789 43.949 59.3989 43.829C59.5189 43.7089 59.6817 43.6415 59.8515 43.6415ZM59.8515 48.6809H100.79C100.959 48.6809 101.122 48.7483 101.242 48.8683C101.362 48.9883 101.43 49.1511 101.43 49.3209C101.43 49.4906 101.362 49.6534 101.242 49.7734C101.122 49.8934 100.959 49.9609 100.79 49.9609H59.8515C59.6817 49.9609 59.5189 49.8934 59.3989 49.7734C59.2789 49.6534 59.2115 49.4906 59.2115 49.3209C59.2115 49.1511 59.2789 48.9883 59.3989 48.8683C59.5189 48.7483 59.6817 48.6809 59.8515 48.6809ZM59.8515 53.7202H100.79C100.959 53.7202 101.122 53.7877 101.242 53.9077C101.362 54.0277 101.43 54.1905 101.43 54.3602C101.43 54.53 101.362 54.6927 101.242 54.8128C101.122 54.9328 100.959 55.0002 100.79 55.0002H59.8515C59.6817 55.0002 59.5189 54.9328 59.3989 54.8128C59.2789 54.6927 59.2115 54.53 59.2115 54.3602C59.2115 54.1905 59.2789 54.0277 59.3989 53.9077C59.5189 53.7877 59.6817 53.7202 59.8515 53.7202ZM59.8515 58.7596H100.79C100.959 58.7596 101.122 58.827 101.242 58.947C101.362 59.0671 101.43 59.2298 101.43 59.3996C101.43 59.5693 101.362 59.7321 101.242 59.8521C101.122 59.9722 100.959 60.0396 100.79 60.0396H59.8515C59.6817 60.0396 59.5189 59.9722 59.3989 59.8521C59.2789 59.7321 59.2115 59.5693 59.2115 59.3996C59.2115 59.2298 59.2789 59.0671 59.3989 58.947C59.5189 58.827 59.6817 58.7596 59.8515 58.7596ZM44.3468 64.1074C43.6124 64.2303 42.858 64.1071 42.2009 63.7569C41.5437 63.4068 41.0207 62.8493 40.7131 62.1712C40.4055 61.4931 40.3306 60.7324 40.5 60.0073C40.6694 59.2822 41.0737 58.6334 41.6499 58.1618C42.3843 58.0389 43.1387 58.1621 43.7958 58.5123C44.453 58.8624 44.976 59.4199 45.2836 60.098C45.5912 60.7761 45.6661 61.5369 45.4967 62.2619C45.3273 62.987 44.923 63.6358 44.3468 64.1074ZM38.1299 58.3884C37.4302 58.0683 36.8825 57.4887 36.6025 56.772C36.3226 56.0554 36.3323 55.258 36.6297 54.5484C36.7603 53.7916 37.1796 53.1151 37.7992 52.6614C38.4189 52.2077 39.1904 52.0123 39.9513 52.1164C40.6512 52.4362 41.1991 53.0158 41.4791 53.7326C41.7591 54.4493 41.7492 55.2468 41.4515 55.9564C41.32 56.7127 40.9005 57.3887 40.2811 57.8422C39.6617 58.2957 38.8906 58.4915 38.1299 58.3884ZM31.3689 30.9068C31.2961 30.9185 31.2215 30.9051 31.1573 30.8688C31.0931 30.8325 31.0431 30.7755 31.0156 30.7071L30.798 30.1465C30.7808 30.1021 30.7737 30.0545 30.7773 30.0071C30.7808 29.9597 30.7948 29.9137 30.8183 29.8723C30.8419 29.831 30.8743 29.7955 30.9133 29.7683C30.9523 29.7411 30.9969 29.7229 31.0438 29.7151L31.7273 29.5961C31.6249 28.5653 31.7958 27.5258 32.2227 26.5821C32.6497 25.6384 33.3176 24.8237 34.1593 24.2201C34.3025 24.1162 34.4663 24.0444 34.6397 24.0096C34.8131 23.9747 34.9919 23.9775 35.1641 24.0178C35.4797 24.0899 35.803 24.1226 36.1267 24.1151L35.0515 17.893C35.0372 17.8101 35.0561 17.7249 35.1039 17.6558C35.1518 17.5866 35.2249 17.539 35.3075 17.5231L35.8886 17.422C35.9715 17.4077 36.0567 17.4266 36.1258 17.4744C36.195 17.5223 36.2426 17.5954 36.2585 17.678L37.3337 23.9001C37.6414 23.7991 37.9351 23.6598 38.208 23.4853C38.3584 23.3895 38.5276 23.3268 38.7042 23.3017C38.8808 23.2765 39.0607 23.2894 39.232 23.3394C40.2281 23.6263 41.1311 24.1704 41.8501 24.9171C42.5692 25.6637 43.0789 26.5866 43.328 27.5929L44.0128 27.4738C44.0596 27.4656 44.1076 27.468 44.1534 27.4807C44.1992 27.4934 44.2416 27.5161 44.2776 27.5472C44.3135 27.5784 44.342 27.6171 44.3611 27.6607C44.3801 27.7042 44.3893 27.7514 44.3878 27.7989L44.3712 28.4005C44.3683 28.474 44.3405 28.5444 44.2923 28.6C44.2442 28.6556 44.1785 28.6931 44.1062 28.7065L43.8758 28.7461L44.7603 44.5644C44.7677 44.6902 44.7285 44.8144 44.6501 44.9132C44.5717 45.0119 44.4596 45.0782 44.3353 45.0994L36.6553 46.4268C36.531 46.4489 36.4029 46.4242 36.2956 46.3576C36.1884 46.291 36.1095 46.1871 36.0742 46.0658L31.5993 30.8671L31.3689 30.9068ZM33.536 59.7874C33.9708 59.1538 34.635 58.7141 35.3881 58.5612C36.1412 58.4083 36.9243 58.5543 37.5718 58.9682C38.2948 59.2272 38.8893 59.7564 39.2302 60.4446C39.5711 61.1328 39.6318 61.9264 39.3996 62.6585C38.9642 63.2917 38.2997 63.731 37.5464 63.8836C36.7932 64.0362 36.0101 63.8902 35.3625 63.4764C34.6392 63.2183 34.0444 62.6893 33.7037 62.0011C33.3629 61.3128 33.3028 60.5191 33.536 59.7874ZM47.9372 108.416C47.1709 109.197 46.1661 109.701 45.0816 109.848C44.5567 109.925 44.0214 109.89 43.511 109.746C42.9238 110.039 42.2961 110.243 41.6486 110.35L42.318 110.99C42.4014 111.068 42.4569 111.172 42.476 111.285C42.4951 111.398 42.4768 111.514 42.4239 111.615C42.371 111.716 42.2864 111.798 42.1829 111.847C42.0795 111.896 41.9628 111.909 41.8508 111.886L36.4556 110.76C36.3436 110.737 36.2422 110.678 36.1669 110.592C36.0916 110.506 36.0465 110.397 36.0385 110.283C36.0305 110.169 36.0601 110.056 36.1227 109.96C36.1853 109.864 36.2775 109.792 36.3852 109.754L37.2531 109.44C36.086 108.623 35.1769 107.489 34.6326 106.172C34.0883 104.856 33.9317 103.411 34.1811 102.008C34.1901 101.95 34.2109 101.893 34.2424 101.843C34.2738 101.793 34.3151 101.749 34.3638 101.715C34.4126 101.681 34.4677 101.658 34.5258 101.646C34.5839 101.634 34.6439 101.634 34.702 101.646L47.118 104.237C47.1762 104.249 47.2313 104.273 47.28 104.307C47.3286 104.341 47.3697 104.385 47.4009 104.436C47.432 104.487 47.4525 104.543 47.4611 104.602C47.4697 104.661 47.4662 104.721 47.4508 104.778L47.4432 104.806C47.5097 104.831 47.5712 104.855 47.6416 104.886C47.9611 105.012 48.2382 105.226 48.4408 105.503C48.6434 105.781 48.763 106.11 48.7859 106.452C48.7848 106.82 48.7091 107.184 48.5632 107.521C48.4173 107.859 48.2043 108.163 47.9372 108.416ZM38.688 98.5983C38.5712 98.4868 38.4812 98.3504 38.4247 98.1992C38.3682 98.048 38.3466 97.886 38.3616 97.7253C38.3948 97.5628 38.6176 97.4693 38.848 97.518C39.0784 97.5666 39.2448 97.7394 39.2102 97.902C39.1808 98.0415 39.2627 98.158 39.4214 98.3577C39.548 98.4793 39.6449 98.6285 39.7046 98.7937C39.7643 98.9588 39.7852 99.1355 39.7657 99.31C39.723 99.4582 39.6462 99.5944 39.5416 99.7078C39.4369 99.8211 39.3072 99.9084 39.1628 99.9628C39.0349 100.009 38.9212 100.088 38.8326 100.191C38.744 100.294 38.6836 100.418 38.6572 100.552C38.625 100.766 38.6477 100.985 38.7232 101.188C38.7986 101.391 38.9243 101.571 39.0886 101.713C39.1266 101.734 39.1583 101.766 39.1803 101.804C39.2023 101.841 39.2138 101.884 39.2138 101.928C39.2138 101.972 39.2023 102.015 39.1803 102.053C39.1583 102.091 39.1266 102.122 39.0886 102.144C38.977 102.203 38.8478 102.219 38.7251 102.19C38.6377 102.173 38.5556 102.135 38.4857 102.08C38.2376 101.876 38.0456 101.613 37.928 101.314C37.8103 101.015 37.771 100.692 37.8137 100.374C37.8588 100.168 37.9532 99.9768 38.0888 99.816C38.2243 99.6552 38.3971 99.5299 38.592 99.4508C38.798 99.3381 38.8915 99.2831 38.9222 99.1321C38.9555 98.9516 38.8595 98.8159 38.688 98.5983ZM41.4694 98.0351C41.2502 97.7418 41.1559 97.3737 41.207 97.0111C41.2416 96.8485 41.463 96.7551 41.6934 96.8037C41.9238 96.8524 42.0902 97.0252 42.0569 97.1877C42.0303 97.432 42.1016 97.6769 42.2553 97.8687C42.4915 98.1919 42.59 98.5956 42.5292 98.9913C42.4889 99.1595 42.415 99.3178 42.3118 99.4566C42.2086 99.5954 42.0784 99.7119 41.9289 99.7989C41.7704 99.8943 41.6344 100.023 41.5303 100.176C41.4263 100.329 41.3566 100.502 41.326 100.685C41.2659 100.963 41.2692 101.251 41.3357 101.528C41.4022 101.805 41.5301 102.063 41.71 102.283C41.7439 102.311 41.7695 102.348 41.7843 102.389C41.7992 102.43 41.8025 102.475 41.7941 102.518C41.7858 102.561 41.7659 102.601 41.7367 102.633C41.7074 102.666 41.6699 102.69 41.6281 102.703C41.5259 102.743 41.4141 102.752 41.3068 102.729C41.2013 102.709 41.1041 102.657 41.0278 102.582C40.7819 102.302 40.6042 101.969 40.5087 101.609C40.4132 101.249 40.4025 100.872 40.4774 100.507C40.5211 100.267 40.6145 100.039 40.7516 99.837C40.8887 99.6353 41.0665 99.4645 41.2736 99.3356C41.3743 99.2824 41.4627 99.2084 41.5328 99.1187C41.603 99.0289 41.6533 98.9253 41.6806 98.8146C41.699 98.6773 41.6901 98.5378 41.6543 98.404C41.6185 98.2702 41.5565 98.1448 41.472 98.0351H41.4694ZM43.8579 99.6786C43.7412 99.5668 43.6513 99.4302 43.5948 99.2788C43.5382 99.1274 43.5166 98.9653 43.5315 98.8044C43.5648 98.6418 43.7875 98.5484 44.0179 98.5983C44.2483 98.6482 44.4147 98.8185 44.3801 98.9823C44.3507 99.1218 44.4326 99.2383 44.5913 99.438C44.7177 99.5599 44.8145 99.7091 44.8744 99.8741C44.9343 100.039 44.9557 100.216 44.9369 100.39C44.8936 100.539 44.8165 100.675 44.7117 100.788C44.6069 100.902 44.4771 100.989 44.3328 101.044C44.2048 101.09 44.091 101.168 44.0023 101.271C43.9137 101.374 43.8533 101.499 43.8272 101.632C43.7949 101.846 43.8176 102.065 43.8931 102.268C43.9685 102.471 44.0943 102.652 44.2585 102.793C44.2966 102.815 44.3282 102.846 44.3502 102.884C44.3722 102.922 44.3838 102.965 44.3838 103.009C44.3838 103.052 44.3722 103.095 44.3502 103.133C44.3282 103.171 44.2966 103.203 44.2585 103.224C44.1469 103.283 44.0179 103.3 43.895 103.272C43.8077 103.253 43.7258 103.215 43.6556 103.16C43.4074 102.957 43.2153 102.693 43.0977 102.395C42.9801 102.096 42.9408 101.772 42.9836 101.454C43.0289 101.249 43.1234 101.057 43.2589 100.897C43.3945 100.736 43.5671 100.61 43.7619 100.531C43.968 100.418 44.0614 100.363 44.0921 100.214C44.1254 100.031 44.032 99.8975 43.8579 99.6786ZM49.8278 90.6149L41.6 92.7999C41.4672 92.8359 41.3258 92.8215 41.203 92.7596C41.0801 92.6977 40.9845 92.5926 40.9344 92.4645L34.9785 77.3375L34.5344 77.4553C34.4799 77.4698 34.4228 77.471 34.3678 77.4586C34.3128 77.4462 34.2617 77.4207 34.2187 77.3842C34.1758 77.3477 34.1424 77.3013 34.1213 77.249C34.1003 77.1967 34.0922 77.1401 34.0979 77.0841L34.1964 76.0844C34.2062 75.9918 34.2345 75.9021 34.2796 75.8207C34.2195 75.7909 34.1664 75.7487 34.1238 75.6969C34.0812 75.645 34.0501 75.5847 34.0326 75.5199L34.0006 75.3983C33.969 75.279 33.9848 75.1522 34.0447 75.0443C34.1046 74.9365 34.2039 74.856 34.3219 74.8197C34.3193 74.7921 34.3193 74.7642 34.3219 74.7365L34.3846 73.7484C34.3891 73.6159 34.4346 73.4882 34.5149 73.3827C34.5951 73.2772 34.7061 73.1993 34.8326 73.1596L36.1779 72.8025L36.0972 72.4978C36.081 72.4371 36.0769 72.3738 36.0852 72.3116C36.0934 72.2493 36.1139 72.1893 36.1454 72.1349C36.1769 72.0806 36.2189 72.033 36.2688 71.9949C36.3187 71.9568 36.3757 71.9289 36.4364 71.9129L43.9884 69.9071C44.0491 69.8909 44.1124 69.8868 44.1747 69.895C44.2369 69.9033 44.297 69.9238 44.3513 69.9553C44.4057 69.9868 44.4532 70.0287 44.4913 70.0787C44.5295 70.1286 44.5573 70.1856 44.5734 70.2463L44.654 70.5509L45.9993 70.1938C46.1287 70.1641 46.2641 70.1759 46.3864 70.2276C46.5086 70.2794 46.6115 70.3683 46.6803 70.4818L47.2256 71.31C47.2415 71.3345 47.2548 71.3607 47.2652 71.3881C47.3797 71.3733 47.4956 71.4006 47.5914 71.4649C47.6872 71.5291 47.7564 71.626 47.7862 71.7375L47.8195 71.8655C47.8363 71.9305 47.8391 71.9983 47.8279 72.0645C47.8166 72.1307 47.7915 72.1937 47.7542 72.2495C47.8343 72.2975 47.9036 72.3616 47.9577 72.4377L48.5388 73.2556C48.5716 73.3014 48.5927 73.3546 48.6004 73.4104C48.608 73.4662 48.602 73.5231 48.5829 73.5761C48.5638 73.6291 48.5321 73.6766 48.4905 73.7147C48.4489 73.7527 48.3988 73.7801 48.3443 73.7945L47.9001 73.9122L50.24 89.9929C50.2587 90.1289 50.2272 90.2672 50.1513 90.3817C50.0755 90.4962 49.9604 90.5792 49.8278 90.6149ZM57.2787 20.0703L57.2633 17.5359L56.1638 19.566H55.4099L54.3104 17.6229V20.0703H52.7539V14.5189H54.1619L55.8131 17.477L57.4195 14.5189H58.8275L58.8428 20.0703H57.2787ZM100.79 100.352H59.8515C59.6817 100.352 59.5189 100.284 59.3989 100.164C59.2789 100.044 59.2115 99.8816 59.2115 99.7119C59.2115 99.5422 59.2789 99.3794 59.3989 99.2594C59.5189 99.1393 59.6817 99.0719 59.8515 99.0719H100.79C100.959 99.0719 101.122 99.1393 101.242 99.2594C101.362 99.3794 101.43 99.5422 101.43 99.7119C101.43 99.8816 101.362 100.044 101.242 100.164C101.122 100.284 100.959 100.352 100.79 100.352ZM100.79 95.3125H59.8515C59.6817 95.3125 59.5189 95.2451 59.3989 95.1251C59.2789 95.0051 59.2115 94.8423 59.2115 94.6725C59.2115 94.5028 59.2789 94.34 59.3989 94.22C59.5189 94.1 59.6817 94.0325 59.8515 94.0325H100.79C100.959 94.0325 101.122 94.1 101.242 94.22C101.362 94.34 101.43 94.5028 101.43 94.6725C101.43 94.8423 101.362 95.0051 101.242 95.1251C101.122 95.2451 100.959 95.3125 100.79 95.3125ZM100.79 90.2732H59.8515C59.6817 90.2732 59.5189 90.2058 59.3989 90.0857C59.2789 89.9657 59.2115 89.8029 59.2115 89.6332C59.2115 89.4634 59.2789 89.3007 59.3989 89.1806C59.5189 89.0606 59.6817 88.9932 59.8515 88.9932H100.79C100.959 88.9932 101.122 89.0606 101.242 89.1806C101.362 89.3007 101.43 89.4634 101.43 89.6332C101.43 89.8029 101.362 89.9657 101.242 90.0857C101.122 90.2058 100.959 90.2732 100.79 90.2732ZM100.79 85.2338H59.8515C59.6817 85.2338 59.5189 85.1664 59.3989 85.0464C59.2789 84.9263 59.2115 84.7636 59.2115 84.5938C59.2115 84.4241 59.2789 84.2613 59.3989 84.1413C59.5189 84.0212 59.6817 83.9538 59.8515 83.9538H100.79C100.959 83.9538 101.122 84.0212 101.242 84.1413C101.362 84.2613 101.43 84.4241 101.43 84.5938C101.43 84.7636 101.362 84.9263 101.242 85.0464C101.122 85.1664 100.959 85.2338 100.79 85.2338ZM100.79 80.1945H59.8515C59.6817 80.1945 59.5189 80.127 59.3989 80.007C59.2789 79.887 59.2115 79.7242 59.2115 79.5545C59.2115 79.3847 59.2789 79.2219 59.3989 79.1019C59.5189 78.9819 59.6817 78.9145 59.8515 78.9145H100.79C100.959 78.9145 101.122 78.9819 101.242 79.1019C101.362 79.2219 101.43 79.3847 101.43 79.5545C101.43 79.7242 101.362 79.887 101.242 80.007C101.122 80.127 100.959 80.1945 100.79 80.1945ZM100.79 70.7557H72.3737C72.0342 70.7557 71.7087 70.6209 71.4686 70.3808C71.2286 70.1408 71.0937 69.8152 71.0937 69.4757C71.0937 69.1363 71.2286 68.8107 71.4686 68.5706C71.7087 68.3306 72.0342 68.1957 72.3737 68.1957H100.79C101.129 68.1957 101.455 68.3306 101.695 68.5706C101.935 68.8107 102.07 69.1363 102.07 69.4757C102.07 69.8152 101.935 70.1408 101.695 70.3808C101.455 70.6209 101.129 70.7557 100.79 70.7557ZM100.79 31.3663H72.3737C72.0342 31.3663 71.7087 31.2314 71.4686 30.9914C71.2286 30.7514 71.0937 30.4258 71.0937 30.0863C71.0937 29.7468 71.2286 29.4213 71.4686 29.1812C71.7087 28.9412 72.0342 28.8063 72.3737 28.8063H100.79C101.129 28.8063 101.455 28.9412 101.695 29.1812C101.935 29.4213 102.07 29.7468 102.07 30.0863C102.07 30.4258 101.935 30.7514 101.695 30.9914C101.455 31.2314 101.129 31.3663 100.79 31.3663Z" fill="white"/>
</svg>
