<svg width="128" height="128" viewBox="0 0 128 128" fill="none" xmlns="http://www.w3.org/2000/svg">
<g clip-path="url(#clip0_305_228)">
<path d="M101.333 58.6666H38.08L57.44 35.4133C58.3453 34.3241 58.7808 32.9199 58.6508 31.5097C58.5208 30.0994 57.8358 28.7985 56.7467 27.8933C55.6575 26.988 54.2534 26.5525 52.8431 26.6825C51.4328 26.8125 50.1319 27.4974 49.2267 28.5866L22.56 60.5866C22.3806 60.8411 22.2202 61.1085 22.08 61.3866C22.08 61.6533 22.08 61.8133 21.7067 62.0799C21.4649 62.6914 21.3384 63.3424 21.3333 63.9999C21.3384 64.6575 21.4649 65.3084 21.7067 65.9199C21.7067 66.1866 21.7067 66.3466 22.08 66.6133C22.2202 66.8913 22.3806 67.1587 22.56 67.4133L49.2267 99.4133C49.7281 100.015 50.3561 100.499 51.0659 100.831C51.7756 101.163 52.5498 101.335 53.3333 101.333C54.5795 101.336 55.7871 100.902 56.7467 100.107C57.2867 99.6589 57.7331 99.109 58.0603 98.4885C58.3875 97.868 58.5891 97.189 58.6535 96.4904C58.7179 95.7919 58.6439 95.0875 58.4357 94.4176C58.2274 93.7477 57.8891 93.1255 57.44 92.5866L38.08 69.3333H101.333C102.748 69.3333 104.104 68.7714 105.105 67.7712C106.105 66.771 106.667 65.4144 106.667 63.9999C106.667 62.5854 106.105 61.2289 105.105 60.2287C104.104 59.2285 102.748 58.6666 101.333 58.6666Z" fill="white"/>
</g>
<defs>
<clipPath id="clip0_305_228">
<rect width="128" height="128" fill="white"/>
</clipPath>
</defs>
</svg>
