<svg width="128" height="128" viewBox="0 0 128 128" fill="none" xmlns="http://www.w3.org/2000/svg">
<g clip-path="url(#clip0_365_26)">
<path d="M114.577 60.5802C114.367 60.7855 114.21 61.0388 114.119 61.3183C114.028 61.5979 114.006 61.8953 114.055 62.1852L116.712 77.6777C116.77 78.011 116.732 78.3537 116.605 78.667C116.478 78.9803 116.265 79.2517 115.991 79.4504C115.718 79.6492 115.394 79.7674 115.056 79.7916C114.719 79.8159 114.382 79.7452 114.082 79.5877L100.17 72.2752C99.9208 72.139 99.6414 72.0676 99.3574 72.0676C99.0735 72.0676 98.7941 72.139 98.5449 72.2752L88.3299 77.6427L84.6299 79.5877C84.3306 79.745 83.9933 79.8155 83.656 79.7912C83.3187 79.7668 82.995 79.6486 82.7214 79.4499C82.4478 79.2512 82.2352 78.98 82.1077 78.6668C81.9802 78.3536 81.9429 78.011 81.9999 77.6777L84.6574 62.1852C84.7077 61.8955 84.6866 61.598 84.596 61.3183C84.5054 61.0387 84.348 60.7853 84.1374 60.5802L72.8799 49.6102C72.6377 49.374 72.4663 49.0748 72.3852 48.7463C72.3042 48.4179 72.3166 48.0733 72.4212 47.7515C72.5257 47.4298 72.7182 47.1437 72.9769 46.9256C73.2356 46.7076 73.5501 46.5663 73.8849 46.5177L78.0449 45.9127L83.0024 45.1927L82.9974 45.1852L89.3799 44.2577C89.6707 44.2147 89.9467 44.102 90.1844 43.9291C90.4221 43.7563 90.6144 43.5285 90.7449 43.2652L97.6999 29.1702C97.8566 28.8659 98.0941 28.6107 98.3862 28.4326C98.6784 28.2544 99.014 28.1602 99.3562 28.1602C99.6984 28.1602 100.034 28.2544 100.326 28.4326C100.618 28.6107 100.856 28.8659 101.012 29.1702L107.97 43.2652C108.1 43.5287 108.292 43.7567 108.53 43.9296C108.768 44.1025 109.044 44.215 109.335 44.2577L115.715 45.1852L115.712 45.1927L124.827 46.5177C125.162 46.5661 125.477 46.7073 125.736 46.9253C125.995 47.1434 126.187 47.4295 126.292 47.7513C126.396 48.0732 126.409 48.4178 126.328 48.7464C126.246 49.0749 126.075 49.3741 125.832 49.6102L114.577 60.5802Z" fill="white"/>
<path d="M125.832 49.6102C126.075 49.3741 126.246 49.0749 126.328 48.7464C126.409 48.4178 126.396 48.0732 126.292 47.7513C126.187 47.4295 125.995 47.1434 125.736 46.9253C125.477 46.7073 125.162 46.5661 124.827 46.5177L115.712 45.1927L115.715 45.1852L109.335 44.2577C109.044 44.215 108.768 44.1025 108.53 43.9296C108.292 43.7567 108.1 43.5287 107.97 43.2652L101.012 29.1702C100.856 28.8659 100.618 28.6107 100.326 28.4326C100.034 28.2544 99.6984 28.1602 99.3562 28.1602C99.014 28.1602 98.6784 28.2544 98.3862 28.4326C98.0941 28.6107 97.8566 28.8659 97.6999 29.1702L97.1584 30.2677C97.1963 30.3249 97.2311 30.3841 97.2624 30.4452L104.22 44.5402C104.35 44.8037 104.542 45.0317 104.78 45.2046C105.018 45.3775 105.294 45.49 105.585 45.5327L111.965 46.4602L111.962 46.4677L121.077 47.7927C121.412 47.8411 121.727 47.9823 121.986 48.2003C122.245 48.4184 122.437 48.7045 122.542 49.0263C122.646 49.3481 122.659 49.6928 122.578 50.0213C122.496 50.3499 122.325 50.6491 122.082 50.8852L110.827 61.8552C110.617 62.0605 110.46 62.3138 110.369 62.5933C110.278 62.8729 110.256 63.1703 110.305 63.4602L112.962 78.9527C112.965 78.9692 112.965 78.9852 112.967 79.0017L114.082 79.5877C114.382 79.7452 114.719 79.8159 115.056 79.7916C115.394 79.7674 115.718 79.6492 115.991 79.4504C116.265 79.2517 116.478 78.9803 116.605 78.667C116.732 78.3537 116.77 78.011 116.712 77.6777L114.055 62.1852C114.006 61.8953 114.028 61.5979 114.119 61.3183C114.21 61.0388 114.367 60.7855 114.577 60.5802L125.832 49.6102Z" fill="white"/>
<path d="M43.8625 60.5802C43.6519 60.7853 43.4945 61.0387 43.4039 61.3183C43.3133 61.598 43.2922 61.8955 43.3425 62.1852L46 77.6777C46.057 78.011 46.0197 78.3536 45.8922 78.6668C45.7647 78.98 45.5521 79.2512 45.2785 79.4499C45.0049 79.6486 44.6812 79.7668 44.3439 79.7912C44.0067 79.8155 43.6693 79.745 43.37 79.5877L39.13 77.3602L29.455 72.2752C29.2058 72.139 28.9265 72.0676 28.6425 72.0676C28.3586 72.0676 28.0792 72.139 27.83 72.2752L13.9175 79.5877C13.6182 79.7452 13.2808 79.8159 12.9435 79.7916C12.6061 79.7674 12.2823 79.6492 12.0086 79.4504C11.7349 79.2517 11.5223 78.9803 11.3949 78.667C11.2675 78.3537 11.2303 78.011 11.2875 77.6777L13.945 62.1852C13.9942 61.8953 13.9724 61.5979 13.8814 61.3183C13.7904 61.0388 13.6329 60.7855 13.4225 60.5802L2.16751 49.6102C1.92504 49.3741 1.75351 49.0749 1.67232 48.7464C1.59113 48.4178 1.60354 48.0732 1.70813 47.7513C1.81271 47.4295 2.00531 47.1434 2.26412 46.9253C2.52292 46.7073 2.83759 46.5661 3.17251 46.5177L12.2875 45.1927L12.285 45.1852L18.665 44.2577C18.9559 44.215 19.232 44.1025 19.4698 43.9296C19.7075 43.7567 19.8998 43.5287 20.03 43.2652L26.9875 29.1702C27.1442 28.8659 27.3816 28.6107 27.6738 28.4326C27.966 28.2544 28.3016 28.1602 28.6438 28.1602C28.986 28.1602 29.3216 28.2544 29.6137 28.4326C29.9059 28.6107 30.1433 28.8659 30.3 29.1702L37.255 43.2652C37.3855 43.5285 37.5778 43.7563 37.8155 43.9291C38.0533 44.102 38.3293 44.2147 38.62 44.2577L45.0025 45.1852L44.9975 45.1927L49.2725 45.8152L54.115 46.5177C54.4498 46.5663 54.7644 46.7076 55.023 46.9256C55.2817 47.1437 55.4742 47.4298 55.5788 47.7515C55.6834 48.0733 55.6958 48.4179 55.6147 48.7463C55.5337 49.0748 55.3623 49.374 55.12 49.6102L43.8625 60.5802Z" fill="white"/>
<path d="M104.05 57.2599L88.525 72.3899C88.235 72.6735 88.0181 73.0232 87.8932 73.409C87.7682 73.7948 87.7388 74.2052 87.8075 74.6049L88.33 77.6424L84.63 79.5874C84.3307 79.7448 83.9933 79.8153 83.656 79.791C83.3188 79.7666 82.995 79.6484 82.7214 79.4497C82.4478 79.251 82.2352 78.9797 82.1077 78.6665C81.9803 78.3534 81.9429 78.0107 82 77.6774L84.6575 62.1849C84.7077 61.8953 84.6866 61.5978 84.596 61.3181C84.5054 61.0385 84.348 60.7851 84.1375 60.5799L72.88 49.6099C72.6377 49.3738 72.4663 49.0746 72.3852 48.7461C72.3042 48.4176 72.3166 48.0731 72.4212 47.7513C72.5257 47.4295 72.7182 47.1435 72.9769 46.9254C73.2356 46.7074 73.5501 46.566 73.885 46.5174L78.045 45.9124L79.3275 48.5099C79.5071 48.8732 79.7723 49.1875 80.1002 49.4257C80.4281 49.6639 80.8089 49.8189 81.21 49.8774L102.665 52.9949C103.127 53.0623 103.56 53.2573 103.917 53.5581C104.273 53.8589 104.538 54.2535 104.683 54.6971C104.827 55.1408 104.844 55.6159 104.732 56.0688C104.62 56.5217 104.384 56.9343 104.05 57.2599ZM43.8625 60.5799C43.6519 60.7851 43.4945 61.0385 43.4039 61.3181C43.3133 61.5978 43.2922 61.8953 43.3425 62.1849L46 77.6774C46.057 78.0107 46.0196 78.3534 45.8922 78.6665C45.7647 78.9797 45.5521 79.251 45.2785 79.4497C45.0049 79.6484 44.6811 79.7666 44.3439 79.791C44.0066 79.8153 43.6693 79.7448 43.37 79.5874L39.13 77.3599L39.6775 74.1724C39.7459 73.7731 39.7163 73.3632 39.5914 72.9778C39.4664 72.5924 39.2497 72.2431 38.96 71.9599L23.435 56.8274C23.1012 56.5017 22.8651 56.0891 22.7534 55.6363C22.6418 55.1835 22.6589 54.7084 22.803 54.2648C22.947 53.8212 23.2122 53.4268 23.5686 53.1259C23.925 52.8251 24.3585 52.6299 24.82 52.5624L46.275 49.4474C46.6759 49.3887 47.0566 49.2333 47.3841 48.9946C47.7117 48.7559 47.9762 48.4412 48.155 48.0774L49.2725 45.8149L54.115 46.5174C54.4498 46.566 54.7643 46.7074 55.023 46.9254C55.2817 47.1435 55.4742 47.4295 55.5787 47.7513C55.6833 48.0731 55.6958 48.4176 55.6147 48.7461C55.5336 49.0746 55.3622 49.3738 55.12 49.6099L43.8625 60.5799Z" fill="white"/>
<path d="M65.984 30.0125L75.5783 49.4525C75.7577 49.816 76.0228 50.1304 76.3507 50.3686C76.6787 50.6069 77.0596 50.7618 77.4608 50.82L98.914 53.9375C99.3756 54.0047 99.8092 54.1996 100.166 54.5002C100.522 54.8009 100.788 55.1954 100.932 55.639C101.076 56.0826 101.093 56.5577 100.981 57.0105C100.87 57.4634 100.633 57.8759 100.3 58.2015L84.7758 73.3335C84.4855 73.6165 84.2684 73.9657 84.1432 74.3512C84.0179 74.7367 83.9883 75.1468 84.0568 75.5463L87.7213 96.913C87.8001 97.3728 87.7487 97.8455 87.5729 98.2776C87.3972 98.7097 87.104 99.084 86.7266 99.3581C86.3492 99.6323 85.9026 99.7954 85.4373 99.829C84.972 99.8626 84.5066 99.7654 84.0938 99.5483L64.9055 89.4605C64.5468 89.272 64.1476 89.1734 63.7423 89.1734C63.337 89.1734 62.9378 89.272 62.579 89.4605L43.3905 99.5483C42.9776 99.7654 42.5122 99.8627 42.0469 99.829C41.5816 99.7954 41.135 99.6323 40.7576 99.3581C40.3801 99.0839 40.087 98.7096 39.9112 98.2774C39.7355 97.8453 39.6841 97.3726 39.763 96.9128L43.428 75.5463C43.4965 75.1468 43.4668 74.7366 43.3415 74.3512C43.2162 73.9657 42.999 73.6164 42.7088 73.3335L27.185 58.2015C26.851 57.8759 26.6147 57.4633 26.5029 57.0104C26.3911 56.5575 26.4083 56.0824 26.5524 55.6387C26.6966 55.195 26.9621 54.8006 27.3187 54.4999C27.6754 54.1992 28.1091 54.0043 28.5708 53.9373L50.024 50.82C50.4251 50.7618 50.806 50.6068 51.1339 50.3686C51.4618 50.1304 51.7269 49.816 51.9063 49.4525L61.5005 30.0125C61.707 29.5943 62.0263 29.2421 62.4225 28.9959C62.8187 28.7496 63.2758 28.6191 63.7423 28.6191C64.2087 28.6191 64.6659 28.7496 65.062 28.9959C65.4582 29.2421 65.7775 29.5943 65.984 30.0125Z" fill="white"/>
<path d="M128.075 47.1712C127.865 46.5155 127.474 45.9323 126.947 45.4884C126.421 45.0445 125.78 44.7579 125.098 44.6615L116.164 43.3632C116.105 43.3489 116.045 43.3372 115.985 43.3282L109.636 42.4057L102.694 28.3392C102.382 27.7216 101.905 27.2027 101.316 26.8401C100.727 26.4776 100.048 26.2856 99.3566 26.2856C98.6648 26.2857 97.9865 26.4777 97.3973 26.8403C96.808 27.2029 96.331 27.7219 96.0192 28.3395L89.0774 42.4057L82.7289 43.3282C82.6692 43.3369 82.61 43.3486 82.5514 43.3632L75.1917 44.4325L67.6654 29.1825C67.3042 28.4504 66.7453 27.834 66.0519 27.4031C65.3586 26.9721 64.5585 26.7437 63.7422 26.7437C62.9258 26.7437 62.1258 26.9721 61.4324 27.4031C60.7391 27.834 60.1802 28.4504 59.8189 29.1825L52.3272 44.3625L45.4502 43.3632C45.3914 43.3489 45.3316 43.3372 45.2709 43.3282L38.9227 42.4057L31.9802 28.3397C31.6684 27.7221 31.1914 27.203 30.6021 26.8404C30.0129 26.4777 29.3346 26.2857 28.6427 26.2857C27.9508 26.2857 27.2725 26.4777 26.6832 26.8404C26.094 27.203 25.6169 27.7221 25.3052 28.3397L18.3632 42.4057L12.0152 43.3282C11.9554 43.3369 11.8961 43.3486 11.8374 43.3632L2.90169 44.6615C2.22072 44.7604 1.581 45.0478 1.05489 45.4914C0.528776 45.9349 0.137261 46.5168 -0.0753792 47.1712C-0.288019 47.8256 -0.3133 48.5265 -0.148363 49.1946C0.0165745 49.8626 0.365149 50.4712 0.85794 50.9515L12.0904 61.9007L9.43869 77.3607C9.32051 78.0394 9.39502 78.7375 9.65373 79.376C9.91245 80.0144 10.345 80.5675 10.9023 80.9724C11.4596 81.3773 12.1192 81.6178 12.8064 81.6666C13.4935 81.7154 14.1805 81.5706 14.7894 81.2485L28.6429 73.965L40.7087 80.3085L37.9152 96.5957C37.7771 97.4004 37.867 98.2276 38.1745 98.9838C38.4821 99.74 38.9951 100.395 39.6556 100.875C40.316 101.355 41.0976 101.64 41.9118 101.699C42.7261 101.758 43.5406 101.588 44.2632 101.208L63.4517 91.1197C63.5413 91.0725 63.6411 91.0479 63.7423 91.0479C63.8436 91.048 63.9434 91.0727 64.0329 91.12L83.2214 101.208C83.944 101.588 84.7584 101.758 85.5726 101.699C86.3868 101.64 87.1683 101.355 87.8287 100.875C88.4891 100.395 89.0021 99.74 89.3097 98.9839C89.6173 98.2277 89.7072 97.4006 89.5692 96.596L86.8182 80.5555L99.3569 73.965L113.211 81.2485C113.82 81.5687 114.506 81.712 115.192 81.6624C115.879 81.6128 116.537 81.3721 117.094 80.9677C117.651 80.5632 118.083 80.0111 118.342 79.3737C118.602 78.7363 118.677 78.0391 118.561 77.361L115.91 61.9005L127.142 50.9515C127.637 50.4727 127.987 49.8642 128.152 49.1956C128.317 48.5271 128.291 47.8256 128.075 47.1715L128.075 47.1712ZM41.5799 75.2295L41.3752 76.422L30.3284 70.6147C29.8174 70.3471 29.2508 70.2027 28.6739 70.193C28.6533 70.1925 28.6326 70.1925 28.6119 70.193C28.0351 70.2027 27.4686 70.347 26.9574 70.6145L13.1562 77.8702L15.7922 62.502C15.8932 61.9127 15.8494 61.3078 15.6646 60.7392C15.4798 60.1706 15.1596 59.6555 14.7314 59.2382L3.56619 48.3542L12.5572 47.0477C12.6169 47.0391 12.6761 47.0275 12.7347 47.013L18.9347 46.1122C19.5265 46.0264 20.0885 45.7979 20.5723 45.4464C21.0561 45.095 21.4472 44.631 21.7117 44.0947L28.6429 30.0505L35.5742 44.0945C35.8387 44.6308 36.2297 45.0946 36.7134 45.4461C37.1972 45.7976 37.7592 46.0261 38.3509 46.112L44.5494 47.0127C44.6087 47.0272 44.6682 47.039 44.7289 47.0477L50.5822 47.8982L50.2247 48.6225C50.1799 48.7133 50.1136 48.7919 50.0317 48.8514C49.9498 48.911 49.8547 48.9498 49.7544 48.9645L28.3009 52.082C27.493 52.1993 26.7341 52.5404 26.1099 53.0665C25.4857 53.5927 25.0212 54.2831 24.7689 55.0595C24.5166 55.8359 24.4865 56.6674 24.6822 57.46C24.8778 58.2526 25.2913 58.9746 25.8759 59.5445L41.4004 74.6765C41.4729 74.7472 41.527 74.8345 41.5583 74.9309C41.5895 75.0272 41.5968 75.1297 41.5797 75.2295H41.5799ZM85.6244 97.841C85.5314 97.9124 85.4195 97.9549 85.3026 97.9634C85.1856 97.9718 85.0687 97.9458 84.9664 97.8885L65.7782 87.801C65.1504 87.4706 64.4516 87.298 63.7422 87.298C63.0328 87.298 62.334 87.4706 61.7062 87.801L42.5182 97.8885C42.415 97.9428 42.2986 97.9671 42.1823 97.9587C42.0659 97.9503 41.9543 97.9095 41.8599 97.841C41.7655 97.7725 41.6922 97.6789 41.6482 97.5709C41.6042 97.4629 41.5913 97.3447 41.6109 97.2297L45.2757 75.8635C45.3958 75.1643 45.344 74.4464 45.1247 73.7718C44.9055 73.0971 44.5255 72.4858 44.0174 71.9907L28.4939 56.859C28.4104 56.7776 28.3513 56.6745 28.3233 56.5613C28.2953 56.448 28.2995 56.3292 28.3355 56.2183C28.3715 56.1074 28.4378 56.0087 28.527 55.9335C28.6161 55.8583 28.7245 55.8095 28.8399 55.7927L50.2937 52.6755C50.9956 52.5735 51.6622 52.3023 52.2361 51.8854C52.8099 51.4685 53.2738 50.9183 53.5877 50.2822L63.1819 30.8422C63.2336 30.7377 63.3134 30.6497 63.4124 30.5882C63.5115 30.5266 63.6257 30.494 63.7423 30.494C63.8589 30.494 63.9732 30.5266 64.0722 30.5882C64.1712 30.6497 64.2511 30.7377 64.3027 30.8422L73.8967 50.2817C74.2105 50.918 74.6744 51.4684 75.2484 51.8854C75.8223 52.3024 76.4891 52.5736 77.1912 52.6755L98.6442 55.793C98.7596 55.8098 98.868 55.8585 98.9571 55.9337C99.0462 56.0089 99.1126 56.1075 99.1486 56.2184C99.1846 56.3293 99.1889 56.4481 99.1609 56.5613C99.133 56.6745 99.0739 56.7776 98.9904 56.859L83.4667 71.9907C82.9588 72.4859 82.5789 73.0971 82.3597 73.7717C82.1406 74.4463 82.0887 75.1641 82.2087 75.8632L82.8942 79.8597L82.8967 79.8747L85.8732 97.2297C85.896 97.3448 85.8846 97.464 85.8404 97.5726C85.7961 97.6812 85.7211 97.7745 85.6244 97.841ZM113.269 59.238C112.84 59.6552 112.52 60.1704 112.335 60.7391C112.15 61.3078 112.107 61.9129 112.208 62.5022L114.844 77.8702L101.043 70.6147C100.531 70.3471 99.9647 70.2026 99.3877 70.193C99.3671 70.1925 99.3465 70.1925 99.3259 70.193C98.7492 70.2027 98.1827 70.347 97.6717 70.6145L86.1517 76.6695L85.9047 75.2297C85.8874 75.1298 85.8948 75.0272 85.9261 74.9308C85.9574 74.8343 86.0118 74.747 86.0844 74.6762L101.608 59.5442C102.193 58.9744 102.606 58.2524 102.802 57.4598C102.998 56.6672 102.968 55.8356 102.715 55.0592C102.463 54.2828 101.998 53.5925 101.374 53.0663C100.75 52.5401 99.9911 52.1991 99.1832 52.0817L77.7304 48.9645C77.6301 48.9499 77.5348 48.9112 77.4528 48.8516C77.3708 48.792 77.3045 48.7134 77.2597 48.6225L76.9367 47.9682L83.2709 47.0477C83.3307 47.0391 83.3899 47.0275 83.4484 47.013L89.6484 46.1122C90.2402 46.0264 90.8023 45.7979 91.2861 45.4464C91.7699 45.095 92.1609 44.631 92.4254 44.0947L99.3569 30.0502L106.288 44.0945C106.552 44.6308 106.943 45.0947 107.427 45.4462C107.911 45.7977 108.473 46.0262 109.065 46.112L115.263 47.0127C115.322 47.0272 115.382 47.039 115.443 47.0477L124.434 48.3545L113.269 59.238Z" fill="black"/>
</g>
<defs>
<clipPath id="clip0_365_26">
<rect width="128" height="128" fill="white"/>
</clipPath>
</defs>
</svg>
