<svg width="128" height="128" viewBox="0 0 128 128" fill="none" xmlns="http://www.w3.org/2000/svg">
<path fill-rule="evenodd" clip-rule="evenodd" d="M48 6.66675C50.2091 6.66675 52 8.45763 52 10.6667V17.39C55.5691 17.3334 59.5349 17.3334 63.9408 17.3334H64.0592C68.4651 17.3334 72.4309 17.3334 76 17.39V10.6667C76 8.45763 77.7909 6.66675 80 6.66675C82.2091 6.66675 84 8.45763 84 10.6667V17.6725C92.0635 18.1781 98.2581 19.4846 103.359 23.1902C105.962 25.0817 108.252 27.3712 110.143 29.9746C113.268 34.2751 114.667 39.3118 115.34 45.528C116 51.6193 116 59.2971 116 69.0918V69.3947C116 75.5803 116 80.8993 115.843 85.4705C115.501 95.4619 114.42 102.806 110.143 108.692C108.252 111.296 105.962 113.585 103.359 115.476C97.4725 119.753 90.1285 120.834 80.1371 121.177C75.5648 121.333 70.2453 121.333 64.0576 121.333H63.7584C53.9637 121.333 46.2859 121.333 40.1946 120.674C33.9783 120 28.9417 118.601 24.6413 115.476C22.0378 113.585 19.7483 111.296 17.8568 108.692C14.7324 104.392 13.3334 99.3553 12.6599 93.1387C11.9999 87.0475 11.9999 79.3697 12 69.5745V69.0923C11.9999 59.2971 11.9999 51.6193 12.6599 45.528C13.3334 39.3118 14.7324 34.2751 17.8568 29.9746C19.7483 27.3712 22.0378 25.0817 24.6413 23.1902C29.7416 19.4846 35.9364 18.1781 44 17.6725V10.6667C44 8.45763 45.7909 6.66675 48 6.66675ZM44 25.6921C36.7357 26.1917 32.5428 27.3379 29.3435 29.6624C27.4193 31.0605 25.727 32.7527 24.329 34.6769C22.3605 37.3863 21.2131 40.8541 20.6133 46.3896C20.0055 52 20 59.2449 20 69.3334C20 79.4219 20.0055 86.6667 20.6133 92.2774C21.2131 97.8129 22.3605 101.281 24.329 103.99C25.727 105.914 27.4193 107.606 29.3435 109.004C32.0529 110.973 35.5207 112.12 41.0563 112.72C46.6666 113.328 53.9115 113.333 64 113.333C68.5243 113.333 72.4896 113.333 76.0096 113.276C76.0331 110.744 76.112 108.881 76.3776 107.203C78.456 94.0806 88.7472 83.7894 101.869 81.711C103.547 81.4454 105.411 81.3665 107.942 81.343C108 77.823 108 73.8577 108 69.3334C108 59.2449 107.995 52 107.387 46.3896C106.787 40.8541 105.639 37.3863 103.671 34.6769C102.273 32.7527 100.581 31.0605 98.6565 29.6624C95.4571 27.3379 91.2645 26.1917 84 25.6921V26.6667C84 28.8759 82.2091 30.6667 80 30.6667C77.7909 30.6667 76 28.8759 76 26.6667V25.391C72.4821 25.3337 68.5205 25.3334 64 25.3334C59.4795 25.3334 55.5179 25.3337 52 25.391V26.6667C52 28.8759 50.2091 30.6667 48 30.6667C45.7909 30.6667 44 28.8759 44 26.6667V25.6921ZM107.641 89.3483C105.481 89.3734 104.214 89.4395 103.121 89.6123C93.4219 91.1489 85.8155 98.7553 84.2789 108.454C84.1061 109.548 84.04 110.814 84.0149 112.974C91.2699 112.474 95.4592 111.327 98.6565 109.004C100.581 107.606 102.273 105.914 103.671 103.99C105.994 100.793 107.14 96.6033 107.641 89.3483Z" fill="#010101"/>
<path d="M42.6667 48.0001C42.6667 50.9456 40.2789 53.3334 37.3333 53.3334C34.3878 53.3334 32 50.9456 32 48.0001C32 45.0546 34.3878 42.6667 37.3333 42.6667C40.2789 42.6667 42.6667 45.0546 42.6667 48.0001ZM42.6667 69.3334C42.6667 72.279 40.2789 74.6667 37.3333 74.6667C34.3878 74.6667 32 72.279 32 69.3334C32 66.3878 34.3878 64.0001 37.3333 64.0001C40.2789 64.0001 42.6667 66.3878 42.6667 69.3334ZM69.3333 48.0001C69.3333 50.9456 66.9456 53.3334 64 53.3334C61.0544 53.3334 58.6667 50.9456 58.6667 48.0001C58.6667 45.0546 61.0544 42.6667 64 42.6667C66.9456 42.6667 69.3333 45.0546 69.3333 48.0001ZM69.3333 69.3334C69.3333 72.279 66.9456 74.6667 64 74.6667C61.0544 74.6667 58.6667 72.279 58.6667 69.3334C58.6667 66.3878 61.0544 64.0001 64 64.0001C66.9456 64.0001 69.3333 66.3878 69.3333 69.3334ZM69.3333 90.6667C69.3333 93.6123 66.9456 96.0001 64 96.0001C61.0544 96.0001 58.6667 93.6123 58.6667 90.6667C58.6667 87.7211 61.0544 85.3334 64 85.3334C66.9456 85.3334 69.3333 87.7211 69.3333 90.6667ZM96 48.0001C96 50.9456 93.6123 53.3334 90.6667 53.3334C87.7211 53.3334 85.3333 50.9456 85.3333 48.0001C85.3333 45.0546 87.7211 42.6667 90.6667 42.6667C93.6123 42.6667 96 45.0546 96 48.0001ZM96 69.3334C96 72.279 93.6123 74.6667 90.6667 74.6667C87.7211 74.6667 85.3333 72.279 85.3333 69.3334C85.3333 66.3878 87.7211 64.0001 90.6667 64.0001C93.6123 64.0001 96 66.3878 96 69.3334ZM42.6667 90.6667C42.6667 93.6123 40.2789 96.0001 37.3333 96.0001C34.3878 96.0001 32 93.6123 32 90.6667C32 87.7211 34.3878 85.3334 37.3333 85.3334C40.2789 85.3334 42.6667 87.7211 42.6667 90.6667Z" fill="#010101"/>
</svg>
