<svg width="128" height="128" viewBox="0 0 128 128" fill="none" xmlns="http://www.w3.org/2000/svg">
<path d="M112 26.6654H96L85.3333 10.6667H42.6667L32 26.6667H16C7.16 26.6667 0 33.9121 0 42.7494V101.333C0 110.173 7.16 117.333 16 117.333H112C120.84 117.333 128 110.255 128 101.416V42.8321C128 33.9921 120.84 26.6654 112 26.6654ZM117.333 101.416C117.333 104.364 114.991 106.667 112 106.667H16C13.0587 106.667 10.6667 104.275 10.6667 101.333V42.7494C10.6667 39.7641 13.0587 37.3334 16 37.3334H37.708L48.3747 21.3334H79.812L90.2907 37.3334H112C114.891 37.3334 117.333 39.8521 117.333 42.8334V101.416ZM64 42.6667C49.272 42.6667 37.3333 54.6067 37.3333 69.3334C37.3333 84.0601 49.2733 96.0001 64 96.0001C78.728 96.0001 90.6667 84.0614 90.6667 69.3334C90.6667 54.6054 78.728 42.6667 64 42.6667ZM64 85.3334C55.1773 85.3334 48 78.1561 48 69.3334C48 60.5107 55.176 53.3334 64 53.3334C72.8227 53.3334 80 60.5107 80 69.3334C80 78.1561 72.8213 85.3334 64 85.3334Z" fill="black"/>
</svg>
