<svg width="128" height="128" viewBox="0 0 128 128" fill="none" xmlns="http://www.w3.org/2000/svg">
<path d="M80.8 102.9L76 105.16L75.78 105.2C75.6006 103.211 74.9907 101.284 73.9927 99.5539C72.9946 97.8237 71.6322 96.3313 70 95.18V88L80.8 93.1C81.7507 93.5186 82.5591 94.2048 83.1266 95.0748C83.6942 95.9449 83.9964 96.9612 83.9964 98C83.9964 99.0388 83.6942 100.055 83.1266 100.925C82.5591 101.795 81.7507 102.481 80.8 102.9Z" fill="#ED995A"/>
<path d="M75.524 105.732C75.0717 105.731 74.633 105.577 74.2796 105.295C73.9262 105.013 73.6789 104.619 73.578 104.178C73.056 101.233 71.3957 98.611 68.956 96.8801C68.6637 96.7012 68.4222 96.4501 68.2548 96.1511C68.0874 95.852 67.9996 95.5149 68 95.1721V87.8701C68 87.3397 68.2107 86.831 68.5858 86.4559C68.9609 86.0808 69.4696 85.8701 70 85.8701C70.5304 85.8701 71.0391 86.0808 71.4142 86.4559C71.7893 86.831 72 87.3397 72 87.8701V94.1221C74.8248 96.4563 76.7587 99.6927 77.476 103.286C77.5352 103.542 77.5433 103.808 77.4997 104.067C77.4561 104.327 77.3617 104.575 77.222 104.798C77.0823 105.021 76.9 105.214 76.6855 105.367C76.471 105.519 76.2285 105.628 75.972 105.686C75.8248 105.718 75.6746 105.733 75.524 105.732Z" fill="#E2884B"/>
<path d="M69.9999 86.32V76C69.9999 74.4087 69.3678 72.8826 68.2426 71.7574C67.1174 70.6321 65.5912 70 63.9999 70C62.4086 70 60.8825 70.6321 59.7573 71.7574C58.6321 72.8826 57.9999 74.4087 57.9999 76V88.82L52.3599 90L39.9999 92.58L37.9999 93L33.0799 94.02L30.2599 80.52L15.9399 11.78L37.9999 7.18L39.9999 6.76L43.6399 6H63.7599L80.0599 84.22L69.9999 86.32Z" fill="#02966C"/>
<path d="M111.94 11.68L109.52 23.46L95.0801 93.96L77.4401 90.34L75.7801 90L65.7001 87.94L48.0601 84.32L64.1001 6H84.2401L88.0001 6.78L90.0001 7.18L100.24 9.28L111.94 11.68Z" fill="#02966C"/>
<path d="M88 6H40V90H88V6Z" fill="#02966C"/>
<path d="M111.94 11.68L109.52 23.46C106.411 22.8062 103.689 20.9463 101.949 18.2882C100.209 15.63 99.5948 12.3906 100.24 9.28003L111.94 11.68Z" fill="#38CE98"/>
<path d="M88 39.0559C89.2583 40.1815 90.265 41.5599 90.9542 43.1011C91.6434 44.6423 91.9997 46.3116 91.9997 47.9999C91.9997 49.6882 91.6434 51.3575 90.9542 52.8987C90.265 54.4399 89.2583 55.8183 88 56.9439V39.0559Z" fill="#F9E280"/>
<path d="M40 6H64V56.484C64 58.5216 63.5987 60.5392 62.8189 62.4217C62.0392 64.3042 60.8963 66.0147 59.4555 67.4555C58.0147 68.8963 56.3042 70.0392 54.4217 70.8189C52.5392 71.5987 50.5216 72 48.484 72H40V6Z" fill="#11AA7B"/>
<path d="M70 76V86.32L58 88.82V76C58 74.4087 58.6321 72.8826 59.7574 71.7574C60.8826 70.6321 62.4087 70 64 70C65.5913 70 67.1174 70.6321 68.2426 71.7574C69.3679 72.8826 70 74.4087 70 76Z" fill="#02966C"/>
<path d="M18.382 23.53C19.925 23.2083 21.3895 22.5859 22.6919 21.6981C23.9943 20.8104 25.1091 19.6747 25.9725 18.3561C26.836 17.0374 27.4312 15.5616 27.7241 14.0129C28.0171 12.4641 28.0021 10.8729 27.68 9.32996L15.934 11.782L18.382 23.53ZM40 39.06V56.92C38.0793 55.2262 36.7657 52.9503 36.26 50.44C35.8261 48.3818 35.9435 46.2455 36.6002 44.2472C37.2569 42.2489 38.4297 40.4595 40 39.06Z" fill="#38CE98"/>
<path d="M91.76 50.4001C91.252 52.9256 89.9314 55.2154 88 56.9201V39.0601C89.5625 40.4572 90.7319 42.2393 91.3915 44.2289C92.0512 46.2185 92.1783 48.3461 91.76 50.4001Z" fill="#39D8A3"/>
<path d="M40 6.78003V92.58L38 93V7.18003L40 6.78003Z" fill="#038E63"/>
<path d="M44.824 91.5659C44.5026 90.0227 43.8803 88.5579 42.9927 87.2553C42.105 85.9527 40.9694 84.8377 39.6507 83.974C38.3321 83.1104 36.8561 82.515 35.3073 82.2219C33.7585 81.9289 32.1671 81.9438 30.624 82.2659L33.072 94.0139L44.824 91.5659Z" fill="#38CE98"/>
<path d="M40 18C43.1826 18 46.2348 16.7357 48.4853 14.4853C50.7357 12.2348 52 9.1826 52 6H40V18ZM88 18C84.8174 18 81.7652 16.7357 79.5147 14.4853C77.2643 12.2348 76 9.1826 76 6H88V18Z" fill="#39D8A3"/>
<path d="M64 60C70.6274 60 76 54.6274 76 48C76 41.3726 70.6274 36 64 36C57.3726 36 52 41.3726 52 48C52 54.6274 57.3726 60 64 60Z" fill="#39D8A3"/>
<path d="M66 24H62V28H66V24Z" fill="#39D8A3"/>
<path d="M52 90C52 86.8174 50.7357 83.7652 48.4853 81.5147C46.2348 79.2643 43.1826 78 40 78V90H52Z" fill="#39D8A3"/>
<path d="M90 7.18003V90H88V6.78003L90 7.18003Z" fill="#038E63"/>
<path d="M83.326 91.5539C83.6416 90.0096 84.2583 88.5425 85.1409 87.2365C86.0236 85.9305 87.1549 84.8113 88.4702 83.9426C89.7855 83.074 91.2591 82.473 92.8068 82.1739C94.3544 81.8749 95.9458 81.8838 97.4901 82.1999L95.09 93.9539L83.326 91.5539Z" fill="#38CE98"/>
<path d="M76 90C76 86.8174 77.2643 83.7652 79.5147 81.5147C81.7652 79.2643 84.8174 78 88 78V90H76Z" fill="#39D8A3"/>
<path d="M76 108C76 115.74 71.52 122 66 122H40L28 96L30 80H30.06L30.26 80.52L33.08 94.02L52.36 90H58V76C58 74.4087 58.6321 72.8826 59.7574 71.7574C60.8826 70.6321 62.4087 70 64 70C65.5913 70 67.1174 70.6321 68.2426 71.7574C69.3679 72.8826 70 74.4087 70 76V95.18C70.2211 95.3151 70.4347 95.462 70.64 95.62C70.86 95.78 71.06 95.94 71.28 96.12C71.483 96.2964 71.6766 96.4833 71.86 96.68C71.9583 96.7683 72.0517 96.8617 72.14 96.96C72.26 97.1 72.4 97.24 72.52 97.4C73.3517 98.3911 74.0262 99.5041 74.52 100.7C74.6606 100.998 74.7809 101.306 74.88 101.62C74.9353 101.736 74.9821 101.857 75.02 101.98C75.0779 102.1 75.1183 102.228 75.14 102.36C75.2744 102.754 75.3879 103.154 75.48 103.56C75.6 104.1 75.7 104.64 75.78 105.2C75.8409 105.53 75.8809 105.864 75.9 106.2C75.9398 106.398 75.9599 106.599 75.96 106.8C75.98 107.2 76 107.6 76 108Z" fill="#F7AA6B"/>
<path d="M64 70V93.06C63.9958 99.3432 62.0804 105.477 58.5082 110.646C54.936 115.815 49.876 119.775 44 122H40L28 96L30 80H30.06L30.26 80.52L33.08 94.02L52.36 90H58V76C58 74.4087 58.6321 72.8826 59.7574 71.7574C60.8826 70.6321 62.4087 70 64 70Z" fill="#F9B378"/>
<path d="M78 48C78 45.2311 77.1789 42.5243 75.6406 40.222C74.1022 37.9197 71.9157 36.1253 69.3576 35.0657C66.7994 34.0061 63.9845 33.7288 61.2687 34.269C58.553 34.8092 56.0584 36.1426 54.1005 38.1005C52.1426 40.0584 50.8092 42.553 50.269 45.2687C49.7288 47.9845 50.0061 50.7994 51.0657 53.3576C52.1253 55.9157 53.9197 58.1022 56.222 59.6406C58.5243 61.1789 61.2311 62 64 62C67.7117 61.9958 71.2702 60.5194 73.8948 57.8948C76.5194 55.2702 77.9958 51.7117 78 48ZM64 58C62.0222 58 60.0888 57.4135 58.4443 56.3147C56.7998 55.2159 55.5181 53.6541 54.7612 51.8268C54.0043 49.9996 53.8063 47.9889 54.1922 46.0491C54.578 44.1093 55.5304 42.3275 56.9289 40.9289C58.3275 39.5304 60.1093 38.578 62.0491 38.1922C63.9889 37.8063 65.9996 38.0043 67.8268 38.7612C69.6541 39.5181 71.2159 40.7998 72.3147 42.4443C73.4135 44.0888 74 46.0222 74 48C73.9968 50.6512 72.9422 53.1929 71.0676 55.0676C69.1929 56.9422 66.6512 57.9968 64 58Z" fill="black"/>
<path d="M66 24H62V28H66V24Z" fill="black"/>
<path d="M19.048 36.4L22.966 35.6L20.754 24.866C23.5888 23.8353 26.0153 21.9173 27.6729 19.3971C29.3304 16.877 30.1304 13.8892 29.954 10.878L38 9.218V38.23C36.3982 39.8669 35.2213 41.8709 34.5718 44.0672C33.9224 46.2634 33.8201 48.5852 34.274 50.83C34.8222 53.4491 36.1162 55.8537 38 57.754V80.942C36.1301 80.2198 34.1271 79.9068 32.126 80.024L23.8 39.66L19.882 40.46L28 79.846L26.012 95.752C25.9655 96.1226 26.0237 96.4988 26.18 96.838L38.18 122.838C38.4023 123.32 38.8067 123.693 39.3045 123.877C39.8022 124.06 40.3524 124.038 40.834 123.816C41.3156 123.594 41.6893 123.189 41.8727 122.692C42.0561 122.194 42.0343 121.644 41.812 121.162L30.056 95.68L30.514 92.02L31.002 94.384C31.0941 94.8354 31.3393 95.2412 31.6961 95.5327C32.0528 95.8242 32.4993 95.9836 32.96 95.984C33.1328 95.9837 33.3048 95.9615 33.472 95.918L48.26 92H56V99.626C56 100.156 56.2107 100.665 56.5858 101.04C56.9609 101.415 57.4696 101.626 58 101.626C58.5304 101.626 59.0391 101.415 59.4142 101.04C59.7893 100.665 60 100.156 60 99.626V76C60 74.9391 60.4214 73.9217 61.1716 73.1716C61.9217 72.4214 62.9391 72 64 72C65.0609 72 66.0783 72.4214 66.8284 73.1716C67.5786 73.9217 68 74.9391 68 76V95.172C67.9996 95.5148 68.0874 95.8518 68.2548 96.1509C68.4222 96.45 68.6637 96.7011 68.956 96.88C72.02 98.754 74 103.12 74 108C74 114.504 70.336 120 66 120C65.4696 120 64.9609 120.211 64.5858 120.586C64.2107 120.961 64 121.47 64 122C64 122.53 64.2107 123.039 64.5858 123.414C64.9609 123.789 65.4696 124 66 124C72.618 124 78 116.822 78 108C78 107.484 77.96 106.978 77.924 106.47L81.646 104.712C82.9378 104.127 84.0346 103.184 84.8064 101.994C85.5781 100.804 85.9924 99.4181 86 98C85.9992 96.5348 85.5536 95.1044 84.722 93.898L94.622 95.94C94.7538 95.9659 94.8877 95.9793 95.022 95.98C95.4831 95.9801 95.93 95.8209 96.2872 95.5293C96.6443 95.2378 96.8898 94.8317 96.982 94.38L102.76 66.346L98.842 65.546L95.858 80.026C93.8628 79.9087 91.8656 80.2189 90 80.936V57.736C91.8771 55.8383 93.1661 53.4388 93.712 50.826C94.1642 48.5851 94.0625 46.2676 93.4156 44.0749C92.7687 41.8822 91.5962 39.8806 90 38.244V9.22L98.026 10.874C97.8476 13.8856 98.6469 16.8742 100.305 19.3948C101.962 21.9153 104.39 23.8329 107.226 24.862L99.662 61.584L103.58 62.384L113.944 12.114C114.051 11.5961 113.949 11.0569 113.66 10.6143C113.37 10.1716 112.917 9.86159 112.4 9.752L89.75 5.084C89.5857 4.76024 89.3356 4.48788 89.0269 4.2967C88.7183 4.10552 88.363 4.00288 88 4H40C39.6377 4.00287 39.2832 4.10508 38.9749 4.29551C38.6667 4.48594 38.4167 4.75729 38.252 5.08L15.6 9.752C15.0808 9.85933 14.6255 10.1684 14.3341 10.6113C14.0427 11.0542 13.9391 11.5947 14.046 12.114L19.048 36.4ZM42 88V80.2C43.92 80.5958 45.6821 81.5455 47.0683 82.9317C48.4545 84.3179 49.4042 86.08 49.8 88H42ZM32.942 83.988C34.7237 83.9997 36.4699 84.4871 38 85.4V90C38.0099 90.187 38.047 90.3716 38.11 90.548L34.492 91.506L32.942 83.988ZM64 68C61.8783 68 59.8434 68.8429 58.3431 70.3431C56.8429 71.8434 56 73.8783 56 76V88H53.84C53.4059 85.0141 52.0187 82.2484 49.8852 80.1148C47.7516 77.9813 44.9859 76.5941 42 76.16V19.84C44.9859 19.4059 47.7516 18.0187 49.8852 15.8852C52.0187 13.7516 53.4059 10.9859 53.84 8H74.16C74.5941 10.9859 75.9813 13.7516 78.1148 15.8852C80.2484 18.0187 83.0141 19.4059 86 19.84V76.16C83.055 76.5911 80.3238 77.9487 78.2022 80.0362C76.0806 82.1236 74.6788 84.8324 74.2 87.77L72 86.732V76C72 73.8783 71.1571 71.8434 69.6569 70.3431C68.1566 68.8429 66.1217 68 64 68ZM78.2 88C78.5958 86.08 79.5455 84.3179 80.9317 82.9317C82.3179 81.5455 84.08 80.5958 86 80.2V88H78.2ZM79.936 101.094L77.212 102.38C76.399 99.1428 74.5729 96.2502 72 94.124V92H73.786L79.938 94.906C80.5488 95.1606 81.0705 95.5902 81.4375 96.1408C81.8046 96.6914 82.0004 97.3383 82.0004 98C82.0004 98.6617 81.8046 99.3086 81.4375 99.8592C81.0705 100.41 80.5488 100.839 79.938 101.094H79.936ZM95.042 83.988L93.47 91.618L89.786 90.858C89.9224 90.5923 89.9956 90.2987 90 90V85.4C91.5258 84.489 93.265 84.0016 95.042 83.988ZM108.042 20.902C106.242 20.127 104.709 18.8417 103.632 17.2049C102.554 15.5681 101.98 13.6515 101.98 11.692L109.616 13.266L108.042 20.902ZM86 15.8C84.08 15.4042 82.3179 14.4545 80.9317 13.0683C79.5455 11.6821 78.5958 9.92005 78.2 8H86V15.8ZM49.8 8C49.4042 9.92005 48.4545 11.6821 47.0683 13.0683C45.6821 14.4545 43.92 15.4042 42 15.8V8H49.8ZM26 11.692C25.9996 13.652 25.4251 15.5689 24.3475 17.2061C23.2698 18.8432 21.7362 20.1288 19.936 20.904L18.362 13.266L26 11.692Z" fill="black"/>
</svg>
