<svg width="128" height="128" viewBox="0 0 128 128" fill="none" xmlns="http://www.w3.org/2000/svg">
<path d="M84.125 103.625H25.125V24.3749L80.7342 3.168C81.1127 3.02364 81.5207 2.97344 81.9229 3.02172C82.3252 3.07 82.7096 3.21531 83.0433 3.44514C83.3769 3.67497 83.6497 3.98244 83.8381 4.34108C84.0265 4.69972 84.125 5.09878 84.125 5.50391V103.625Z" fill="#F2F2F2"/>
<path d="M80.7342 3.168L72.875 6.16516V103.625H84.125V5.50394C84.125 5.09881 84.0266 4.69974 83.8381 4.3411C83.6497 3.98246 83.3769 3.67499 83.0433 3.44515C82.7097 3.21532 82.3252 3.07 81.9229 3.02172C81.5207 2.97344 81.1127 3.02364 80.7342 3.168Z" fill="#DEDEDE"/>
<path d="M25.125 24.375H100.375C101.038 24.375 101.674 24.6384 102.143 25.1072C102.612 25.5761 102.875 26.212 102.875 26.875V123.625C102.875 124.288 102.612 124.924 102.143 125.393C101.674 125.862 101.038 126.125 100.375 126.125H25.125V24.375Z" fill="white"/>
<path d="M100.375 24.375H89.125C89.4533 24.375 89.7784 24.4397 90.0817 24.5653C90.385 24.6909 90.6606 24.8751 90.8928 25.1072C91.1249 25.3394 91.3091 25.615 91.4347 25.9183C91.5603 26.2216 91.625 26.5467 91.625 26.875V123.625C91.625 123.953 91.5603 124.278 91.4347 124.582C91.3091 124.885 91.1249 125.161 90.8928 125.393C90.6606 125.625 90.385 125.809 90.0817 125.935C89.7784 126.06 89.4533 126.125 89.125 126.125H100.375C100.703 126.125 101.028 126.06 101.332 125.935C101.635 125.809 101.911 125.625 102.143 125.393C102.375 125.161 102.559 124.885 102.685 124.582C102.81 124.278 102.875 123.953 102.875 123.625V26.875C102.875 26.5467 102.81 26.2216 102.685 25.9183C102.559 25.615 102.375 25.3394 102.143 25.1072C101.911 24.8751 101.635 24.6909 101.332 24.5653C101.028 24.4397 100.703 24.375 100.375 24.375Z" fill="white"/>
<path d="M61.501 43.8838H66.4991C70.4774 43.8838 74.2927 45.4641 77.1057 48.2772C79.9188 51.0902 81.4991 54.9055 81.4991 58.8838V63.1328H46.501V58.8838C46.501 54.9055 48.0813 51.0902 50.8944 48.2772C53.7074 45.4641 57.5227 43.8838 61.501 43.8838Z" fill="#FF6666"/>
<path d="M66.4991 43.8838H61.5009C61.0792 43.8838 60.6628 43.9056 60.25 43.9397C63.9981 44.253 67.4917 45.9631 70.0383 48.731C72.5849 51.4989 73.9986 55.1226 73.9991 58.8838V63.1328H81.4991V58.8838C81.4991 54.9055 79.9187 51.0902 77.1057 48.2772C74.2926 45.4642 70.4773 43.8838 66.4991 43.8838Z" fill="#FF4E4E"/>
<path d="M81.7492 63.1328H46.251C44.18 63.1328 42.5012 64.8116 42.5012 66.8826C42.5012 68.9535 44.18 70.6323 46.251 70.6323H81.7492C83.8202 70.6323 85.499 68.9535 85.499 66.8826C85.499 64.8116 83.8202 63.1328 81.7492 63.1328Z" fill="white"/>
<path d="M81.749 63.1328H74.249C74.7415 63.1328 75.2291 63.2298 75.684 63.4183C76.1389 63.6067 76.5523 63.8829 76.9005 64.2311C77.2487 64.5793 77.5249 64.9927 77.7134 65.4476C77.9018 65.9026 77.9988 66.3902 77.9988 66.8826C77.9988 67.3751 77.9018 67.8627 77.7133 68.3176C77.5249 68.7726 77.2487 69.1859 76.9005 69.5341C76.5523 69.8823 76.1389 70.1586 75.684 70.347C75.2291 70.5354 74.7415 70.6324 74.249 70.6324H81.749C82.2415 70.6324 82.7291 70.5354 83.184 70.347C83.6389 70.1586 84.0523 69.8823 84.4005 69.5341C84.7487 69.1859 85.0249 68.7726 85.2133 68.3176C85.4018 67.8627 85.4988 67.3751 85.4988 66.8826C85.4988 66.3902 85.4018 65.9026 85.2134 65.4476C85.0249 64.9927 84.7487 64.5793 84.4005 64.2311C84.0523 63.8829 83.6389 63.6067 83.184 63.4183C82.7291 63.2298 82.2415 63.1328 81.749 63.1328Z" fill="#EEEEEE"/>
<path d="M64 43.8838C66.4161 43.8838 68.3747 41.9251 68.3747 39.509C68.3747 37.0929 66.4161 35.1343 64 35.1343C61.5839 35.1343 59.6252 37.0929 59.6252 39.509C59.6252 41.9251 61.5839 43.8838 64 43.8838Z" fill="white"/>
<path d="M45.875 82.1069H37.375C36.8227 82.1069 36.375 82.5546 36.375 83.1069V91.6069C36.375 92.1592 36.8227 92.6069 37.375 92.6069H45.875C46.4273 92.6069 46.875 92.1592 46.875 91.6069V83.1069C46.875 82.5546 46.4273 82.1069 45.875 82.1069Z" fill="#FF9B00"/>
<path d="M45.875 104.375H37.375C36.8227 104.375 36.375 104.823 36.375 105.375V113.875C36.375 114.427 36.8227 114.875 37.375 114.875H45.875C46.4273 114.875 46.875 114.427 46.875 113.875V105.375C46.875 104.823 46.4273 104.375 45.875 104.375Z" fill="#F7AA6B"/>
<path d="M46.251 72.5071H81.749C83.0985 72.5072 84.403 72.0221 85.4245 71.1403C86.446 70.2586 87.1165 69.0389 87.3135 67.7039C87.5106 66.3689 87.2211 65.0076 86.4979 63.8683C85.7747 62.729 84.6659 61.8877 83.374 61.4979V58.8836C83.3685 54.9463 81.9884 51.1344 79.4719 48.1062C76.9554 45.078 73.4605 43.0235 69.5907 42.2974C70.0668 41.3446 70.2915 40.2859 70.2434 39.2218C70.1953 38.1577 69.876 37.1236 69.3159 36.2176C68.7558 35.3115 67.9734 34.5637 67.043 34.0451C66.1127 33.5265 65.0652 33.2542 64 33.2542C62.9348 33.2542 61.8873 33.5265 60.957 34.0451C60.0266 34.5637 59.2442 35.3115 58.6841 36.2176C58.124 37.1236 57.8047 38.1577 57.7566 39.2218C57.7085 40.2859 57.9332 41.3446 58.4093 42.2974C54.5395 43.0235 51.0446 45.078 48.5281 48.1062C46.0116 51.1344 44.6315 54.9463 44.626 58.8836V61.4979C43.3341 61.8877 42.2253 62.729 41.5021 63.8683C40.7789 65.0076 40.4894 66.3689 40.6865 67.7039C40.8835 69.0389 41.554 70.2586 42.5755 71.1403C43.597 72.0221 44.9015 72.5072 46.251 72.5071ZM64 37.0091C64.4944 37.0091 64.9777 37.1557 65.3888 37.4304C65.7999 37.7051 66.1203 38.0955 66.3095 38.5522C66.4987 39.009 66.5482 39.5116 66.4517 39.9965C66.3553 40.4814 66.1172 40.9268 65.7676 41.2764C65.418 41.626 64.9726 41.8641 64.4877 41.9606C64.0028 42.057 63.5002 42.0075 63.0434 41.8183C62.5866 41.6291 62.1962 41.3087 61.9215 40.8976C61.6469 40.4865 61.5002 40.0032 61.5002 39.5088C61.501 38.8461 61.7646 38.2107 62.2332 37.7421C62.7019 37.2734 63.3372 37.0098 64 37.0091ZM48.376 58.8836C48.3799 55.4038 49.764 52.0678 52.2246 49.6072C54.6851 47.1466 58.0212 45.7626 61.501 45.7586H66.499C69.9788 45.7626 73.3149 47.1466 75.7754 49.6072C78.236 52.0678 79.6201 55.4038 79.624 58.8836V61.2576H48.376V58.8836ZM46.251 65.0076H81.749C82.2462 65.0076 82.7231 65.2051 83.0747 65.5567C83.4263 65.9083 83.6238 66.3852 83.6238 66.8824C83.6238 67.3796 83.4263 67.8564 83.0747 68.208C82.7231 68.5596 82.2462 68.7571 81.749 68.7571H46.251C45.7538 68.7571 45.2769 68.5596 44.9253 68.208C44.5737 67.8564 44.3762 67.3796 44.3762 66.8824C44.3762 66.3852 44.5737 65.9083 44.9253 65.5567C45.2769 65.2051 45.7538 65.0076 46.251 65.0076ZM91.625 113H58.125C57.6277 113 57.1508 113.197 56.7992 113.549C56.4475 113.901 56.25 114.378 56.25 114.875C56.25 115.372 56.4475 115.849 56.7992 116.201C57.1508 116.552 57.6277 116.75 58.125 116.75H91.625C92.1223 116.75 92.5992 116.552 92.9508 116.201C93.3025 115.849 93.5 115.372 93.5 114.875C93.5 114.378 93.3025 113.901 92.9508 113.549C92.5992 113.197 92.1223 113 91.625 113ZM91.625 80.2315H58.125C57.6277 80.2315 57.1508 80.429 56.7992 80.7807C56.4475 81.1323 56.25 81.6092 56.25 82.1065C56.25 82.6038 56.4475 83.0807 56.7992 83.4323C57.1508 83.784 57.6277 83.9815 58.125 83.9815H91.625C92.1223 83.9815 92.5992 83.784 92.9508 83.4323C93.3025 83.0807 93.5 82.6038 93.5 82.1065C93.5 81.6092 93.3025 81.1323 92.9508 80.7807C92.5992 80.429 92.1223 80.2315 91.625 80.2315ZM46.875 102.5H36.375C36.1288 102.5 35.8849 102.548 35.6574 102.642C35.43 102.737 35.2232 102.875 35.0491 103.049C34.875 103.223 34.7369 103.43 34.6427 103.657C34.5485 103.885 34.5 104.129 34.5 104.375V114.875C34.5 115.121 34.5485 115.365 34.6427 115.592C34.7369 115.82 34.875 116.027 35.0491 116.201C35.2232 116.375 35.43 116.513 35.6574 116.607C35.8849 116.701 36.1288 116.75 36.375 116.75H46.875C47.1212 116.75 47.3651 116.701 47.5926 116.607C47.82 116.513 48.0267 116.375 48.2009 116.201C48.375 116.027 48.5131 115.82 48.6073 115.592C48.7015 115.365 48.75 115.121 48.75 114.875V104.375C48.75 104.129 48.7015 103.885 48.6073 103.657C48.5131 103.43 48.375 103.223 48.2009 103.049C48.0267 102.875 47.82 102.737 47.5925 102.643C47.3651 102.548 47.1212 102.5 46.875 102.5ZM45 113H38.25V106.25H45V113ZM100.375 22.4998H86V5.50372C85.9999 4.79475 85.8276 4.09641 85.4978 3.46882C85.168 2.84123 84.6906 2.30319 84.1068 1.90101C83.5229 1.49882 82.8501 1.24455 82.1462 1.16008C81.4423 1.0756 80.7283 1.16345 80.0659 1.41607L24.4568 22.6229C24.4488 22.6259 24.4416 22.6299 24.4337 22.633C24.397 22.6476 24.3613 22.6638 24.3257 22.6806C24.3035 22.691 24.2811 22.7012 24.2594 22.7125C24.2296 22.7281 24.2007 22.7451 24.1718 22.7622C24.146 22.7774 24.1201 22.7924 24.0953 22.8087C24.0728 22.8235 24.0513 22.8394 24.0295 22.8552C24.0008 22.8758 23.9722 22.8964 23.9449 22.9185C23.9275 22.9325 23.9112 22.9477 23.8945 22.9623C23.8654 22.9876 23.8365 23.0129 23.8092 23.0398C23.7936 23.0551 23.7792 23.0715 23.7641 23.0875C23.7383 23.1148 23.7123 23.1421 23.6882 23.171C23.6716 23.1908 23.6563 23.2119 23.6404 23.2325C23.6203 23.2586 23.5999 23.2845 23.5813 23.3116C23.563 23.3381 23.5465 23.3658 23.5297 23.3932C23.5156 23.4159 23.501 23.4383 23.488 23.4616C23.4701 23.4938 23.4542 23.527 23.4381 23.5603C23.4282 23.5807 23.4177 23.6008 23.4086 23.6216C23.3935 23.6559 23.3805 23.6913 23.3674 23.7268C23.3594 23.7483 23.3508 23.7696 23.3437 23.7915C23.3329 23.8243 23.3241 23.8579 23.3152 23.8914C23.3081 23.918 23.3006 23.9443 23.2947 23.9712C23.2884 23.9998 23.2837 24.0289 23.2787 24.058C23.273 24.0915 23.2673 24.1249 23.2634 24.1587C23.2606 24.1827 23.2591 24.207 23.2572 24.2313C23.2541 24.2707 23.2518 24.3102 23.2512 24.3499C23.2512 24.3583 23.25 24.3664 23.25 24.3748V126.125C23.25 126.371 23.2985 126.615 23.3927 126.842C23.4869 127.07 23.625 127.277 23.7991 127.451C23.9732 127.625 24.18 127.763 24.4074 127.857C24.6349 127.951 24.8788 128 25.125 128H100.375C101.535 127.998 102.647 127.537 103.467 126.717C104.287 125.897 104.749 124.785 104.75 123.625V26.8748C104.749 25.7149 104.287 24.6029 103.467 23.7827C102.647 22.9625 101.535 22.5011 100.375 22.4998ZM81.4023 4.91998C81.497 4.88386 81.5989 4.87129 81.6995 4.88333C81.8 4.89538 81.8962 4.93168 81.9796 4.98912C82.063 5.04656 82.1312 5.12341 82.1783 5.21306C82.2254 5.3027 82.25 5.40246 82.25 5.50373V22.4998H35.304L81.4023 4.91998ZM101 123.625C101 123.791 100.934 123.949 100.817 124.067C100.7 124.184 100.541 124.25 100.375 124.25H27V26.2498H100.375C100.541 26.25 100.7 26.3159 100.817 26.433C100.934 26.5502 101 26.7091 101 26.8748V123.625ZM91.625 90.7315H58.125C57.6277 90.7315 57.1508 90.929 56.7992 91.2807C56.4475 91.6323 56.25 92.1092 56.25 92.6065C56.25 93.1038 56.4475 93.5807 56.7992 93.9323C57.1508 94.284 57.6277 94.4815 58.125 94.4815H91.625C92.1223 94.4815 92.5992 94.284 92.9508 93.9323C93.3025 93.5807 93.5 93.1038 93.5 92.6065C93.5 92.1092 93.3025 91.6323 92.9508 91.2807C92.5992 90.929 92.1223 90.7315 91.625 90.7315ZM46.875 80.2315H36.375C36.1288 80.2315 35.8849 80.28 35.6574 80.3742C35.43 80.4684 35.2232 80.6065 35.0491 80.7806C34.875 80.9548 34.7369 81.1615 34.6427 81.389C34.5485 81.6164 34.5 81.8603 34.5 82.1065V92.6065C34.5 92.8527 34.5485 93.0966 34.6427 93.3241C34.7369 93.5516 34.875 93.7583 35.0491 93.9324C35.2232 94.1065 35.43 94.2446 35.6574 94.3388C35.8849 94.433 36.1288 94.4815 36.375 94.4815H46.875C47.1212 94.4815 47.3651 94.433 47.5925 94.3388C47.82 94.2446 48.0267 94.1065 48.2009 93.9324C48.375 93.7583 48.5131 93.5516 48.6073 93.3241C48.7015 93.0966 48.75 92.8527 48.75 92.6065V82.1065C48.75 81.8603 48.7015 81.6164 48.6073 81.389C48.5131 81.1615 48.375 80.9548 48.2009 80.7806C48.0267 80.6065 47.82 80.4684 47.5926 80.3742C47.3651 80.28 47.1212 80.2315 46.875 80.2315ZM45 90.7315H38.25V83.9815H45V90.7315ZM91.625 102.5H58.125C57.6277 102.5 57.1508 102.697 56.7992 103.049C56.4475 103.401 56.25 103.878 56.25 104.375C56.25 104.872 56.4475 105.349 56.7992 105.701C57.1508 106.052 57.6277 106.25 58.125 106.25H91.625C92.1223 106.25 92.5992 106.052 92.9508 105.701C93.3025 105.349 93.5 104.872 93.5 104.375C93.5 103.878 93.3025 103.401 92.9508 103.049C92.5992 102.697 92.1223 102.5 91.625 102.5Z" fill="black"/>
</svg>
