<svg width="128" height="128" viewBox="0 0 128 128" fill="none" xmlns="http://www.w3.org/2000/svg">
<path d="M66.0338 56.1462C63.5717 58.6157 61.8966 61.7595 61.2202 65.1805C60.5437 68.6015 60.8962 72.1462 62.2331 75.3669C63.57 78.5877 65.8314 81.34 68.7316 83.2764C71.6318 85.2127 75.0408 86.2461 78.528 86.2462C78.9264 86.2462 79.3264 86.2329 79.728 86.2062C82.2404 86.0351 84.6871 85.3281 86.9035 84.1326C89.1198 82.9372 91.0546 81.281 92.5776 79.2756L109.48 57.0514L109.49 57.0368C110.436 55.7852 110.895 54.2331 110.783 52.6684C110.671 51.1038 109.995 49.633 108.88 48.529L98.5804 38.229C97.4715 37.1232 96.0004 36.4555 94.438 36.3489C92.8756 36.2423 91.3274 36.704 90.0786 37.649L67.8586 54.529C67.2097 55.0204 66.5996 55.561 66.0338 56.1462ZM124.602 32.74C123.989 31.8509 123.197 31.0987 122.278 30.5307C121.359 29.9628 120.332 29.5914 119.262 29.44C118.858 29.3878 118.483 29.2019 118.197 28.912C117.911 28.6221 117.73 28.2447 117.682 27.84C117.524 26.7747 117.152 25.7525 116.588 24.8349C116.024 23.9172 115.281 23.123 114.402 22.5C113.275 21.7185 111.962 21.2469 110.595 21.1326C109.228 21.0182 107.855 21.2651 106.613 21.8484C105.372 22.4317 104.305 23.3311 103.52 24.4563C102.736 25.5816 102.261 26.8933 102.142 28.26C101.989 29.8689 102.346 31.4853 103.162 32.88L101.002 35.04C101.145 35.1488 101.279 35.2692 101.402 35.4L111.702 45.7C111.842 45.84 111.962 45.98 112.082 46.12L114.222 43.96C115.63 44.7634 117.248 45.1192 118.862 44.98C120.227 44.8624 121.537 44.388 122.66 43.6044C123.783 42.8208 124.681 41.7555 125.262 40.5154C125.844 39.2753 126.089 37.9041 125.973 36.5393C125.857 35.1746 125.385 33.8643 124.602 32.74ZM71.1588 42.6346L76.2834 44.5832L77.58 42.2L77.584 42.1942C78.2686 40.927 78.4716 39.455 78.1555 38.0498C77.8393 36.6447 77.0254 35.4014 75.864 34.5496L65.528 26.951C64.3655 26.1056 62.9374 25.707 61.5051 25.8282C60.0728 25.9494 58.732 26.5822 57.728 27.611L46.33 39.3978C54.746 38.4773 63.2601 39.5872 71.1588 42.6346ZM67.289 23.3514C67.4904 23.4784 67.7018 23.585 67.895 23.7272L78.233 31.326C78.4316 31.4698 78.596 31.6434 78.781 31.7996L79.858 30.3328C80.8383 30.6909 81.8852 30.8295 82.9248 30.739C83.9645 30.6484 84.9717 30.3308 85.8752 29.8086C86.7788 29.2864 87.5568 28.5723 88.1543 27.7167C88.7519 26.8611 89.1544 25.8848 89.3335 24.8567C89.5126 23.8286 89.464 22.7736 89.191 21.7664C88.918 20.7591 88.4274 19.824 87.7536 19.027C87.0799 18.23 86.2395 17.5905 85.2917 17.1537C84.3439 16.7168 83.3118 16.4933 82.2682 16.4988H82.2134C81.9042 16.5112 81.6 16.4173 81.3515 16.2327C81.1031 16.0481 80.9255 15.7839 80.8482 15.4842C80.5444 14.4853 80.0251 13.5653 79.3268 12.7891C78.6285 12.013 77.7683 11.3996 76.8069 10.9923C75.8456 10.585 74.8065 10.3938 73.7632 10.432C72.7198 10.4703 71.6976 10.7372 70.7687 11.2139C69.8398 11.6905 69.0269 12.3653 68.3874 13.1906C67.7478 14.0159 67.2973 14.9715 67.0676 15.9899C66.8378 17.0084 66.8345 18.0649 67.0578 19.0848C67.2812 20.1047 67.7257 21.0631 68.36 21.8924L67.289 23.3514Z" fill="white"/>
<path d="M95.7626 81.7C93.8963 84.1614 91.5237 86.1938 88.805 87.6602C86.0862 89.1265 83.0846 89.9926 80.0026 90.2C79.5026 90.22 79.0226 90.24 78.5226 90.24C74.2421 90.2472 70.0557 88.9837 66.4938 86.6096C62.9319 84.2356 60.1548 80.8577 58.5142 76.904C56.8736 72.9504 56.4434 68.5987 57.278 64.4003C58.1126 60.2019 60.1746 56.3456 63.2026 53.32C63.8988 52.6051 64.6476 51.9432 65.4426 51.34L71.2226 46.94L69.7426 46.38C61.0147 43.0233 51.5134 42.2118 42.3426 44.04C30.9908 46.3156 20.7743 52.4443 13.4229 61.3884C6.07146 70.3326 2.037 81.5425 2.00262 93.12C2.00893 99.6053 4.58798 105.823 9.17375 110.409C13.7595 114.995 19.9774 117.574 26.4626 117.58H105.143C109.614 117.579 113.901 115.802 117.063 112.64C120.224 109.479 122.001 105.191 122.003 100.72C122.036 87.6832 116.943 75.1558 107.823 65.84L95.7626 81.7ZM53.4186 79.3048C52.1372 80.5796 51.1214 82.0958 50.4297 83.7656C49.7381 85.4355 49.3844 87.226 49.3892 89.0334V94.045C49.386 97.0226 48.2018 99.8772 46.0964 101.983C43.991 104.088 41.1363 105.272 38.1588 105.276H31.235C28.2575 105.272 25.4029 104.088 23.2974 101.983C21.192 99.8772 20.0077 97.0226 20.0044 94.045C20.0046 93.6502 20.1215 93.2642 20.3404 92.9356C21.9068 90.8168 23.8909 89.0416 26.1701 87.7196C28.4494 86.3976 30.9755 85.5568 33.5924 85.2492C33.6636 85.2407 33.7292 85.2066 33.7771 85.1533C33.8249 85.0999 33.8517 85.0309 33.8524 84.9592C33.8548 82.5552 34.8107 80.2503 36.5104 78.5503C38.2101 76.8502 40.5148 75.8938 42.9188 75.8908H52.0046C52.4001 75.8909 52.7868 76.0082 53.1156 76.228C53.4445 76.4477 53.7008 76.76 53.8521 77.1254C54.0035 77.4909 54.0431 77.8929 53.966 78.2809C53.8889 78.6688 53.6983 79.0251 53.4186 79.3048Z" fill="white"/>
<path d="M37.8522 84.959C37.8524 86.0134 37.4644 87.0309 36.7623 87.8175C36.0602 88.6041 35.093 89.1046 34.0454 89.2236C30.1322 89.692 26.5479 91.6442 24.0318 94.6776C24.1921 96.4781 25.0202 98.1534 26.3531 99.3743C27.686 100.595 29.4274 101.273 31.235 101.275H38.1588C40.0758 101.273 41.9136 100.511 43.2691 99.1552C44.6246 97.7996 45.387 95.9618 45.3892 94.0448V89.0332C45.381 85.8123 46.2544 82.6506 47.9146 79.8906H42.9186C41.5751 79.8925 40.2872 80.4271 39.3375 81.3773C38.3877 82.3275 37.8535 83.6156 37.8522 84.959Z" fill="white"/>
</svg>
