<svg width="128" height="128" viewBox="0 0 128 128" fill="none" xmlns="http://www.w3.org/2000/svg">
<path d="M95.775 64.35C95.925 63 96 61.85 96 60.9C96 56 95.175 55.975 92 55.975H73.125C74.95 52.975 76 49.875 76 46.725C76 37.25 61.675 32.625 61.675 24.725C61.675 21.8 62.95 19.4 64 16C57.375 17.75 52.15 24.375 52.15 31.4C52.15 43.475 66.225 43.575 66.225 52.6C66.225 53.725 65.875 54.725 65.7 55.975H51.725C51.925 55.225 52.05 54.425 52.05 53.65C52.05 47.95 42.275 45.175 42.275 40.45C42.275 38.7 42.525 37.25 43.075 35.2C39.85 36.475 36 40.2 36 44.4C36 51.075 43.975 51.725 45.2 55.975H20C16.825 55.975 16 56 16 60.9C16 65.8 17.925 76.225 23.075 88.65C28.225 101.075 34.175 106.55 38.375 110.2L38.4 110.15C39.675 111.3 41.35 111.975 43.2 111.975H68.8C70.65 111.975 72.325 111.3 73.6 110.15L73.625 110.2C75.875 108.25 78.625 105.75 81.475 101.975C82.65 102.475 83.925 102.9 85.325 103.225C87.425 103.725 89.525 103.975 91.525 103.975C97.525 103.975 102.925 101.675 106.725 97.525C110.075 93.875 112 88.925 112 83.975C112 74.25 105 66.125 95.775 64.35ZM91.525 96.05C89.375 96.05 87.625 95.75 86 95C87 93 87.975 91.025 88.925 88.725C91.45 82.625 93.2 76.975 94.325 72.275C99.825 73.35 104 78.225 104 84.05C104 89.725 99.7 96.05 91.525 96.05Z" fill="white"/>
</svg>
