<svg width="128" height="128" viewBox="0 0 128 128" fill="none" xmlns="http://www.w3.org/2000/svg">
<path d="M76 27V41C76 42.6569 77.3431 44 79 44H93" stroke="black" stroke-width="5"/>
<path d="M35 54.5V35C35 30.0294 39.0294 26 44 26H74.0785C75.9108 26 77.6701 26.7184 78.9786 28.0011L88.0509 36.8939L91.1244 40.1967C92.3299 41.4921 93 43.1959 93 44.9654V93C93 97.9706 88.9706 102 84 102H44C39.0294 102 35 97.9706 35 93V90" stroke="black" stroke-width="5" stroke-linecap="round"/>
<path d="M42.78 75.8198C42.9267 75.7132 43.06 75.6532 43.18 75.6398C43.3 75.6265 43.4067 75.6865 43.5 75.8198L45.14 78.2198C45.2467 78.3665 45.2867 78.4865 45.26 78.5798C45.2334 78.6598 45.1467 78.7532 45 78.8598C44.4667 79.2465 43.84 79.5732 43.12 79.8398C42.4134 80.0932 41.6067 80.2198 40.7 80.2198C39.6467 80.2198 38.6534 80.0198 37.72 79.6198C36.7867 79.2198 35.9667 78.6732 35.26 77.9798C34.5667 77.2732 34.02 76.4532 33.62 75.5198C33.22 74.5865 33.02 73.5932 33.02 72.5398C33.02 71.4732 33.22 70.4798 33.62 69.5598C34.02 68.6398 34.5667 67.8332 35.26 67.1398C35.9667 66.4465 36.7867 65.9065 37.72 65.5198C38.6534 65.1198 39.6467 64.9198 40.7 64.9198C41.6067 64.9198 42.4134 65.0598 43.12 65.3398C43.84 65.6065 44.48 65.9332 45.04 66.3198C45.1467 66.3865 45.2067 66.4732 45.22 66.5798C45.2334 66.6865 45.22 66.7732 45.18 66.8398L43.44 69.3398C43.36 69.4465 43.26 69.4998 43.14 69.4998C43.0334 69.4865 42.9267 69.4332 42.82 69.3398C42.4867 69.0732 42.1534 68.8865 41.82 68.7798C41.4867 68.6598 41.1134 68.5998 40.7 68.5998C40.14 68.5998 39.62 68.6998 39.14 68.8998C38.6734 69.0998 38.2667 69.3798 37.92 69.7398C37.5734 70.0865 37.3 70.4998 37.1 70.9798C36.9134 71.4598 36.82 71.9798 36.82 72.5398C36.82 73.0998 36.9134 73.6265 37.1 74.1198C37.3 74.5998 37.5734 75.0198 37.92 75.3798C38.2667 75.7398 38.6734 76.0265 39.14 76.2398C39.62 76.4398 40.14 76.5398 40.7 76.5398C41.1267 76.5398 41.5134 76.4665 41.86 76.3198C42.2067 76.1732 42.5134 76.0065 42.78 75.8198ZM49.5421 75.2198C49.6621 75.3132 49.8087 75.4398 49.982 75.5998C50.1554 75.7465 50.3554 75.8998 50.5821 76.0598C50.9154 76.2865 51.2487 76.4665 51.5821 76.5998C51.9287 76.7198 52.2821 76.7798 52.6421 76.7798C53.3354 76.7798 53.8021 76.6398 54.0421 76.3598C54.2954 76.0798 54.4221 75.7532 54.4221 75.3798C54.4221 75.1665 54.3421 74.9798 54.1821 74.8198C54.0221 74.6598 53.8287 74.5198 53.6021 74.3998C53.3887 74.2665 53.1554 74.1598 52.9021 74.0798C52.6621 73.9865 52.4487 73.9065 52.2621 73.8398C50.6487 73.2798 49.4421 72.6198 48.6421 71.8598C47.8554 71.0998 47.4621 70.1332 47.4621 68.9598C47.4621 68.3332 47.5887 67.7665 47.8421 67.2598C48.0954 66.7532 48.4487 66.3198 48.9021 65.9598C49.3687 65.5998 49.9287 65.3265 50.5821 65.1398C51.2354 64.9398 51.9621 64.8398 52.7621 64.8398C53.3621 64.8398 53.9421 64.9065 54.5021 65.0398C55.0754 65.1732 55.6287 65.3932 56.1621 65.6998C56.6154 65.9665 57.0087 66.2398 57.3421 66.5198C57.6754 66.7998 57.8421 67.0332 57.8421 67.2198C57.8421 67.3398 57.7554 67.4998 57.5821 67.6998L56.0421 69.3398C55.9354 69.4465 55.8221 69.4998 55.7021 69.4998C55.6087 69.4998 55.5221 69.4732 55.4421 69.4198C55.3754 69.3665 55.2954 69.2998 55.2021 69.2198L55.1021 69.1398C54.8354 68.9132 54.5087 68.6932 54.1221 68.4798C53.7487 68.2532 53.3487 68.1398 52.9221 68.1398C52.482 68.1398 52.1021 68.2132 51.7821 68.3598C51.4621 68.5065 51.3021 68.7732 51.3021 69.1598C51.3021 69.5332 51.4887 69.8198 51.8621 70.0198C52.2354 70.2198 52.7887 70.4398 53.5221 70.6798C54.2287 70.9198 54.8821 71.1665 55.4821 71.4198C56.0821 71.6732 56.5954 71.9798 57.0221 72.3398C57.4621 72.6865 57.8021 73.1065 58.0421 73.5998C58.2821 74.0798 58.4021 74.6665 58.4021 75.3598C58.4021 76.0932 58.2487 76.7598 57.9421 77.3598C57.6487 77.9465 57.2421 78.4532 56.7221 78.8798C56.2021 79.2932 55.5887 79.6198 54.8821 79.8598C54.1754 80.0865 53.4154 80.1998 52.6021 80.1998C52.0821 80.1998 51.5687 80.1332 51.0621 79.9998C50.5554 79.8665 50.062 79.6865 49.5821 79.4598C49.1154 79.2332 48.6754 78.9665 48.2621 78.6598C47.8487 78.3532 47.4821 78.0198 47.1621 77.6598L47.1221 77.6398C47.1087 77.6132 47.0954 77.5998 47.0821 77.5998C47.0687 77.5865 47.0554 77.5732 47.0421 77.5598C46.8954 77.3998 46.8221 77.2665 46.8221 77.1598C46.8221 77.0532 46.8954 76.9265 47.0421 76.7798L48.7821 75.1198C48.9154 75.0265 49.0287 74.9798 49.1221 74.9798C49.2287 74.9798 49.3687 75.0598 49.5421 75.2198ZM72.671 65.5998L67.311 79.5598C67.2176 79.8532 67.0176 79.9998 66.711 79.9998H64.371C64.0776 79.9998 63.871 79.8532 63.751 79.5598L58.391 65.5798C58.271 65.2865 58.3643 65.1398 58.671 65.1398L61.871 65.1598C62.1643 65.1598 62.3576 65.3065 62.451 65.5998L65.531 74.5598L68.571 65.5998C68.6643 65.3065 68.8643 65.1598 69.171 65.1598H72.391C72.6976 65.1598 72.791 65.3065 72.671 65.5998Z" fill="black"/>
<path d="M42.78 75.8198C42.9267 75.7132 43.06 75.6532 43.18 75.6398C43.3 75.6265 43.4067 75.6865 43.5 75.8198L45.14 78.2198C45.2467 78.3665 45.2867 78.4865 45.26 78.5798C45.2334 78.6598 45.1467 78.7532 45 78.8598C44.4667 79.2465 43.84 79.5732 43.12 79.8398C42.4134 80.0932 41.6067 80.2198 40.7 80.2198C39.6467 80.2198 38.6534 80.0198 37.72 79.6198C36.7867 79.2198 35.9667 78.6732 35.26 77.9798C34.5667 77.2732 34.02 76.4532 33.62 75.5198C33.22 74.5865 33.02 73.5932 33.02 72.5398C33.02 71.4732 33.22 70.4798 33.62 69.5598C34.02 68.6398 34.5667 67.8332 35.26 67.1398C35.9667 66.4465 36.7867 65.9065 37.72 65.5198C38.6534 65.1198 39.6467 64.9198 40.7 64.9198C41.6067 64.9198 42.4134 65.0598 43.12 65.3398C43.84 65.6065 44.48 65.9332 45.04 66.3198C45.1467 66.3865 45.2067 66.4732 45.22 66.5798C45.2334 66.6865 45.22 66.7732 45.18 66.8398L43.44 69.3398C43.36 69.4465 43.26 69.4998 43.14 69.4998C43.0334 69.4865 42.9267 69.4332 42.82 69.3398C42.4867 69.0732 42.1534 68.8865 41.82 68.7798C41.4867 68.6598 41.1134 68.5998 40.7 68.5998C40.14 68.5998 39.62 68.6998 39.14 68.8998C38.6734 69.0998 38.2667 69.3798 37.92 69.7398C37.5734 70.0865 37.3 70.4998 37.1 70.9798C36.9134 71.4598 36.82 71.9798 36.82 72.5398C36.82 73.0998 36.9134 73.6265 37.1 74.1198C37.3 74.5998 37.5734 75.0198 37.92 75.3798C38.2667 75.7398 38.6734 76.0265 39.14 76.2398C39.62 76.4398 40.14 76.5398 40.7 76.5398C41.1267 76.5398 41.5134 76.4665 41.86 76.3198C42.2067 76.1732 42.5134 76.0065 42.78 75.8198ZM49.5421 75.2198C49.6621 75.3132 49.8087 75.4398 49.982 75.5998C50.1554 75.7465 50.3554 75.8998 50.5821 76.0598C50.9154 76.2865 51.2487 76.4665 51.5821 76.5998C51.9287 76.7198 52.2821 76.7798 52.6421 76.7798C53.3354 76.7798 53.8021 76.6398 54.0421 76.3598C54.2954 76.0798 54.4221 75.7532 54.4221 75.3798C54.4221 75.1665 54.3421 74.9798 54.1821 74.8198C54.0221 74.6598 53.8287 74.5198 53.6021 74.3998C53.3887 74.2665 53.1554 74.1598 52.9021 74.0798C52.6621 73.9865 52.4487 73.9065 52.2621 73.8398C50.6487 73.2798 49.4421 72.6198 48.6421 71.8598C47.8554 71.0998 47.4621 70.1332 47.4621 68.9598C47.4621 68.3332 47.5887 67.7665 47.8421 67.2598C48.0954 66.7532 48.4487 66.3198 48.9021 65.9598C49.3687 65.5998 49.9287 65.3265 50.5821 65.1398C51.2354 64.9398 51.9621 64.8398 52.7621 64.8398C53.3621 64.8398 53.9421 64.9065 54.5021 65.0398C55.0754 65.1732 55.6287 65.3932 56.1621 65.6998C56.6154 65.9665 57.0087 66.2398 57.3421 66.5198C57.6754 66.7998 57.8421 67.0332 57.8421 67.2198C57.8421 67.3398 57.7554 67.4998 57.5821 67.6998L56.0421 69.3398C55.9354 69.4465 55.8221 69.4998 55.7021 69.4998C55.6087 69.4998 55.5221 69.4732 55.4421 69.4198C55.3754 69.3665 55.2954 69.2998 55.2021 69.2198L55.1021 69.1398C54.8354 68.9132 54.5087 68.6932 54.1221 68.4798C53.7487 68.2532 53.3487 68.1398 52.9221 68.1398C52.482 68.1398 52.1021 68.2132 51.7821 68.3598C51.4621 68.5065 51.3021 68.7732 51.3021 69.1598C51.3021 69.5332 51.4887 69.8198 51.8621 70.0198C52.2354 70.2198 52.7887 70.4398 53.5221 70.6798C54.2287 70.9198 54.8821 71.1665 55.4821 71.4198C56.0821 71.6732 56.5954 71.9798 57.0221 72.3398C57.4621 72.6865 57.8021 73.1065 58.0421 73.5998C58.2821 74.0798 58.4021 74.6665 58.4021 75.3598C58.4021 76.0932 58.2487 76.7598 57.9421 77.3598C57.6487 77.9465 57.2421 78.4532 56.7221 78.8798C56.2021 79.2932 55.5887 79.6198 54.8821 79.8598C54.1754 80.0865 53.4154 80.1998 52.6021 80.1998C52.0821 80.1998 51.5687 80.1332 51.0621 79.9998C50.5554 79.8665 50.062 79.6865 49.5821 79.4598C49.1154 79.2332 48.6754 78.9665 48.2621 78.6598C47.8487 78.3532 47.4821 78.0198 47.1621 77.6598L47.1221 77.6398C47.1087 77.6132 47.0954 77.5998 47.0821 77.5998C47.0687 77.5865 47.0554 77.5732 47.0421 77.5598C46.8954 77.3998 46.8221 77.2665 46.8221 77.1598C46.8221 77.0532 46.8954 76.9265 47.0421 76.7798L48.7821 75.1198C48.9154 75.0265 49.0287 74.9798 49.1221 74.9798C49.2287 74.9798 49.3687 75.0598 49.5421 75.2198ZM72.671 65.5998L67.311 79.5598C67.2176 79.8532 67.0176 79.9998 66.711 79.9998H64.371C64.0776 79.9998 63.871 79.8532 63.751 79.5598L58.391 65.5798C58.271 65.2865 58.3643 65.1398 58.671 65.1398L61.871 65.1598C62.1643 65.1598 62.3576 65.3065 62.451 65.5998L65.531 74.5598L68.571 65.5998C68.6643 65.3065 68.8643 65.1598 69.171 65.1598H72.391C72.6976 65.1598 72.791 65.3065 72.671 65.5998Z" stroke="black" stroke-width="0.5"/>
</svg>
