<svg width="128" height="128" viewBox="0 0 128 128" fill="none" xmlns="http://www.w3.org/2000/svg">
<path d="M27.28 82.2996V97.6372C36.4492 108.846 50.3892 116 66 116C83.2968 116 98.542 107.217 107.52 93.8684V72.3736C104.449 92.5448 87.0292 108 66 108C48.5844 108 33.6444 97.4 27.28 82.2996ZM100.12 41.5032V34.6144C100.11 33.05 100.37 31.5479 100.856 30.1519C91.8496 21.3937 79.5548 16 66 16C53.8728 16 42.7536 20.3176 34.0965 27.4994C34.1039 27.5807 34.1098 27.6624 34.1142 27.7443L34.12 27.8522V38.6554C41.8228 29.6834 53.2476 24 66 24C80.054 24 92.496 30.9029 100.12 41.5032Z" fill="#212121"/>
<path d="M98 66C98 83.6732 83.6732 98 66 98C48.3268 98 34.0001 83.6732 34.0001 66C34.0001 48.3268 48.3268 34 66 34C83.6732 34 98 48.3268 98 66ZM66 94C81.464 94 94 81.464 94 66C94 50.536 81.464 38 66 38C50.536 38 38.0001 50.536 38.0001 66C38.0001 81.464 50.536 94 66 94ZM119.96 31.7601C119.96 28.1601 117.04 25.2402 113.44 25.2402C108.24 25.2402 104.08 29.4402 104.12 34.6002V56.8C104.12 61.812 107.022 66.2992 111.52 68.3324V102.8C111.52 104.88 113.2 106.56 115.28 106.56H116.2C118.28 106.56 119.96 104.88 119.96 102.8L119.96 31.7601ZM27.28 25.2402C25.76 25.2402 24.56 26.4802 24.56 27.9602V38.7202C24.56 39.5202 23.92 40.12 23.16 40.12C22.36 40.12 21.76 39.4802 21.76 38.7202V28.0802C21.76 26.6002 20.6 25.2802 19.12 25.2402C17.56 25.2002 16.28 26.4402 16.28 27.9602V38.7202C16.28 39.5202 15.64 40.12 14.88 40.12C14.08 40.12 13.48 39.4802 13.48 38.7202V28.0802C13.48 26.6002 12.32 25.2802 10.84 25.2402C9.27996 25.2002 8 26.4402 8 27.9602V46.28C8 49.89 9.74904 53.106 12.4352 55.1156C14.84 56.472 14.84 62.68 14.84 62.68V102.76C14.84 104.84 16.52 106.52 18.6 106.52H19.52C21.6 106.52 23.28 104.84 23.28 102.76V62.68C23.28 62.68 23.28 56.7144 25.6848 55.1156C28.3709 53.106 30.12 49.89 30.12 46.28V27.9602C30.04 26.4802 28.8 25.2402 27.28 25.2402Z" fill="#212121"/>
</svg>
