<svg width="165" height="128" viewBox="0 0 165 128" fill="none" xmlns="http://www.w3.org/2000/svg">
<g clip-path="url(#clip0_365_25)">
<path d="M144.15 104.128C145.999 104.567 147.895 104.773 149.794 104.74C134.84 120.439 110.252 128 82.6797 128C55.1078 128 30.0164 120.259 15.0981 104.236C17.3078 104.487 19.5387 104.487 21.7484 104.236C40.621 102.076 43.6765 88.8618 61.2909 106.469C78.9053 124.075 94.183 122.059 106.585 104.776C118.987 87.4936 130.49 101.104 144.15 104.128Z" fill="white"/>
<path d="M82.5 0C36.9543 0 -0.179718 21.0993 -0.179718 63.982C-0.271841 72.0982 1.20518 80.1556 4.16992 87.7097C6.9379 92.1023 13.8758 92.1383 21.3529 91.3102C40.2255 89.1499 45.7973 73.9195 63.232 91.5262C80.6666 109.133 90.3725 107.981 102.774 90.6981C115.176 73.4154 130.275 88.2497 143.755 91.2742C148.255 92.3638 152.982 92.0112 157.271 90.266C158.097 89.8974 158.841 89.3665 159.459 88.7047C160.076 88.043 160.555 87.2639 160.866 86.4135C163.483 79.2408 164.786 71.6541 164.712 64.018C165 18.903 128.046 0 82.5 0ZM22.7908 70.319C21.767 70.319 20.7662 70.0148 19.9149 69.4451C19.0637 68.8754 18.4002 68.0657 18.0084 67.1183C17.6166 66.1709 17.5141 65.1284 17.7138 64.1226C17.9136 63.1168 18.4066 62.193 19.1305 61.4679C19.8545 60.7428 20.7769 60.249 21.781 60.0489C22.7851 59.8488 23.826 59.9516 24.7718 60.344C25.7177 60.7365 26.5261 61.401 27.0949 62.2536C27.6637 63.1063 27.9673 64.1087 27.9673 65.1342C27.9721 65.8164 27.8414 66.4927 27.583 67.1239C27.3245 67.7551 26.9435 68.3286 26.4618 68.811C25.9802 69.2934 25.4076 69.6752 24.7774 69.9341C24.1472 70.1929 23.4719 70.3238 22.7908 70.319ZM31.8856 40.3262C30.8872 40.3334 29.9093 40.0428 29.0762 39.4917C28.2431 38.9406 27.5924 38.1538 27.207 37.2312C26.8217 36.3087 26.719 35.2921 26.9121 34.3109C27.1051 33.3298 27.5851 32.4283 28.2911 31.7212C28.9971 31.014 29.8972 30.5333 30.8767 30.34C31.8563 30.1466 32.8712 30.2495 33.7922 30.6354C34.7133 31.0214 35.4989 31.673 36.0492 32.5075C36.5994 33.3419 36.8895 34.3215 36.8824 35.3215C36.8729 36.6459 36.3435 37.9134 35.4085 38.85C34.4735 39.7865 33.2079 40.3168 31.8856 40.3262ZM100.869 15.1223C101.346 15.1223 101.811 15.2638 102.207 15.5289C102.603 15.7939 102.912 16.1707 103.094 16.6115C103.277 17.0523 103.324 17.5374 103.231 18.0053C103.139 18.4733 102.909 18.9031 102.572 19.2405C102.235 19.5779 101.806 19.8076 101.339 19.9007C100.872 19.9938 100.388 19.946 99.9476 19.7634C99.5075 19.5808 99.1314 19.2716 98.8667 18.8749C98.6021 18.4782 98.4608 18.0118 98.4608 17.5347C98.4502 17.1994 98.5095 16.8656 98.635 16.5546C98.7605 16.2436 98.9493 15.9621 99.1895 15.7283C99.4296 15.4945 99.7159 15.3134 100.03 15.1967C100.344 15.0799 100.679 15.0301 101.013 15.0503L100.869 15.1223ZM53.5262 69.5988C52.6359 69.606 51.7636 69.3481 51.02 68.8579C50.2763 68.3677 49.6948 67.6673 49.3492 66.8456C49.0036 66.0238 48.9095 65.1178 49.0788 64.2424C49.2481 63.367 49.6731 62.5617 50.3001 61.9286C50.9271 61.2956 51.7277 60.8634 52.6003 60.6868C53.4729 60.5102 54.3782 60.5972 55.2013 60.9367C56.0245 61.2763 56.7285 61.8531 57.2238 62.5939C57.7192 63.3348 57.9836 64.2064 57.9836 65.0981C57.9837 66.2856 57.5152 67.4249 56.6803 68.268C55.8453 69.111 54.7117 69.5893 53.5262 69.5988ZM57.5883 17.4267C57.5812 16.6632 57.8007 15.9148 58.219 15.2766C58.6373 14.6383 59.2354 14.1389 59.9376 13.8418C60.6398 13.5446 61.4142 13.4631 62.1627 13.6077C62.9112 13.7523 63.6 14.1163 64.1415 14.6537C64.6831 15.191 65.0529 15.8774 65.2042 16.6257C65.3556 17.374 65.2816 18.1505 64.9915 18.8566C64.7015 19.5627 64.2085 20.1664 63.5752 20.5914C62.942 21.0163 62.1969 21.2433 61.4346 21.2433C60.9342 21.248 60.4378 21.154 59.9737 20.9666C59.5096 20.7792 59.0868 20.502 58.7296 20.151C58.3725 19.7999 58.0879 19.3818 57.892 18.9205C57.6962 18.4593 57.593 17.9638 57.5883 17.4626V17.4267ZM85.0883 83.2089C84.1112 83.2161 83.154 82.9319 82.3386 82.3926C81.5233 81.8534 80.8865 81.0833 80.5093 80.1805C80.1321 79.2777 80.0316 78.283 80.2205 77.3228C80.4094 76.3626 80.8791 75.4804 81.5701 74.7884C82.261 74.0963 83.1417 73.6258 84.1004 73.4366C85.059 73.2474 86.0522 73.3481 86.9535 73.7259C87.8549 74.1037 88.6237 74.7415 89.1621 75.5582C89.7005 76.3749 89.9842 77.3336 89.9771 78.3122C89.9818 78.9583 89.8589 79.5989 89.6153 80.1971C89.3717 80.7954 89.0124 81.3394 88.558 81.798C88.1035 82.2565 87.563 82.6204 86.9675 82.8688C86.372 83.1171 85.7333 83.245 85.0883 83.245V83.2089ZM82.6079 59.9493C69.8105 59.9493 59.4215 52.4242 59.4215 43.1707C59.4215 33.9173 69.8105 26.3921 82.6079 26.3921C95.4052 26.3921 105.83 33.9173 105.83 43.1707C105.83 52.4242 95.4412 59.9853 82.6079 59.9853V59.9493ZM114.601 64.6661C113.67 64.6661 112.759 64.3894 111.985 63.8711C111.211 63.3528 110.607 62.6162 110.251 61.7544C109.894 60.8925 109.801 59.9441 109.983 59.0291C110.164 58.1141 110.613 57.2737 111.271 56.614C111.93 55.9544 112.769 55.5052 113.683 55.3232C114.596 55.1412 115.543 55.2346 116.403 55.5916C117.264 55.9486 117.999 56.5531 118.517 57.3288C119.034 58.1045 119.31 59.0165 119.31 59.9493C119.315 60.5718 119.197 61.189 118.962 61.7654C118.728 62.3419 118.382 62.866 117.944 63.3078C117.506 63.7497 116.985 64.1003 116.412 64.3396C115.838 64.5789 115.223 64.7021 114.601 64.7021V64.6661ZM135.415 36.6177C134.569 37.5121 133.406 38.0392 132.177 38.0863C130.948 38.1334 129.749 37.6968 128.837 36.8697C128.386 36.4549 128.022 35.9549 127.765 35.3984C127.508 34.842 127.364 34.2402 127.341 33.6277C127.318 33.0152 127.415 32.4041 127.629 31.8296C127.842 31.2552 128.167 30.7287 128.585 30.2806C129 29.8314 129.5 29.4687 130.055 29.2129C130.611 28.9572 131.211 28.8134 131.822 28.79C132.433 28.7666 133.042 28.8639 133.616 29.0765C134.189 29.289 134.715 29.6126 135.163 30.0287C135.612 30.4448 135.974 30.9452 136.229 31.5015C136.485 32.0578 136.628 32.6591 136.652 33.2709C136.675 33.8828 136.578 34.4932 136.366 35.0675C136.153 35.6417 135.83 36.1685 135.415 36.6177ZM143.252 70.2829C142.226 70.2901 141.222 69.992 140.366 69.4266C139.51 68.8613 138.841 68.054 138.444 67.1073C138.046 66.1605 137.939 65.117 138.134 64.1089C138.33 63.1008 138.82 62.1735 139.543 61.4448C140.265 60.7161 141.187 60.2187 142.193 60.0157C143.198 59.8127 144.24 59.9132 145.188 60.3046C146.136 60.6959 146.947 61.3605 147.517 62.2139C148.088 63.0673 148.392 64.0711 148.392 65.0981C148.402 65.7803 148.276 66.4576 148.022 67.0906C147.768 67.7236 147.391 68.2997 146.912 68.7855C146.434 69.2713 145.864 69.657 145.236 69.9202C144.607 70.1835 143.933 70.319 143.252 70.319V70.2829Z" fill="white"/>
</g>
<defs>
<clipPath id="clip0_365_25">
<rect width="165" height="128" fill="white"/>
</clipPath>
</defs>
</svg>
