<svg width="128" height="128" viewBox="0 0 128 128" fill="none" xmlns="http://www.w3.org/2000/svg">
<path d="M112 37.3338H16C13.0547 37.3338 10.6663 34.9453 10.6663 32C10.6663 29.0547 13.0547 26.6663 16 26.6663H112C114.948 26.6663 117.334 29.0547 117.334 32C117.334 34.9453 114.948 37.3338 112 37.3338ZM101.334 64C101.334 61.0547 98.9479 58.6663 96 58.6663H32C29.0547 58.6663 26.6663 61.0547 26.6663 64C26.6663 66.9453 29.0547 69.3338 32 69.3338H96C98.9479 69.3338 101.334 66.9453 101.334 64ZM85.3338 96C85.3338 93.0522 82.9479 90.6663 80 90.6663H48C45.0547 90.6663 42.6663 93.0522 42.6663 96C42.6663 98.9479 45.0547 101.334 48 101.334H80C82.9479 101.334 85.3338 98.9479 85.3338 96Z" fill="#010101"/>
</svg>
