<svg width="128" height="128" viewBox="0 0 128 128" fill="none" xmlns="http://www.w3.org/2000/svg">
<path d="M109.333 51.9999C103.38 46.0818 96.3125 41.3874 88.5342 38.1846C80.7558 34.9818 72.4192 33.3333 64 33.3333C55.5808 33.3333 47.2441 34.9818 39.4657 38.1846C31.6874 41.3874 24.6198 46.0819 18.6666 51.9999M92 66.6666C88.3229 62.8621 83.9577 59.8442 79.1534 57.7853C74.3492 55.7263 69.2001 54.6666 64 54.6666C58.7998 54.6666 53.6508 55.7263 48.8465 57.7853C44.0422 59.8442 39.677 62.8621 36 66.6666" stroke="#010101" stroke-width="6" stroke-linecap="round"/>
<path d="M74.7842 94.3933C78.098 88.6538 76.1315 81.3147 70.3919 78.001C64.6524 74.6873 57.3133 76.6538 53.9996 82.3933C50.6859 88.1329 52.6524 95.4719 58.3919 98.7856C64.1315 102.099 71.4705 100.133 74.7842 94.3933Z" stroke="#010101" stroke-width="5"/>
<path d="M74.7847 94.3933L95.5693 106.393" stroke="#010101" stroke-width="5" stroke-linecap="round"/>
</svg>
