<svg width="128" height="128" viewBox="0 0 128 128" fill="none" xmlns="http://www.w3.org/2000/svg">
<path d="M48.7189 110.791V94.4832C48.7189 90.3203 52.1183 86.9456 56.3117 86.9456H71.6406C73.6544 86.9456 75.5856 87.7397 77.0096 89.1533C78.4335 90.5669 79.2335 92.4841 79.2335 94.4832V110.791C79.2207 112.522 79.9044 114.186 81.1327 115.414C82.361 116.643 84.0323 117.333 85.7757 117.333H96.2338C101.118 117.346 105.807 115.428 109.265 112.004C112.723 108.58 114.667 103.931 114.667 99.0817V52.6232C114.667 48.7064 112.918 44.9911 109.891 42.4782L74.3148 14.2713C68.1262 9.32562 59.2593 9.4853 53.2555 14.6505L18.4908 42.4782C15.3213 44.917 13.427 48.6434 13.3334 52.6232V99.0343C13.3334 109.141 21.5861 117.333 31.7663 117.333H41.9856C45.6066 117.333 48.5494 114.433 48.5756 110.839L48.7189 110.791Z" fill="white"/>
</svg>
