<svg width="128" height="128" viewBox="0 0 128 128" fill="none" xmlns="http://www.w3.org/2000/svg">
<g clip-path="url(#clip0_215_24)">
<path fill-rule="evenodd" clip-rule="evenodd" d="M115.333 104.222H12.6601C9.8145 104.222 7.49951 101.907 7.49951 99.0615V38.2593C7.49951 35.414 9.8145 33.0991 12.6601 33.0991L58.6085 33.0988C59.4224 33.0988 60.0822 33.7589 60.0822 34.5728C60.0822 35.3867 59.4224 36.0466 58.6085 36.0466L12.6601 36.0464C11.4397 36.0464 10.4469 37.0393 10.4469 38.2595V99.0615C10.4469 100.282 11.4397 101.274 12.6601 101.274L115.333 101.274C116.554 101.274 117.546 100.282 117.546 99.0616L117.547 38.2594C117.547 37.0392 116.554 36.0467 115.333 36.0467L68.4493 36.0464C67.6354 36.0464 66.9758 35.3868 66.9758 34.5729C66.9758 33.759 67.6354 33.0991 68.4493 33.0991L115.333 33.0989C118.179 33.0989 120.494 35.4141 120.494 38.2596L120.494 99.0615C120.494 101.907 118.179 104.222 115.333 104.222Z" fill="#434040"/>
<path fill-rule="evenodd" clip-rule="evenodd" d="M23.4695 91.6313H51.4566V84.1815C51.4566 80.0737 48.1149 76.7319 44.007 76.7319L30.9191 76.7318C26.8114 76.7318 23.4695 80.0738 23.4695 84.1817L23.4695 91.6313ZM52.9305 94.5789H21.9958C21.1819 94.5789 20.5221 93.919 20.5221 93.1052V84.1815C20.5221 78.4485 25.1862 73.7844 30.9192 73.7844L44.0071 73.7843C49.7402 73.7843 54.4043 78.4485 54.4043 84.1817V93.1051C54.4043 93.9187 53.7444 94.5789 52.9305 94.5789ZM37.4631 55.3885C33.7607 55.3885 30.7482 58.4011 30.7482 62.1037C30.7482 65.8062 33.7607 68.8185 37.4631 68.8185C41.1656 68.8182 44.1779 65.8063 44.1779 62.1037C44.1779 58.4008 41.1656 55.3888 37.4631 55.3885ZM37.4631 71.7657C32.1353 71.7657 27.8008 67.4315 27.8008 62.1037C27.8008 56.7757 32.1353 52.4412 37.4631 52.4412C42.7908 52.441 47.1254 56.7758 47.1254 62.1037C47.1254 67.4314 42.7908 71.7658 37.4631 71.7657ZM105.998 61.9207H59.0373C58.2233 61.9207 57.5635 61.261 57.5635 60.4471C57.5635 59.6329 58.2233 58.9733 59.0373 58.9733L105.998 58.9732C106.812 58.9732 107.472 59.6332 107.472 60.4471C107.472 61.261 106.812 61.9209 105.998 61.9207ZM105.998 74.9838H59.0373C58.2233 74.9838 57.5635 74.324 57.5635 73.5101C57.5635 72.6962 58.2233 72.0363 59.0373 72.0363L105.998 72.0362C106.812 72.0362 107.472 72.6962 107.472 73.5101C107.472 74.324 106.812 74.9839 105.998 74.9838ZM105.998 88.047H59.0371C58.2231 88.047 57.5633 87.3873 57.5633 86.5735C57.5633 85.7595 58.2231 85.0997 59.0371 85.0997L105.998 85.0995C106.811 85.0995 107.471 85.7595 107.471 86.5735C107.471 87.3872 106.811 88.0472 105.998 88.047ZM58.6085 47.6932H50.7389C48.3481 47.6932 46.4033 45.7486 46.4033 43.3581C46.4033 40.9671 48.3481 39.0224 50.7389 39.0224L58.6085 39.0224C59.4224 39.0224 60.0822 39.6824 60.0822 40.4962C60.0822 41.3099 59.4224 41.97 58.6085 41.97L50.7389 41.97C49.9736 41.97 49.3509 42.5927 49.3509 43.3581C49.3509 44.1233 49.9736 44.7462 50.7389 44.7462L58.6085 44.7459C59.4224 44.7459 60.0822 45.4057 60.0822 46.2199C60.0822 47.0337 59.4224 47.6934 58.6085 47.6932ZM76.319 47.6932H68.4491C67.6353 47.6932 66.9757 47.0338 66.9757 46.22C66.9757 45.4056 67.6353 44.7462 68.4491 44.7462L76.319 44.7459C77.0843 44.7459 77.707 44.1234 77.707 43.3581C77.707 42.5925 77.0843 41.97 76.319 41.97L68.4491 41.97C67.6353 41.97 66.9757 41.3101 66.9757 40.4962C66.9757 39.6821 67.6353 39.0224 68.4491 39.0224L76.319 39.0224C78.7095 39.0224 80.6543 40.9673 80.6543 43.3581C80.6543 45.7485 78.7095 47.6934 76.319 47.6932Z" fill="#434040"/>
<path fill-rule="evenodd" clip-rule="evenodd" d="M60.0824 44.7458H66.9759V26.7195H60.0824V44.7458ZM68.4494 47.693H58.6087C57.7947 47.693 57.1351 47.0336 57.1351 46.2198V25.2454C57.1351 24.4317 57.7947 23.7719 58.6087 23.7719L68.4494 23.7717C69.2635 23.7717 69.9232 24.4318 69.9232 25.2456V46.2197C69.9232 47.0336 69.2635 47.6933 68.4494 47.693Z" fill="#434040"/>
</g>
<defs>
<clipPath id="clip0_215_24">
<rect width="128" height="128" fill="white"/>
</clipPath>
</defs>
</svg>
