<svg width="128" height="128" viewBox="0 0 128 128" fill="none" xmlns="http://www.w3.org/2000/svg">
<path d="M105.333 26.6667V117.333C105.326 118.392 104.903 119.405 104.154 120.154C103.405 120.903 102.392 121.326 101.333 121.333H50.6666C48.9457 121.341 47.2348 121.071 45.5999 120.533C42.0523 119.458 38.9446 117.27 36.7357 114.293C34.5269 111.316 33.334 107.707 33.3333 104V21.3334C33.3333 17.6534 25.0133 14.6667 21.3333 14.6667C20.2724 14.6667 19.255 14.2453 18.5048 13.4952C17.7547 12.745 17.3333 11.7276 17.3333 10.6667C17.3333 9.60588 17.7547 8.58847 18.5048 7.83832C19.255 7.08818 20.2724 6.66675 21.3333 6.66675H85.3333C90.6372 6.66816 95.7234 8.77575 99.4738 12.5262C103.224 16.2766 105.332 21.3629 105.333 26.6667Z" fill="#00AA5B"/>
<path d="M10.3734 10.1334C9.18751 11.079 8.23602 12.2858 7.59308 13.6595C6.95014 15.0333 6.63312 16.537 6.66673 18.0534V57.3334C6.66673 60.1624 7.79053 62.8755 9.79092 64.8759C11.7913 66.8762 14.5044 68.0001 17.3334 68.0001H33.3334V20.0001C33.2957 17.3576 32.4937 14.7825 31.0242 12.5859C29.5548 10.3894 27.4808 8.66525 25.0527 7.62184C22.6246 6.57842 19.9464 6.26035 17.3415 6.70603C14.7366 7.15172 12.3164 8.3421 10.3734 10.1334ZM121.333 90.6667V106.667C121.335 108.593 120.956 110.501 120.22 112.281C119.483 114.061 118.403 115.679 117.041 117.041C115.679 118.403 114.061 119.483 112.281 120.22C110.501 120.956 108.593 121.335 106.667 121.333H50.6667C48.9458 121.341 47.2349 121.071 45.6001 120.533C50.4792 119.32 54.8113 116.507 57.9047 112.544C60.9982 108.58 62.6747 103.695 62.6667 98.6667V86.6667H117.333C118.392 86.6737 119.405 87.0974 120.154 87.846C120.903 88.5947 121.326 89.608 121.333 90.6667Z" fill="#FFBF00"/>
<path d="M74.6667 36H48C46.9391 36 45.9217 35.5786 45.1716 34.8284C44.4214 34.0783 44 33.0609 44 32C44 30.9391 44.4214 29.9217 45.1716 29.1716C45.9217 28.4214 46.9391 28 48 28H74.6667C75.7275 28 76.7449 28.4214 77.4951 29.1716C78.2452 29.9217 78.6667 30.9391 78.6667 32C78.6667 33.0609 78.2452 34.0783 77.4951 34.8284C76.7449 35.5786 75.7275 36 74.6667 36ZM90.6667 52H48C46.9391 52 45.9217 51.5786 45.1716 50.8284C44.4214 50.0783 44 49.0609 44 48C44 46.9391 44.4214 45.9217 45.1716 45.1716C45.9217 44.4214 46.9391 44 48 44H90.6667C91.7275 44 92.745 44.4214 93.4951 45.1716C94.2452 45.9217 94.6667 46.9391 94.6667 48C94.6667 49.0609 94.2452 50.0783 93.4951 50.8284C92.745 51.5786 91.7275 52 90.6667 52ZM90.6667 68H48C46.9391 68 45.9217 67.5786 45.1716 66.8284C44.4214 66.0783 44 65.0609 44 64C44 62.9391 44.4214 61.9217 45.1716 61.1716C45.9217 60.4214 46.9391 60 48 60H90.6667C91.7275 60 92.745 60.4214 93.4951 61.1716C94.2452 61.9217 94.6667 62.9391 94.6667 64C94.6667 65.0609 94.2452 66.0783 93.4951 66.8284C92.745 67.5786 91.7275 68 90.6667 68Z" fill="white"/>
</svg>
