<svg width="128" height="128" viewBox="0 0 128 128" fill="none" xmlns="http://www.w3.org/2000/svg">
<path d="M64 10.6667C34.6133 10.6667 10.6667 34.6134 10.6667 64.0001C10.6667 93.3867 34.6133 117.333 64 117.333C93.3867 117.333 117.333 93.3867 117.333 64.0001C117.333 34.6134 93.3867 10.6667 64 10.6667ZM112 64.0001C112 69.6001 110.987 74.9867 109.227 80.0001H89.2266C90.4 73.2267 90.6667 67.6267 90.6667 64.0001C90.6667 58.3467 90.1333 53.0134 89.28 48.0001H109.227C110.987 53.0134 112 58.4001 112 64.0001ZM106.933 42.6667H88.2133C86.0267 33.1201 82.56 25.0667 79.04 18.4534C91.2533 22.5067 101.28 31.3067 106.987 42.6667H106.933ZM85.3333 64.0001C85.3333 66.8267 85.1733 72.5867 83.84 80.0001H44.1067C43.2 75.0401 42.6667 69.7067 42.6667 64.0001C42.6667 61.1734 42.8267 55.4134 44.16 48.0001H83.8933C84.8 52.9601 85.3333 58.2934 85.3333 64.0001ZM72 16.7467C75.8933 23.2534 80.1067 31.8934 82.7733 42.6667H45.28C47.1467 34.8801 50.5067 25.8667 56.0533 16.6934C58.6667 16.2667 61.28 16.0001 64 16.0001C66.72 16.0001 69.3867 16.2667 72 16.7467ZM48.9067 18.4534C44.3733 26.9867 41.4933 35.3067 39.7867 42.6667H21.0133C26.6667 31.3067 36.6933 22.5067 48.9067 18.4534ZM38.6667 80.0001H18.72C16.96 74.9867 15.9467 69.6001 15.9467 64.0001C15.9467 58.4001 16.96 53.0134 18.72 48.0001H38.72C37.5467 54.7734 37.28 60.3734 37.28 64.0001C37.28 69.6534 37.8133 74.9867 38.6667 80.0001ZM21.0133 85.3334H39.7333C41.92 94.8801 45.3867 102.933 48.9067 109.547C36.6933 105.493 26.6667 96.6934 20.96 85.3334H21.0133ZM55.9467 111.253C52.0533 104.747 47.84 96.1067 45.1733 85.3334H82.6667C80.8 93.1201 77.44 102.133 71.8933 111.307C69.28 111.733 66.6667 112 63.9467 112C61.2267 112 58.56 111.733 55.9467 111.253ZM79.04 109.547C83.5733 101.013 86.4533 92.6934 88.16 85.3334H106.933C101.28 96.6934 91.2533 105.493 79.04 109.547Z" fill="#010101"/>
</svg>
