<svg width="128" height="128" viewBox="0 0 128 128" fill="none" xmlns="http://www.w3.org/2000/svg">
<path d="M42.6666 63.9999C42.6666 65.4144 43.2285 66.771 44.2287 67.7712C45.2289 68.7713 46.5855 69.3333 48 69.3333H80C81.4144 69.3333 82.771 68.7713 83.7712 67.7712C84.7714 66.771 85.3333 65.4144 85.3333 63.9999C85.3333 62.5854 84.7714 61.2289 83.7712 60.2287C82.771 59.2285 81.4144 58.6666 80 58.6666H48C46.5855 58.6666 45.2289 59.2285 44.2287 60.2287C43.2285 61.2289 42.6666 62.5854 42.6666 63.9999ZM53.3333 79.9999H37.3333C33.0898 79.9999 29.0202 78.3142 26.0196 75.3136C23.019 72.313 21.3333 68.2434 21.3333 63.9999C21.3333 59.7565 23.019 55.6868 26.0196 52.6862C29.0202 49.6856 33.0898 47.9999 37.3333 47.9999H53.3333C54.7478 47.9999 56.1043 47.438 57.1045 46.4378C58.1047 45.4376 58.6666 44.0811 58.6666 42.6666C58.6666 41.2521 58.1047 39.8955 57.1045 38.8954C56.1043 37.8952 54.7478 37.3333 53.3333 37.3333H37.3333C30.2609 37.3333 23.4781 40.1428 18.4771 45.1437C13.4761 50.1447 10.6666 56.9275 10.6666 63.9999C10.6666 71.0724 13.4761 77.8551 18.4771 82.8561C23.4781 87.8571 30.2609 90.6666 37.3333 90.6666H53.3333C54.7478 90.6666 56.1043 90.1047 57.1045 89.1045C58.1047 88.1043 58.6666 86.7477 58.6666 85.3332C58.6666 83.9188 58.1047 82.5622 57.1045 81.562C56.1043 80.5618 54.7478 79.9999 53.3333 79.9999ZM90.6666 37.3333H74.6666C73.2521 37.3333 71.8956 37.8952 70.8954 38.8954C69.8952 39.8955 69.3333 41.2521 69.3333 42.6666C69.3333 44.0811 69.8952 45.4376 70.8954 46.4378C71.8956 47.438 73.2521 47.9999 74.6666 47.9999H90.6666C94.9101 47.9999 98.9797 49.6856 101.98 52.6862C104.981 55.6868 106.667 59.7565 106.667 63.9999C106.667 68.2434 104.981 72.313 101.98 75.3136C98.9797 78.3142 94.9101 79.9999 90.6666 79.9999H74.6666C73.2521 79.9999 71.8956 80.5618 70.8954 81.562C69.8952 82.5622 69.3333 83.9188 69.3333 85.3332C69.3333 86.7477 69.8952 88.1043 70.8954 89.1045C71.8956 90.1047 73.2521 90.6666 74.6666 90.6666H90.6666C97.7391 90.6666 104.522 87.8571 109.523 82.8561C114.524 77.8551 117.333 71.0724 117.333 63.9999C117.333 56.9275 114.524 50.1447 109.523 45.1437C104.522 40.1428 97.7391 37.3333 90.6666 37.3333Z" fill="#010101"/>
</svg>
