<svg width="128" height="128" viewBox="0 0 128 128" fill="none" xmlns="http://www.w3.org/2000/svg">
<path fill-rule="evenodd" clip-rule="evenodd" d="M64 30.6667C58.6957 30.6667 53.6086 32.7739 49.8579 36.5246C46.1071 40.2753 44 45.3624 44 50.6667C44 55.9711 46.1071 61.0582 49.8579 64.8089C53.6086 68.5596 58.6957 70.6667 64 70.6667C69.3043 70.6667 74.3914 68.5596 78.1421 64.8089C81.8929 61.0582 84 55.9711 84 50.6667C84 45.3624 81.8929 40.2753 78.1421 36.5246C74.3914 32.7739 69.3043 30.6667 64 30.6667ZM52 50.6667C52 47.4842 53.2643 44.4319 55.5147 42.1815C57.7652 39.931 60.8174 38.6667 64 38.6667C67.1826 38.6667 70.2348 39.931 72.4853 42.1815C74.7357 44.4319 76 47.4842 76 50.6667C76 53.8493 74.7357 56.9016 72.4853 59.152C70.2348 61.4025 67.1826 62.6667 64 62.6667C60.8174 62.6667 57.7652 61.4025 55.5147 59.152C53.2643 56.9016 52 53.8493 52 50.6667Z" fill="#010101"/>
<path fill-rule="evenodd" clip-rule="evenodd" d="M64 6.66675C51.6232 6.66675 39.7534 11.5834 31.0017 20.3351C22.25 29.0868 17.3333 40.9566 17.3333 53.3334C17.3333 70.1654 22.9227 86.9334 31.3387 99.5521C39.6373 112 51.3547 121.333 64 121.333C76.7627 121.333 88.4747 111.173 96.6933 98.5067C105.051 85.6214 110.667 68.8747 110.667 53.3334C110.667 40.9566 105.75 29.0868 96.9983 20.3351C88.2466 11.5834 76.3768 6.66675 64 6.66675ZM25.3333 53.3334C25.3333 43.0784 29.4071 33.2434 36.6585 25.992C43.91 18.7405 53.745 14.6667 64 14.6667C74.255 14.6667 84.0901 18.7405 91.3415 25.992C98.5929 33.2434 102.667 43.0784 102.667 53.3334C102.667 67.1254 97.616 82.3841 89.9734 94.1547C82.192 106.155 72.5707 113.333 64 113.333C55.3067 113.333 45.696 106.667 37.9947 95.1147C30.4107 83.7387 25.3333 68.5014 25.3333 53.3334Z" fill="#010101"/>
</svg>
