<svg width="128" height="128" viewBox="0 0 128 128" fill="none" xmlns="http://www.w3.org/2000/svg">
<path d="M104.075 59.6216H94.6031V35.6663C94.6031 18.9419 81.0623 5.33301 64.1409 5.33301H63.9133C46.8643 5.33301 31.6915 19.5076 31.6915 35.6663V59.6216H20.8097C18.7669 59.6216 16.8888 61.1907 16.8888 63.1241V105.417C16.8888 119.915 24.2624 122.666 37.4627 122.666H91.1226C106.34 122.666 107.555 117.936 107.555 105.417V63.1241C107.555 61.1907 106.118 59.6216 104.075 59.6216ZM39.0929 35.6663C39.0929 23.2395 50.8074 12.338 63.9133 12.338H64.1409C76.7602 12.338 87.2017 23.0223 87.2017 35.6663V59.6216H39.0929V35.6663ZM91.1226 115.661H37.4627C26.2053 115.661 24.2902 114.32 24.2902 105.417V66.6265H100.154V105.417C100.154 115.661 100.374 115.661 91.1226 115.661Z" fill="#010101"/>
<path d="M42.0571 74.6663H34.5654C33.7369 74.6663 32.8888 75.4609 32.8888 76.444V95.9996C32.8888 96.4711 33.0467 96.9233 33.3276 97.2567C33.6086 97.5901 33.9897 97.7774 34.3871 97.7774C34.7845 97.7774 35.1656 97.5901 35.4466 97.2567C35.7276 96.9233 35.8855 96.4711 35.8855 95.9996V78.2218H42.0571C42.4545 78.2218 42.8356 78.0345 43.1166 77.7011C43.3976 77.3677 43.5555 76.9155 43.5555 76.444C43.5555 75.9725 43.3976 75.5204 43.1166 75.187C42.8356 74.8536 42.4545 74.6663 42.0571 74.6663ZM34.3871 101.333C33.9897 101.333 33.6086 101.52 33.3276 101.854C33.0467 102.187 32.8888 102.639 32.8888 103.111V104.888C32.8888 105.36 33.0467 105.812 33.3276 106.146C33.6086 106.479 33.9897 106.666 34.3871 106.666C34.7845 106.666 35.1656 106.479 35.4466 106.146C35.7276 105.812 35.8855 105.36 35.8855 104.888V103.111C35.8855 102.639 35.7276 102.187 35.4466 101.854C35.1656 101.52 34.7845 101.333 34.3871 101.333Z" fill="#010101"/>
</svg>
