<svg width="128" height="128" viewBox="0 0 128 128" fill="none" xmlns="http://www.w3.org/2000/svg">
<path d="M97.5627 115.771C98.6043 116.812 99.9685 117.333 101.333 117.333C102.698 117.333 104.062 116.812 105.104 115.771L115.767 105.108C116.26 104.616 116.651 104.025 116.922 103.37C117.461 102.067 117.461 100.6 116.922 99.2967C116.651 98.6423 116.26 98.0513 115.767 97.5591L105.104 86.8961C103.021 84.8129 99.6459 84.8129 97.5621 86.8961C95.4784 88.9793 95.4789 92.3543 97.5621 94.438L99.1248 96.0001H85.3333C82.3856 96.0001 80 98.3884 80 101.333C80 104.279 82.3856 106.667 85.3333 106.667H99.1248L97.5621 108.229C95.4789 110.313 95.4789 113.688 97.5627 115.771Z" fill="white"/>
<path d="M37.8544 95.2657C39.3387 89.5862 43.6203 84.9062 49.3232 82.7398C58.6304 79.1643 69.0107 79.1067 78.5365 82.6875C78.7243 82.7681 78.9323 82.8518 79.1925 82.9558C81.1093 83.7473 82.8229 84.8102 84.2917 86.1174C86.4843 88.0705 89.8699 87.8806 91.8229 85.6801C93.7813 83.4796 93.5835 80.1073 91.3856 78.1489C89.0208 76.0449 86.2864 74.3468 83.6149 73.2556C83.3339 73.1148 83.0523 73.0001 82.9744 72.99C82.8128 72.9094 82.6517 72.839 82.4848 72.7739C70.4117 68.1905 57.3547 68.2321 45.5211 72.7739C36.6096 76.1569 29.8859 83.558 27.5264 92.5942L27.0421 94.4929C26.1621 97.9953 26.8496 101.73 28.9173 104.738C31.1205 107.936 34.6571 110.045 38.6363 110.524C47.0107 111.502 55.5419 112 64 112C66.1248 112 68.2555 111.948 70.3803 111.891C73.3232 111.815 75.6512 109.365 75.5728 106.419C75.4949 103.523 73.1248 101.227 70.2448 101.227C70.1925 101.227 70.1456 101.227 70.0992 101.229C60.0213 101.482 49.8437 101.097 39.896 99.9324C38.9691 99.8204 38.1723 99.367 37.7035 98.6876C37.3547 98.1798 37.2501 97.638 37.3808 97.1121L37.8544 95.2657ZM90.6667 37.3334C90.6667 22.6305 78.7029 10.6667 64 10.6667C49.2971 10.6667 37.3333 22.6305 37.3333 37.3334C37.3333 52.0363 49.2971 64.0001 64 64.0001C78.7029 64.0001 90.6667 52.0363 90.6667 37.3334ZM48 37.3334C48 28.5105 55.1771 21.3334 64 21.3334C72.8229 21.3334 80 28.5105 80 37.3334C80 46.1563 72.8229 53.3334 64 53.3334C55.1771 53.3334 48 46.1563 48 37.3334Z" fill="white"/>
</svg>
