<svg width="128" height="128" viewBox="0 0 128 128" fill="none" xmlns="http://www.w3.org/2000/svg">
<path d="M60.532 31.044H67.47C68.872 31.044 69.998 29.894 69.998 28.522C69.998 27.126 68.872 26 67.47 26H60.532C59.13 26 58.004 27.126 58.004 28.522C58.004 29.894 59.128 31.044 60.532 31.044ZM64 39.62C38.09 39.62 16.914 61.21 15.65 88.246H112.35C111.086 61.208 89.91 39.62 64 39.62ZM10 93.266L19.324 99.616C21.186 100.898 24.838 102 27.112 102H100.89C103.164 102 106.816 100.898 108.678 99.616L118 93.266H10Z" fill="#434040"/>
</svg>
