<svg width="128" height="128" viewBox="0 0 128 128" fill="none" xmlns="http://www.w3.org/2000/svg">
<path d="M112 22.5999H16C8.28004 22.5999 2 28.8799 2 36.5999V91.3999C2 99.1199 8.28004 105.4 16 105.4H112C119.72 105.4 126 99.1199 126 91.3999V36.5999C126 28.8799 119.72 22.5999 112 22.5999ZM114 75.6799C105.32 77.8799 98.48 84.72 96.28 93.3999H31.72C29.52 84.72 22.6799 77.8799 14 75.6799V52.3198C22.6799 50.1199 29.52 43.28 31.72 34.5999H96.28C98.48 43.28 105.32 50.1199 114 52.3198L114 75.6799Z" fill="#434040"/>
<path d="M64 82.96C74.4713 82.96 82.96 74.4714 82.96 64C82.96 53.5287 74.4713 45.04 64 45.04C53.5287 45.04 45.04 53.5287 45.04 64C45.04 74.4714 53.5287 82.96 64 82.96Z" fill="#434040"/>
</svg>
