<svg width="128" height="128" viewBox="0 0 128 128" fill="none" xmlns="http://www.w3.org/2000/svg">
<path d="M91.392 44.7999C89.6 42.7519 86.912 41.5999 84.224 41.5999H76.544L77.824 34.1759L86.4 30.9759C88.832 30.0799 90.112 27.3919 89.216 24.8319C88.832 23.6799 87.936 22.6559 86.784 22.1439C85.632 21.6319 84.352 21.5039 83.2 22.0159L72.064 26.1119C70.528 26.7519 69.376 28.0319 69.12 29.6959L67.072 41.4719H44.032C41.216 41.4719 38.656 42.6239 36.864 44.6719C35.072 46.7199 34.176 49.5359 34.56 52.2239L36.096 64.7679L40.192 97.6639C40.832 102.4 44.928 106.112 49.664 106.112H78.72C83.584 106.112 87.68 102.528 88.192 97.6639L92.16 64.8959L93.696 52.3519C94.08 49.6639 93.184 46.8479 91.392 44.7999ZM84.224 44.1599C86.272 44.1599 88.192 45.0559 89.472 46.5919C90.752 48.1279 91.392 50.1759 91.136 52.0959L89.728 63.2319C89.6 63.1039 89.344 63.1039 89.216 62.8479L89.088 62.7199C88.96 62.5919 88.704 62.4639 88.576 62.2079L88.32 61.9519C88.192 61.8239 88.064 61.6959 87.936 61.4399L87.68 61.1839C87.04 60.4159 86.272 59.5199 85.248 58.8799C84.48 58.3679 83.456 57.9839 82.176 57.9839C80.64 57.9839 79.488 58.4959 78.592 59.1359C78.08 59.5199 77.696 59.9039 77.312 60.2879C77.056 60.5439 76.8 60.9279 76.544 61.1839C76.16 61.6959 75.776 62.2079 75.392 62.4639C74.752 63.1039 74.112 63.3599 73.088 63.3599H72.704L76.032 44.0319H84.224V44.1599ZM38.528 46.5919C39.808 45.0559 41.728 44.1599 43.776 44.1599H66.432L64 57.9839C62.976 57.9839 62.208 58.2399 61.568 58.4959C60.16 59.1359 59.264 60.2879 58.496 61.1839C58.112 61.6959 57.728 62.2079 57.344 62.4639C56.704 63.1039 56.064 63.3599 55.04 63.3599C53.504 63.3599 52.736 62.5919 51.584 61.3119L51.456 61.1839L51.328 61.0559C50.432 59.9039 49.28 58.6239 47.36 58.1119C46.848 57.9839 46.464 57.8559 45.824 57.8559C43.008 57.8559 41.472 59.6479 40.32 61.0559C40.064 61.3119 39.808 61.5679 39.68 61.8239L39.552 61.9519L38.912 62.5919L38.784 62.7199C38.656 62.8479 38.4 62.9759 38.272 63.1039L36.864 51.9679C36.608 50.0479 37.248 47.9999 38.528 46.5919Z" fill="white"/>
</svg>
