<svg width="128" height="128" viewBox="0 0 128 128" fill="none" xmlns="http://www.w3.org/2000/svg">
<path d="M74 24H54C52.8954 24 52 24.8954 52 26V34C52 35.1046 52.8954 36 54 36H74C75.1046 36 76 35.1046 76 34V26C76 24.8954 75.1046 24 74 24Z" fill="#434040"/>
<path d="M36 28C34.9401 28.0032 33.9245 28.4256 33.1751 29.1751C32.4256 29.9245 32.0032 30.9401 32 32V104C32.0032 105.06 32.4256 106.075 33.1751 106.825C33.9245 107.574 34.9401 107.997 36 108H92C93.0599 107.997 94.0755 107.574 94.8249 106.825C95.5744 106.075 95.9968 105.06 96 104V32C95.9968 30.9401 95.5744 29.9245 94.8249 29.1751C94.0755 28.4256 93.0599 28.0032 92 28H80V34C80 35.5913 79.3679 37.1174 78.2426 38.2426C77.1174 39.3679 75.5913 40 74 40H54C52.4087 40 50.8826 39.3679 49.7574 38.2426C48.6321 37.1174 48 35.5913 48 34V28H36ZM86 92H42C41.4696 92 40.9609 91.7893 40.5858 91.4142C40.2107 91.0391 40 90.5304 40 90C40 89.4696 40.2107 88.9609 40.5858 88.5858C40.9609 88.2107 41.4696 88 42 88H86C86.5304 88 87.0391 88.2107 87.4142 88.5858C87.7893 88.9609 88 89.4696 88 90C88 90.5304 87.7893 91.0391 87.4142 91.4142C87.0391 91.7893 86.5304 92 86 92ZM86 72H42C41.4696 72 40.9609 71.7893 40.5858 71.4142C40.2107 71.0391 40 70.5304 40 70C40 69.4696 40.2107 68.9609 40.5858 68.5858C40.9609 68.2107 41.4696 68 42 68H86C86.5304 68 87.0391 68.2107 87.4142 68.5858C87.7893 68.9609 88 69.4696 88 70C88 70.5304 87.7893 71.0391 87.4142 71.4142C87.0391 71.7893 86.5304 72 86 72ZM86 48C86.5304 48 87.0391 48.2107 87.4142 48.5858C87.7893 48.9609 88 49.4696 88 50C88 50.5304 87.7893 51.0391 87.4142 51.4142C87.0391 51.7893 86.5304 52 86 52H42C41.4696 52 40.9609 51.7893 40.5858 51.4142C40.2107 51.0391 40 50.5304 40 50C40 49.4696 40.2107 48.9609 40.5858 48.5858C40.9609 48.2107 41.4696 48 42 48H86Z" fill="#434040"/>
</svg>
