<svg width="128" height="128" viewBox="0 0 128 128" fill="none" xmlns="http://www.w3.org/2000/svg">
<path d="M108.925 85.8045H19.3172C11.4572 85.8045 5.0625 79.4127 5.0625 71.556V56.683C5.0625 48.8262 11.4572 42.4342 19.3172 42.4342H108.925C116.785 42.4342 123.18 48.8262 123.18 56.683V71.556C123.18 79.4125 116.785 85.8045 108.925 85.8045ZM19.3172 45.5518C13.1762 45.5518 8.18025 50.5453 8.18025 56.6828V71.5557C8.18025 77.6935 13.1762 82.6865 19.3172 82.6865H108.925C115.066 82.6865 120.062 77.6932 120.062 71.5557V56.6828C120.062 50.545 115.066 45.5518 108.925 45.5518H19.3172Z" fill="#434040"/>
<path d="M32.1328 73.5033C31.6508 73.5033 31.1755 73.2805 30.8705 72.8608L27.0557 67.6105L23.2195 72.8638C22.7118 73.559 21.7368 73.7115 21.0413 73.2033C20.346 72.6958 20.194 71.7203 20.7018 71.0253L24.5335 65.778L18.3373 63.7548C17.519 63.4875 17.072 62.6073 17.3393 61.789C17.6065 60.9708 18.486 60.5235 19.305 60.791L25.4972 62.8133L25.4888 56.2965C25.4878 55.4358 26.1847 54.737 27.0455 54.7358C27.0462 54.7358 27.047 54.7358 27.0475 54.7358C27.9075 54.7358 28.6053 55.4323 28.6063 56.2928L28.6147 62.814L34.7975 60.7915C35.616 60.5248 36.4962 60.9705 36.7637 61.7885C37.0315 62.6068 36.585 63.487 35.7668 63.7548L29.5783 65.779L33.3923 71.0285C33.8983 71.725 33.744 72.7 33.0475 73.2058C32.7713 73.4065 32.4505 73.5033 32.1328 73.5033ZM55.3802 73.5033C54.899 73.5035 54.4243 73.281 54.1193 72.8625L50.291 67.608L46.453 72.8635C45.9452 73.5588 44.9702 73.7113 44.2747 73.203C43.5795 72.6955 43.4275 71.7203 43.9352 71.025L47.767 65.7775L41.5735 63.7543C40.7553 63.487 40.3082 62.6068 40.5757 61.7885C40.843 60.9705 41.723 60.5235 42.5415 60.791L48.7305 62.8128L48.722 56.2963C48.721 55.4355 49.418 54.7368 50.2788 54.7355C50.2795 54.7355 50.2803 54.7355 50.2808 54.7355C51.1408 54.7355 51.8385 55.432 51.8395 56.2925L51.848 62.8138L58.0308 60.7913C58.8495 60.5245 59.7293 60.9703 59.997 61.7883C60.2648 62.6065 59.8183 63.4868 59 63.7545L52.8143 65.7778L56.6385 71.0265C57.1455 71.7223 56.9925 72.6975 56.2965 73.2043C56.0203 73.406 55.6987 73.5033 55.3802 73.5033ZM68.4402 73.5033C68.122 73.5033 67.8008 73.4063 67.524 73.2045C66.828 72.698 66.6748 71.7228 67.1813 71.0268L71.003 65.7788L64.8067 63.7545C63.9885 63.4873 63.5417 62.607 63.809 61.7888C64.0765 60.9708 64.9567 60.5238 65.7747 60.7913L71.967 62.8138V56.2945C71.967 55.4338 72.6647 54.7358 73.5255 54.7358C74.3865 54.7358 75.0845 55.4338 75.0845 56.2945V62.8133L81.2675 60.7913C82.0863 60.524 82.9657 60.9705 83.2335 61.7885C83.501 62.6065 83.0545 63.487 82.2363 63.7545L76.0482 65.778L79.8723 71.0265C80.3793 71.7223 80.2263 72.6975 79.5305 73.2043C78.8343 73.711 77.8593 73.558 77.3528 72.8625L73.5257 67.6103L69.7015 72.8623C69.3965 73.281 68.9215 73.5033 68.4402 73.5033ZM112.194 77.1948H96.725C94.9345 77.1948 93.478 75.7393 93.478 73.95V62.7448C93.478 60.9555 94.9345 59.5 96.725 59.5H112.194C113.985 59.5 115.441 60.9555 115.441 62.7448V73.95C115.441 75.7393 113.985 77.1948 112.194 77.1948ZM96.725 62.6175C96.6532 62.6175 96.5955 62.687 96.5955 62.7448V73.95C96.5955 74.02 96.6535 74.0773 96.725 74.0773H112.194C112.265 74.0773 112.324 74.02 112.324 73.95V62.7448C112.324 62.686 112.267 62.6175 112.194 62.6175H96.725Z" fill="#434040"/>
<path d="M110.306 62.6175H98.6134C97.7527 62.6175 97.0547 61.9195 97.0547 61.0588V55.2088C97.0547 51.1238 100.38 47.8005 104.467 47.8005C108.546 47.8005 111.864 51.1238 111.864 55.2088V61.0588C111.864 61.9195 111.166 62.6175 110.306 62.6175ZM100.172 59.4997H108.747V55.2085C108.747 52.8427 106.827 50.918 104.467 50.918C102.099 50.918 100.172 52.8427 100.172 55.2085V59.4997ZM104.467 69.634C102.962 69.634 101.738 68.411 101.738 66.9082C101.738 65.4117 102.962 64.1943 104.467 64.1943C105.963 64.1943 107.181 65.4117 107.181 66.9082C107.181 68.4112 105.963 69.634 104.467 69.634ZM104.467 66.5163C104.244 66.5163 104.063 66.692 104.063 66.908C104.063 67.1305 104.244 67.3115 104.467 67.3115C104.681 67.3115 104.856 67.1302 104.856 66.908C104.856 66.6957 104.678 66.5163 104.467 66.5163Z" fill="#434040"/>
<path d="M104.467 72.6895C103.606 72.6895 102.908 71.9915 102.908 71.1308V68.3475C102.908 67.4868 103.606 66.7887 104.467 66.7887C105.328 66.7887 106.026 67.4868 106.026 68.3475V71.1308C106.026 71.9915 105.328 72.6895 104.467 72.6895Z" fill="#434040"/>
</svg>
