<svg width="128" height="128" viewBox="0 0 128 128" fill="none" xmlns="http://www.w3.org/2000/svg">
<path d="M109.232 82.596L100.432 73.796C97.8089 71.1939 94.2682 69.7268 90.5733 69.7111C86.8784 69.6954 83.3253 71.1323 80.6801 73.712C79.2686 75.1316 77.4065 76.0148 75.4142 76.2097C73.4219 76.4046 71.4239 75.8991 69.7641 74.78C63.2129 70.4079 57.5849 64.7908 53.2001 58.248C52.1008 56.5697 51.6135 54.5637 51.8204 52.5681C52.0273 50.5725 52.9158 48.7091 54.3361 47.292C56.8925 44.6443 58.3109 41.1011 58.2877 37.4208C58.2645 33.7404 56.8016 30.2154 54.2121 27.6L45.4121 18.8C42.7775 16.1745 39.2096 14.7002 35.4901 14.7002C31.7706 14.7002 28.2027 16.1745 25.5681 18.8L23.0361 21.336C9.8361 34.536 10.8241 62.288 38.2881 89.736C54.8481 106.3 71.5161 113.236 85.0321 113.236C89.0108 113.369 92.976 112.708 96.6968 111.292C100.418 109.877 103.819 107.735 106.704 104.992L109.24 102.456C111.87 99.8202 113.347 96.2481 113.346 92.5244C113.344 88.8006 111.865 85.2297 109.232 82.596ZM103.576 96.8L101.04 99.336C90.6401 109.736 67.6841 107.836 43.9361 84.084C20.1881 60.332 18.2841 37.36 28.6841 26.96L31.2001 24.428C32.3329 23.2993 33.8669 22.6655 35.4661 22.6655C37.0653 22.6655 38.5993 23.2993 39.7321 24.428L48.5321 33.228C49.6444 34.3459 50.2757 35.8541 50.2914 37.4309C50.3071 39.0078 49.7059 40.5283 48.6161 41.668C45.9132 44.3882 44.2272 47.9545 43.8405 51.7696C43.4538 55.5848 44.39 59.4169 46.4921 62.624C51.4743 70.0797 57.8811 76.4769 65.3441 81.448C68.5416 83.5505 72.3637 84.4922 76.172 84.1158C79.9802 83.7394 83.544 82.0677 86.2681 79.38C87.4057 78.2773 88.9305 77.6651 90.5147 77.6748C92.099 77.6845 93.6162 78.3155 94.7401 79.432L103.54 88.232C104.107 88.791 104.558 89.4566 104.867 90.1905C105.176 90.9245 105.337 91.7122 105.34 92.5086C105.344 93.3049 105.19 94.094 104.887 94.8305C104.584 95.567 104.139 96.2363 103.576 96.8Z" fill="#010101"/>
</svg>
