<svg width="128" height="128" viewBox="0 0 128 128" fill="none" xmlns="http://www.w3.org/2000/svg">
<path d="M9.3757 58.899L26.1531 50.124C27.1113 51.4832 28.4955 52.4996 30.1019 53.0004C32.0294 53.6012 34.118 53.4115 35.9084 52.4751C37.6987 51.5386 39.0459 49.9315 39.6519 48.0055C40.1568 46.4004 40.1107 44.6842 39.5409 43.1219L91.5268 15.9321C92.3299 15.5121 93.2662 15.4281 94.1293 15.6972C94.9924 15.9663 95.7114 16.5665 96.1293 17.3655L103.852 32.1319C101.975 33.3718 100.569 35.2243 99.8879 37.3882C99.1064 39.8722 99.3445 42.5632 100.55 44.8686C101.756 47.174 103.831 48.9046 106.317 49.6796C108.482 50.3547 110.805 50.2558 112.895 49.4207L120.618 64.1879C121.036 64.9869 121.119 65.9199 120.848 66.7822C120.577 67.6446 119.974 68.3658 119.171 68.7859L67.1847 95.9757C66.2265 94.6165 64.8432 93.5997 63.2368 93.0989C61.3092 92.498 59.2203 92.6869 57.4298 93.6233C55.6394 94.5598 54.2928 96.1678 53.6868 98.0937C53.1818 99.699 53.227 101.415 53.7969 102.978L37.0195 111.753C36.2162 112.173 35.2793 112.257 34.416 111.988C33.5531 111.719 32.834 111.119 32.416 110.32L24.6925 95.5526C26.5703 94.3128 27.9766 92.4609 28.6575 90.2971C29.439 87.8132 29.2008 85.1221 27.9951 82.8167C26.7893 80.5113 24.7148 78.7807 22.2288 78.0057C20.0631 77.3306 17.7396 77.4286 15.65 78.2638L7.92688 63.4975C7.509 62.6985 7.42621 61.7654 7.69738 60.9031C7.96873 60.0406 8.57246 59.3191 9.3757 58.899Z" fill="#B33143" stroke="black" stroke-width="2"/>
<path d="M51.2137 81.7383C51.498 81.5896 51.8293 81.5597 52.1342 81.6546C52.439 81.7497 52.6934 81.9613 52.8408 82.2428L54.8816 86.1446C55.0289 86.4263 55.0575 86.7558 54.9616 87.0605C54.8657 87.3653 54.6527 87.621 54.3683 87.7698C54.0838 87.9184 53.7522 87.9476 53.4472 87.8525C53.1425 87.7574 52.8888 87.5454 52.7415 87.2639L50.7008 83.3621C50.5536 83.0805 50.524 82.7512 50.6199 82.4467C50.7157 82.142 50.9293 81.8871 51.2137 81.7383ZM45.0914 70.0327C45.3757 69.884 45.707 69.8542 46.0119 69.9491C46.3167 70.0441 46.5712 70.2557 46.7185 70.5372L48.7593 74.4391C48.9066 74.7207 48.9356 75.0511 48.8398 75.3558C48.7438 75.6603 48.5303 75.9155 48.246 76.0642C47.9616 76.2128 47.6303 76.2428 47.3254 76.1478C47.0205 76.0527 46.7666 75.84 46.6193 75.5583L44.5785 71.6565C44.4313 71.3749 44.4018 71.0456 44.4976 70.7411C44.5934 70.4364 44.807 70.1815 45.0914 70.0327ZM38.9691 58.3271C39.2534 58.1784 39.5848 58.1486 39.8896 58.2435C40.1944 58.3385 40.4489 58.5502 40.5962 58.8316L42.637 62.7335C42.7843 63.0152 42.8133 63.3455 42.7175 63.6502C42.6215 63.9547 42.408 64.2099 42.1237 64.3586C41.8393 64.5072 41.508 64.5372 41.2031 64.4422C40.8982 64.3472 40.6443 64.1344 40.497 63.8528L38.4562 59.9509C38.3091 59.6693 38.2795 59.34 38.3753 59.0355C38.4712 58.7309 38.6848 58.4759 38.9691 58.3271Z" fill="#C4455E" stroke="black" stroke-width="2"/>
<path d="M81.0701 34.0405C81.8252 33.6456 82.7064 33.5657 83.52 33.8193C84.3337 34.073 85.0136 34.6396 85.4087 35.3949C85.8035 36.1499 85.88 37.0305 85.6246 37.8432C78.495 60.5576 75.2371 71.1505 73.6171 76.1307C72.8197 78.5823 72.3907 79.7706 72.067 80.3711C71.8889 80.7015 71.6755 80.9873 71.3449 81.1797C71.2059 81.2606 71.0718 81.3077 71.0243 81.3254C70.9655 81.3472 70.9546 81.3519 70.9432 81.3579L70.9427 81.357C70.3818 81.6531 69.7461 81.7773 69.1151 81.7123C68.482 81.6471 67.8822 81.3957 67.3931 80.9885C66.904 80.5811 66.5475 80.0366 66.3695 79.4255C66.1916 78.8144 66.2009 78.164 66.3944 77.5577L79.4909 35.9266C79.7467 35.1137 80.315 34.4355 81.0701 34.0405Z" fill="#DAD7E5" stroke="black" stroke-width="2"/>
<path d="M87.2495 55.6716C88.4362 55.0241 89.774 54.7027 91.1249 54.7413C92.4756 54.7798 93.7912 55.1771 94.9369 55.8917C96.0827 56.6064 97.0175 57.6134 97.6442 58.809C98.2607 59.9855 98.5579 61.3034 98.5059 62.6311C98.4538 63.9587 98.0544 65.2499 97.3481 66.3764C96.6418 67.503 95.653 68.4262 94.48 69.0535C93.307 69.6808 91.9904 69.9911 90.6613 69.9531C89.3321 69.9152 88.0364 69.5299 86.9031 68.8362C85.7699 68.1425 84.8384 67.1641 84.2021 65.9983C83.5658 64.8324 83.2468 63.5193 83.2765 62.1909C83.3063 60.8629 83.6835 59.5652 84.3706 58.4271C85.069 57.2703 86.0629 56.3192 87.2495 55.6716Z" fill="#DAD7E5" stroke="black" stroke-width="2"/>
<path d="M57.4858 46.3938C58.6726 45.7462 60.0103 45.4248 61.3612 45.4634C62.7119 45.502 64.0276 45.8993 65.1732 46.6138C66.319 47.3286 67.2539 48.3356 67.8805 49.5312C68.4971 50.7077 68.7942 52.0256 68.7422 53.3533C68.6901 54.6808 68.2907 55.9721 67.5844 57.0986C66.8781 58.2252 65.8893 59.1483 64.7163 59.7757C63.5434 60.403 62.2267 60.7133 60.8976 60.6753C59.5684 60.6373 58.2727 60.2521 57.1395 59.5584C56.0062 58.8647 55.0747 57.8863 54.4384 56.7204C53.8021 55.5545 53.4831 54.2415 53.5128 52.9131C53.5426 51.585 53.9198 50.2874 54.6069 49.1493C55.3053 47.9925 56.2992 47.0413 57.4858 46.3938Z" fill="#DAD7E5" stroke="black" stroke-width="2" stroke-miterlimit="3.07155"/>
<path d="M17.5215 53.0586H36.9395C37.165 54.7059 37.9412 56.2428 39.1602 57.4238C40.6219 58.84 42.5984 59.6299 44.6523 59.6299C46.7061 59.6298 48.6819 58.8398 50.1436 57.4238C51.3625 56.2429 52.1387 54.7059 52.3643 53.0586H112.478C113.421 53.0586 114.321 53.422 114.979 54.0596C115.637 54.6962 116 55.5532 116 56.4395V73.0117C113.712 73.2341 111.557 74.2153 109.909 75.8115C108.022 77.6396 106.956 80.1262 106.956 82.7256C106.956 85.3248 108.023 87.8107 109.909 89.6387C111.557 91.2349 113.712 92.2151 116 92.4375V109.011C116 109.897 115.637 110.754 114.979 111.391C114.321 112.028 113.422 112.392 112.478 112.392H52.3643C52.1386 110.744 51.3624 109.208 50.1436 108.027C48.6818 106.611 46.7063 105.82 44.6523 105.82C42.5983 105.82 40.6219 106.611 39.1602 108.027C37.9414 109.208 37.1651 110.745 36.9395 112.392H17.5215C16.5776 112.392 15.6786 112.028 15.0205 111.391C14.3634 110.754 14 109.897 14 109.011V92.4375C16.2878 92.215 18.4434 91.2348 20.0908 89.6387C21.9774 87.8107 23.0429 85.3247 23.043 82.7256C23.043 80.1263 21.9775 77.6396 20.0908 75.8115C18.4434 74.2154 16.2878 73.2342 14 73.0117V56.4395C14 55.5532 14.3634 54.6962 15.0205 54.0596C15.6786 53.4221 16.5777 53.0587 17.5215 53.0586Z" fill="#DB5669" stroke="black" stroke-width="2"/>
<path d="M44.652 92.4878C44.9964 92.4878 45.3211 92.6203 45.5553 92.8472C45.7883 93.073 45.9127 93.373 45.9127 93.6782V98.0591C45.9126 98.3642 45.7881 98.6634 45.5553 98.8892C45.3211 99.1161 44.9964 99.2495 44.652 99.2495C44.3076 99.2495 43.9838 99.116 43.7496 98.8892C43.5166 98.6634 43.3913 98.3643 43.3912 98.0591V93.6782C43.3912 93.3729 43.5165 93.073 43.7496 92.8472C43.9838 92.6204 44.3077 92.4878 44.652 92.4878ZM44.652 79.3442C44.9964 79.3442 45.3211 79.4777 45.5553 79.7046C45.7881 79.9303 45.9126 80.2296 45.9127 80.5347V84.9155C45.9127 85.2208 45.7883 85.5207 45.5553 85.7466C45.3211 85.9735 44.9964 86.106 44.652 86.106C44.3077 86.1059 43.9838 85.9734 43.7496 85.7466C43.5165 85.5207 43.3912 85.2209 43.3912 84.9155V80.5347C43.3913 80.2294 43.5166 79.9304 43.7496 79.7046C43.9838 79.4777 44.3076 79.3443 44.652 79.3442ZM44.652 66.2017C44.9964 66.2017 45.3211 66.3341 45.5553 66.561C45.7884 66.7869 45.9127 67.0868 45.9127 67.3921V71.7729C45.9127 72.0783 45.7884 72.3781 45.5553 72.604C45.3211 72.8309 44.9964 72.9634 44.652 72.9634C44.3077 72.9633 43.9838 72.8307 43.7496 72.604C43.5165 72.3781 43.3912 72.0783 43.3912 71.7729V67.3921C43.3912 67.0868 43.5165 66.7869 43.7496 66.561C43.9838 66.3344 44.3078 66.2017 44.652 66.2017Z" fill="#C4455E" stroke="black" stroke-width="2"/>
<path d="M94.3906 64.1929C95.2479 64.1929 96.0769 64.5223 96.6924 65.1187C97.3089 65.716 97.6611 66.5333 97.6611 67.3921C97.6611 68.1973 97.3514 68.9661 96.8047 69.5513L96.6924 69.6655C79.4387 86.404 71.4533 94.2398 67.6191 97.8833C65.7306 99.678 64.778 100.526 64.2012 100.905C63.8839 101.113 63.5632 101.26 63.1855 101.277C63.0262 101.284 62.8861 101.265 62.834 101.258C62.7708 101.251 62.756 101.25 62.7393 101.25V101.249C62.1005 101.251 61.4727 101.071 60.9355 100.726C60.3965 100.38 59.9711 99.8813 59.7188 99.2925C59.4664 98.7034 59.3993 98.0529 59.5293 97.4253C59.6592 96.7979 59.9784 96.2267 60.4404 95.7827L92.0898 65.1187C92.7053 64.5224 93.5335 64.193 94.3906 64.1929Z" fill="#DAD7E5" stroke="black" stroke-width="2"/>
<path d="M89.7323 86.1123C91.1069 86.0888 92.4655 86.4202 93.6678 87.0742C94.8702 87.7283 95.8754 88.6827 96.577 89.8428C97.2789 91.0033 97.6511 92.327 97.6522 93.6768C97.6533 95.0046 97.2947 96.3075 96.6161 97.4561C95.9375 98.6045 94.9628 99.5569 93.7919 100.222C92.6212 100.886 91.2939 101.242 89.9413 101.254C88.5886 101.266 87.2542 100.934 86.0712 100.291C84.8881 99.6475 83.8954 98.7129 83.1952 97.5771C82.4949 96.4412 82.112 95.145 82.0878 93.8174C82.0636 92.4897 82.3988 91.1802 83.0575 90.0205C83.7162 88.861 84.6754 87.8919 85.8348 87.208C87.0128 86.5133 88.3579 86.1359 89.7323 86.1123Z" fill="#DAD7E5" stroke="black" stroke-width="2"/>
<path d="M67.1237 64.208C68.4983 64.1845 69.8569 64.516 71.0592 65.1699C72.2615 65.824 73.2667 66.7784 73.9684 67.9385C74.6703 69.099 75.0424 70.4227 75.0436 71.7725C75.0447 73.1003 74.6861 74.4032 74.0074 75.5518C73.3288 76.7002 72.3542 77.6526 71.1832 78.3174C70.0125 78.982 68.6853 79.3375 67.3326 79.3496C65.9799 79.3617 64.6455 79.0302 63.4625 78.3867C62.2794 77.7432 61.2868 76.8086 60.5865 75.6729C59.8863 74.5369 59.5034 73.2407 59.4791 71.9131C59.4549 70.5854 59.7902 69.2759 60.4489 68.1162C61.1076 66.9567 62.0667 65.9876 63.2262 65.3037C64.4042 64.609 65.7493 64.2316 67.1237 64.208Z" fill="#DAD7E5" stroke="black" stroke-width="2" stroke-miterlimit="3.07155"/>
</svg>
