<svg width="128" height="128" viewBox="0 0 128 128" fill="none" xmlns="http://www.w3.org/2000/svg">
<path d="M24 101.72H30.68V120C30.68 123.32 33.36 126 36.68 126H91.32C94.64 126 97.32 123.32 97.32 120V101.72H104C116.12 101.72 126 91.84 126 79.72V48.28C126 36.16 116.12 26.28 104 26.28H97.32V8C97.32 4.68 94.64 2 91.32 2H36.68C33.36 2 30.68 4.68 30.68 8V26.28H24C18.1685 26.2906 12.5788 28.6118 8.45533 32.7353C4.33182 36.8588 2.01057 42.4485 2 48.28V79.72C2 91.84 11.88 101.72 24 101.72ZM14 48.28C14 45.6278 15.0536 43.0843 16.9289 41.2089C18.8043 39.3336 21.3478 38.28 24 38.28H104C106.652 38.28 109.196 39.3336 111.071 41.2089C112.946 43.0843 114 45.6278 114 48.28V79.72C114 82.3722 112.946 84.9157 111.071 86.7911C109.196 88.6664 106.652 89.72 104 89.72H97.32V69.96C98.8476 69.8265 100.266 69.1123 101.283 67.9647C102.3 66.817 102.838 65.3231 102.787 63.7905C102.736 62.2579 102.099 60.8033 101.007 59.7261C99.916 58.6489 98.4531 58.0312 96.92 58H31.08C29.5469 58.0312 28.084 58.6489 26.9927 59.7261C25.9013 60.8033 25.2644 62.2579 25.2131 63.7905C25.1619 65.3231 25.7001 66.817 26.7171 67.9647C27.7341 69.1123 29.1524 69.8265 30.68 69.96V89.72H24C21.3478 89.72 18.8043 88.6664 16.9289 86.7911C15.0536 84.9157 14 82.3722 14 79.72V48.28Z" fill="white"/>
<path d="M28.16 53.6801H35C35.788 53.6801 36.5682 53.5249 37.2961 53.2233C38.0241 52.9218 38.6855 52.4798 39.2427 51.9227C39.7998 51.3655 40.2418 50.7041 40.5433 49.9762C40.8448 49.2482 41 48.468 41 47.6801C41 46.8921 40.8448 46.1119 40.5433 45.384C40.2418 44.656 39.7998 43.9946 39.2427 43.4374C38.6855 42.8803 38.0241 42.4383 37.2961 42.1368C36.5682 41.8352 35.788 41.6801 35 41.6801H28.16C27.3721 41.6801 26.5919 41.8352 25.8639 42.1368C25.136 42.4383 24.4745 42.8803 23.9174 43.4374C23.3602 43.9946 22.9183 44.656 22.6168 45.384C22.3152 46.1119 22.16 46.8921 22.16 47.6801C22.16 48.468 22.3152 49.2482 22.6168 49.9762C22.9183 50.7041 23.3602 51.3655 23.9174 51.9227C24.4745 52.4798 25.136 52.9218 25.8639 53.2233C26.5919 53.5249 27.3721 53.6801 28.16 53.6801Z" fill="white"/>
</svg>
