<svg width="128" height="128" viewBox="0 0 128 128" fill="none" xmlns="http://www.w3.org/2000/svg">
<path d="M48.279 15.8867C52.4519 11.7236 58.1056 9.3856 64 9.3856C69.8945 9.3856 75.5482 11.7236 79.721 15.8867C79.9068 16.0725 80.1272 16.2199 80.3699 16.3204C80.6125 16.421 80.8726 16.4727 81.1353 16.4728C81.3979 16.4728 81.658 16.4211 81.9007 16.3206C82.1434 16.2201 82.3639 16.0728 82.5497 15.8871C82.7354 15.7014 82.8828 15.4809 82.9833 15.2383C83.0839 14.9956 83.1357 14.7355 83.1357 14.4729C83.1357 14.2102 83.084 13.9501 82.9835 13.7074C82.8831 13.4648 82.7358 13.2443 82.55 13.0585C77.6265 8.14591 70.9553 5.38696 64 5.38696C57.0448 5.38696 50.3736 8.14591 45.45 13.0585C45.2625 13.2438 45.1134 13.4644 45.0114 13.7075C44.9094 13.9507 44.8565 14.2116 44.8557 14.4752C44.8549 14.7389 44.9063 15.0001 45.0068 15.2438C45.1074 15.4876 45.2551 15.7091 45.4416 15.8955C45.628 16.0819 45.8495 16.2296 46.0932 16.3302C46.337 16.4307 46.5982 16.482 46.8619 16.4812C47.1255 16.4804 47.3864 16.4274 47.6296 16.3254C47.8727 16.2234 48.0933 16.0743 48.2785 15.8867H48.279Z" fill="#010101"/>
<path d="M75.5615 22.0462C75.9571 22.046 76.3436 21.9286 76.6724 21.7088C77.0012 21.489 77.2575 21.1766 77.4088 20.8112C77.5601 20.4458 77.5996 20.0437 77.5224 19.6558C77.4452 19.2679 77.2547 18.9116 76.975 18.6319C73.5309 15.1957 68.8644 13.2659 63.9993 13.2659C59.1341 13.2659 54.4677 15.1957 51.0235 18.6319C50.8378 18.8176 50.6905 19.0381 50.59 19.2808C50.4895 19.5234 50.4377 19.7835 50.4377 20.0462C50.4377 20.3088 50.4895 20.5689 50.59 20.8115C50.6905 21.0542 50.8378 21.2747 51.0235 21.4604C51.3986 21.8355 51.9074 22.0462 52.4378 22.0462C52.7004 22.0462 52.9605 21.9945 53.2032 21.894C53.4458 21.7935 53.6663 21.6461 53.852 21.4604C56.5454 18.7731 60.1946 17.2639 63.9993 17.2639C67.8039 17.2639 71.4532 18.7731 74.1465 21.4604C74.3321 21.6465 74.5527 21.7941 74.7956 21.8946C75.0384 21.9951 75.2987 22.0466 75.5615 22.0462Z" fill="#010101"/>
<path d="M57.3455 24.9533C56.9704 25.3285 56.7598 25.8374 56.7598 26.3679C56.7599 26.8985 56.9708 27.4072 57.346 27.7823C57.7212 28.1574 58.2301 28.3681 58.7606 28.368C59.2911 28.3679 59.7999 28.157 60.175 27.7818C61.1905 26.7686 62.5665 26.1995 64.001 26.1995C65.4355 26.1995 66.8115 26.7686 67.827 27.7818C68.0127 27.9675 68.2332 28.1149 68.4759 28.2154C68.7185 28.3159 68.9786 28.3676 69.2412 28.3676C69.5039 28.3676 69.764 28.3159 70.0066 28.2154C70.2493 28.1149 70.4698 27.9675 70.6555 27.7818C70.8412 27.5961 70.9885 27.3756 71.0891 27.133C71.1896 26.8903 71.2413 26.6302 71.2413 26.3676C71.2413 26.1049 71.1896 25.8448 71.0891 25.6022C70.9885 25.3595 70.8412 25.139 70.6555 24.9533C68.8892 23.1908 66.4958 22.2009 64.0005 22.2009C61.5052 22.2009 59.1118 23.1908 57.3455 24.9533ZM19.2625 107.75H36.25V120.625C36.25 121.73 37.1205 122.75 38.225 122.75H89.775C90.8795 122.75 91.75 121.73 91.75 120.625V107.75H108.738C115.355 107.75 120.75 102.273 120.75 95.6558V70.6308C120.75 64.0141 115.355 58.7501 108.738 58.7501H106.75V54.3156C106.738 52.4474 105.992 50.6588 104.672 49.3366C103.352 48.0144 101.565 47.2649 99.697 47.2501H89.25V41.8156C89.2385 39.9474 88.4921 38.1588 87.1723 36.8366C85.8524 35.5144 84.0652 34.7649 82.197 34.7501H45.803C43.9348 34.7649 42.1476 35.5144 40.8277 36.8366C39.5079 38.1588 38.7615 39.9474 38.75 41.8156V47.2501H28.303C26.4348 47.2649 24.6476 48.0144 23.3277 49.3366C22.0079 50.6588 21.2615 52.4474 21.25 54.3156V58.7501H19.2625C12.6455 58.7501 7.25 64.0141 7.25 70.6308V95.6558C7.25 102.273 12.6455 107.75 19.2625 107.75ZM87.75 118.75H40.25V87.7501H87.75V118.75ZM99.697 51.2501C100.505 51.2637 101.275 51.5915 101.845 52.1638C102.415 52.7361 102.74 53.5079 102.75 54.3156V58.7501H89.25V51.2501H99.697ZM45.803 38.7501H82.197C83.0046 38.7637 83.7751 39.0915 84.3451 39.6638C84.9151 40.2361 85.2396 41.0079 85.25 41.8156V58.7501H42.75V41.8156C42.7604 41.0079 43.0849 40.2361 43.6549 39.6638C44.2249 39.0915 44.9954 38.7637 45.803 38.7501ZM25.25 54.3156C25.2604 53.5079 25.5849 52.7361 26.1549 52.1638C26.7249 51.5915 27.4954 51.2637 28.303 51.2501H38.75V58.7501H25.25V54.3156ZM11.25 70.6308C11.25 66.2196 14.8513 62.7501 19.2625 62.7501H108.738C113.15 62.7501 116.75 66.2196 116.75 70.6308V95.6558C116.75 100.067 113.15 103.75 108.738 103.75H91.75V85.8411C91.75 84.7366 90.8795 83.7501 89.775 83.7501H38.225C37.1205 83.7501 36.25 84.7366 36.25 85.8411V103.75H19.2625C14.8513 103.75 11.25 100.067 11.25 95.6558V70.6308Z" fill="#010101"/>
<path d="M23 78.75H33.5C34.0304 78.75 34.5391 78.5393 34.9142 78.1642C35.2893 77.7891 35.5 77.2804 35.5 76.75C35.5 76.2196 35.2893 75.7109 34.9142 75.3358C34.5391 74.9607 34.0304 74.75 33.5 74.75H23C22.4696 74.75 21.9609 74.9607 21.5858 75.3358C21.2107 75.7109 21 76.2196 21 76.75C21 77.2804 21.2107 77.7891 21.5858 78.1642C21.9609 78.5393 22.4696 78.75 23 78.75Z" fill="#010101"/>
</svg>
