<svg width="128" height="128" viewBox="0 0 128 128" fill="none" xmlns="http://www.w3.org/2000/svg">
<path d="M36 55.76H28C25.7909 55.76 24 57.5509 24 59.76C24 61.9691 25.7909 63.76 28 63.76H36C38.2091 63.76 40 61.9691 40 59.76C40 57.5509 38.2091 55.76 36 55.76Z" fill="black"/>
<path d="M111 104H88V88H40V104H17C13.5522 104 10.2456 102.63 7.80761 100.192C5.36964 97.7544 4 94.4478 4 91V53C4 49.5522 5.36964 46.2456 7.80761 43.8076C10.2456 41.3696 13.5522 40 17 40H111C114.448 40 117.754 41.3696 120.192 43.8076C122.63 46.2456 124 49.5522 124 53V91C124 94.4478 122.63 97.7544 120.192 100.192C117.754 102.63 114.448 104 111 104ZM96 96H111C111.657 96 112.307 95.8707 112.913 95.6194C113.52 95.3681 114.071 94.9998 114.536 94.5355C115 94.0712 115.368 93.52 115.619 92.9134C115.871 92.3068 116 91.6566 116 91V53C116 51.6739 115.473 50.4021 114.536 49.4645C113.598 48.5268 112.326 48 111 48H17C15.6739 48 14.4021 48.5268 13.4645 49.4645C12.5268 50.4021 12 51.6739 12 53V91C12 91.6566 12.1293 92.3068 12.3806 92.9134C12.6319 93.52 13.0002 94.0712 13.4645 94.5355C13.9288 94.9998 14.48 95.3681 15.0866 95.6194C15.6932 95.8707 16.3434 96 17 96H32V86.64C32 84.879 32.6996 83.1901 33.9448 81.9448C35.1901 80.6996 36.879 80 38.64 80H89.36C90.232 80 91.0954 80.1717 91.901 80.5054C92.7066 80.8391 93.4386 81.3282 94.0552 81.9448C94.6718 82.5614 95.1609 83.2934 95.4946 84.099C95.8283 84.9046 96 85.768 96 86.64V96Z" fill="black"/>
<path d="M86.4 116H41.6C39.0539 116 36.6121 114.989 34.8118 113.188C33.0114 111.388 32 108.946 32 106.4V86.64C32 84.879 32.6996 83.1901 33.9448 81.9448C35.1901 80.6996 36.879 80 38.64 80H89.36C90.232 80 91.0954 80.1717 91.901 80.5054C92.7066 80.8391 93.4386 81.3282 94.0552 81.9448C94.6718 82.5614 95.1609 83.2934 95.4946 84.099C95.8283 84.9046 96 85.768 96 86.64V106.4C96 108.946 94.9886 111.388 93.1882 113.188C91.3879 114.989 88.9461 116 86.4 116ZM40 88V106.4C40.0102 106.821 40.182 107.222 40.4799 107.52C40.7778 107.818 41.1788 107.99 41.6 108H86.4C86.8212 107.99 87.2222 107.818 87.5201 107.52C87.818 107.222 87.9898 106.821 88 106.4V88H40ZM96 48H32V21.6C32 20.3393 32.2483 19.091 32.7308 17.9262C33.2132 16.7615 33.9203 15.7032 34.8118 14.8118C36.6121 13.0114 39.0539 12 41.6 12H86.4C88.9461 12 91.3879 13.0114 93.1882 14.8118C94.9886 16.6121 96 19.0539 96 21.6V48ZM40 40H88V21.6C88 21.1757 87.8314 20.7687 87.5314 20.4686C87.2313 20.1686 86.8243 20 86.4 20H41.6C41.1757 20 40.7687 20.1686 40.4686 20.4686C40.1686 20.7687 40 21.1757 40 21.6V40Z" fill="black"/>
</svg>
