<svg width="128" height="128" viewBox="0 0 128 128" fill="none" xmlns="http://www.w3.org/2000/svg">
<path d="M47.12 45.12C46.8934 40.4075 48.5419 35.797 51.7051 32.2966C54.8682 28.7961 59.2887 26.6905 64 26.44C68.7113 26.6905 73.1317 28.7961 76.2949 32.2966C79.4581 35.797 81.1066 40.4075 80.88 45.12C81.0988 49.8266 79.4464 54.4285 76.2838 57.9209C73.1211 61.4133 68.7051 63.5125 64 63.76C59.2949 63.5125 54.8789 61.4133 51.7162 57.9209C48.5536 54.4285 46.9012 49.8266 47.12 45.12ZM120.16 64C120.177 75.1487 116.847 86.0457 110.6 95.28C110.436 95.5622 110.249 95.8298 110.04 96.08C104.879 103.512 97.9959 109.583 89.9785 113.777C81.9611 117.97 73.0478 120.16 64 120.16C54.9522 120.16 46.0389 117.97 38.0215 113.777C30.0041 109.583 23.1209 103.512 17.96 96.08C17.7509 95.8298 17.5635 95.5622 17.4 95.28C12.51 87.9962 9.39496 79.6679 8.30465 70.9629C7.21434 62.2579 8.17913 53.4186 11.1216 45.1538C14.0641 36.8889 18.9025 29.4287 25.2486 23.3713C31.5947 17.3139 39.272 12.8279 47.6648 10.2732C56.0576 7.71842 64.9323 7.16598 73.5771 8.66015C82.2219 10.1543 90.3963 13.6535 97.4447 18.8771C104.493 24.1008 110.219 30.9034 114.164 38.7395C118.109 46.5756 120.162 55.227 120.16 64ZM13.84 64C13.825 72.5223 15.9866 80.9072 20.12 88.36C28.8 76.96 45.44 69.84 64 69.84C82.56 69.84 99.2 76.96 107.88 88.36C111.597 81.663 113.731 74.2037 114.12 66.5541C114.508 58.9045 113.139 51.2676 110.119 44.2287C107.099 37.1898 102.507 30.9359 96.6958 25.9462C90.8845 20.9566 84.008 17.3637 76.5932 15.443C69.1785 13.5223 61.4224 13.3248 53.9195 14.8655C46.4166 16.4063 39.3661 19.6444 33.3084 24.3318C27.2506 29.0191 22.3465 35.0312 18.9719 41.9072C15.5973 48.7832 13.8418 56.3406 13.84 64Z" fill="#434040"/>
</svg>
