<svg width="120" height="45" viewBox="0 0 120 45" fill="none" xmlns="http://www.w3.org/2000/svg">
<g clip-path="url(#clip0_191_77)">
<path d="M115.084 27.5829V23.7092V15.9701H103.656H96.036V12.0965H115.084V4.35327H96.036H84.608V12.0965V15.9701V23.7092H96.036H103.656V27.5829H84.608V35.3261H103.656H115.084V27.5829Z" fill="#010101"/>
<path d="M80.8001 4.35327H73.1801V35.322H80.8001V4.35327Z" fill="#010101"/>
<path d="M38.896 4.35327V12.0965H61.752V15.9701H46.512H38.896V23.7092V35.3261H46.512V23.8271L57.944 35.3261H69.372L57.448 23.7092H61.752H69.372V15.9701V12.0965V4.35327H61.752H38.896Z" fill="#010101"/>
<path d="M16.036 23.7093H23.636V15.9864H16.036V23.7093ZM17.944 17.9049H21.752V21.7745H17.944V17.9049Z" fill="#010101"/>
<path d="M12.228 4.35327H5.56003C5.30805 4.35522 5.06683 4.45735 4.88803 4.6378C4.79908 4.72787 4.72855 4.83494 4.6805 4.95284C4.63244 5.07073 4.60781 5.19712 4.60803 5.32473V34.3546C4.60781 34.4822 4.63244 34.6086 4.6805 34.7265C4.72855 34.8444 4.79908 34.9515 4.88803 35.0416C5.06723 35.2209 5.30853 35.3216 5.56003 35.322H23.656V27.5991H12.228V4.35327Z" fill="#010101"/>
<path d="M34.132 4.35327H16.036V12.0965H27.468V23.7092H35.068V5.32473C35.0703 5.06898 34.9742 4.82244 34.8 4.6378C34.6215 4.4594 34.3823 4.35754 34.132 4.35327Z" fill="#010101"/>
<path d="M35.088 27.5829H27.468V45.0041H35.088V27.5829Z" fill="#010101"/>
<path d="M15.24 0H0.952C0.699838 0.0010699 0.458304 0.103335 0.279998 0.284525C0.101691 0.465714 0.00105288 0.711153 0 0.967392L0 15.4864H1.904V2.88592C1.90922 2.63251 2.01169 2.39121 2.18955 2.21351C2.36741 2.03581 2.60657 1.93579 2.856 1.93478H15.256L15.24 0Z" fill="#010101"/>
<path d="M118.096 25.1603V37.7608C118.095 38.0171 117.994 38.2625 117.816 38.4437C117.638 38.6249 117.396 38.7271 117.144 38.7282H104.744V40.6467H119.032C119.158 40.6484 119.284 40.6246 119.401 40.5767C119.518 40.5289 119.624 40.4579 119.714 40.368C119.804 40.2781 119.876 40.1709 119.925 40.0527C119.974 39.9345 120 39.8076 120 39.6794V25.1603H118.096Z" fill="#010101"/>
</g>
<defs>
<clipPath id="clip0_191_77">
<rect width="120" height="45" fill="white"/>
</clipPath>
</defs>
</svg>
