<svg width="128" height="128" viewBox="0 0 128 128" fill="none" xmlns="http://www.w3.org/2000/svg">
<path d="M82.7648 43.694C82.7067 43.191 82.6038 42.6941 82.4576 42.2092L99.3536 21.678C99.5838 21.423 99.9024 21.2651 100.245 21.2366C100.587 21.2081 100.928 21.311 101.197 21.5244C101.451 21.7444 101.609 22.0546 101.637 22.3893C101.666 22.7239 101.563 23.0565 101.35 23.3164L84.7616 43.438C84.0905 43.4728 83.423 43.5584 82.7648 43.694ZM111.488 26.4396C111.383 26.308 111.252 26.1992 111.104 26.1198C110.956 26.0403 110.793 25.9919 110.625 25.9776C110.457 25.9632 110.288 25.9831 110.129 26.0362C109.969 26.0892 109.822 26.1742 109.696 26.286L88.192 43.95C89.0364 44.286 89.8031 44.7913 90.4448 45.4348L111.334 28.2316C111.466 28.1267 111.575 27.9961 111.654 27.8477C111.734 27.6993 111.782 27.5363 111.796 27.3686C111.811 27.201 111.791 27.0321 111.738 26.8724C111.685 26.7127 111.6 26.5654 111.488 26.4396ZM97.28 54.2719C97.0282 54.2499 96.7885 54.1541 96.5909 53.9966C96.3933 53.839 96.2465 53.6267 96.1689 53.3862C95.7608 52.226 95.0051 51.2197 94.0047 50.5042C93.0043 49.7887 91.8078 49.3988 90.5779 49.3875C90.2909 49.3875 90.0122 49.2912 89.7866 49.1138C89.5609 48.9365 89.4015 48.6884 89.3337 48.4095C89.2365 48.0563 88.1561 44.8255 81.8381 46.5305C81.6404 46.5832 81.4331 46.5879 81.2333 46.5443C81.0334 46.5007 80.8469 46.41 80.6892 46.2798C80.5315 46.1496 80.4071 45.9837 80.3264 45.7957C80.2457 45.6078 80.211 45.4033 80.2252 45.1993C80.3535 43.6661 79.9305 42.1374 79.0323 40.8883C78.7212 40.5673 78.3437 40.318 77.9263 40.158C77.5089 39.9979 77.0616 39.9309 76.6156 39.9615C76.4263 39.9608 76.2394 39.9181 76.0685 39.8364C75.8976 39.7547 75.747 39.6361 75.6275 39.4892C75.508 39.3423 75.4226 39.1707 75.3774 38.9867C75.3323 38.8028 75.3285 38.6111 75.3664 38.4255C75.3652 38.1333 75.2515 37.8528 75.0489 37.6422C74.6188 37.1302 73.3645 36.3161 69.8112 36.3161C69.6257 36.3115 69.4436 36.2666 69.2773 36.1843C69.1111 36.1021 68.9648 35.9846 68.8486 35.8399C68.6706 35.637 68.5629 35.382 68.5414 35.1129C68.3776 34.8927 67.3075 33.7971 62.0748 33.3107C54.9529 32.6143 52.823 34.7852 52.7052 36.014C52.661 36.3421 52.4999 36.6433 52.2517 36.8624C52.0035 37.0815 51.6846 37.2038 51.3536 37.207C49.6822 37.0061 47.9948 37.4207 46.6068 38.3734C45.2189 39.326 44.2253 40.7514 43.8118 42.3833C43.7514 42.6661 43.5981 42.9205 43.3763 43.1061C43.1546 43.2916 42.8771 43.3977 42.5881 43.4073C37.3145 43.5507 36.5312 46.3513 36.5004 46.4793C36.4385 46.7208 36.3094 46.9398 36.1282 47.1111C35.947 47.2823 35.7211 47.3988 35.4764 47.447C33.9588 47.7836 32.5362 48.4572 31.3141 49.4179C30.0919 50.3786 29.1015 51.6018 28.416 52.9971C28.3316 53.1821 28.2046 53.3445 28.0452 53.4709C27.8859 53.5973 27.6989 53.6841 27.4995 53.7241C26.5544 53.8723 25.6697 54.2823 24.9458 54.9076C24.2218 55.5329 23.6875 56.3485 23.4035 57.262H101.33C100.94 56.4782 100.37 55.7983 99.6657 55.2784C98.9615 54.7585 98.1438 54.4135 97.28 54.2719ZM108.099 61.2966C108.523 69.8623 107.72 96.6246 81.2237 100.285H56.0845C55.7466 100.291 55.4241 100.427 55.1852 100.666C54.9463 100.905 54.8097 101.228 54.8045 101.565C54.8031 101.734 54.8353 101.901 54.8991 102.057C54.9629 102.213 55.0572 102.354 55.1763 102.474C55.2954 102.593 55.4371 102.687 55.593 102.751C55.7489 102.815 55.916 102.847 56.0845 102.845H80.046V105.252C80.046 105.453 80.0063 105.653 79.9291 105.84C79.8519 106.026 79.7388 106.195 79.5962 106.338C79.4535 106.481 79.2842 106.594 79.0979 106.671C78.9115 106.748 78.7118 106.788 78.51 106.788H45.8496C45.6479 106.788 45.4481 106.748 45.2618 106.671C45.0754 106.594 44.9061 106.481 44.7635 106.338C44.6208 106.195 44.5077 106.026 44.4305 105.84C44.3533 105.653 44.3136 105.453 44.3136 105.252V101.565C44.3171 101.264 44.2093 100.972 44.0109 100.745C43.8125 100.519 43.5374 100.373 43.2384 100.337C16.6502 96.686 15.8412 69.8623 16.2662 61.2966C16.2859 60.9027 16.4564 60.5314 16.7424 60.2598C17.0283 59.9881 17.4078 59.8369 17.8022 59.8374H106.568C106.96 59.8367 107.337 59.9858 107.622 60.2542C107.908 60.5226 108.08 60.89 108.104 61.2812L108.099 61.2966ZM32.7936 87.214C28.5741 83.2533 25.8598 77.9512 25.1136 72.2124C25.0366 71.8883 24.8422 71.6042 24.5679 71.4151C24.2937 71.226 23.9591 71.1452 23.6288 71.1884C23.4605 71.2111 23.2987 71.2687 23.154 71.3575C23.0093 71.4464 22.8847 71.5645 22.7883 71.7043C22.6918 71.8441 22.6257 72.0025 22.5941 72.1694C22.5625 72.3362 22.5661 72.5078 22.6048 72.6732C23.4329 78.9756 26.4396 84.7898 31.104 89.1084C31.3507 89.3068 31.6577 89.4151 31.9744 89.4156C32.1569 89.4254 32.3394 89.3936 32.5079 89.3227C32.6764 89.2517 32.8266 89.1435 32.9472 89.006C33.059 88.8802 33.144 88.733 33.197 88.5733C33.2501 88.4135 33.27 88.2447 33.2556 88.077C33.2413 87.9093 33.1929 87.7463 33.1134 87.5979C33.034 87.4496 32.9252 87.3189 32.7936 87.214Z" fill="white"/>
</svg>
