<svg width="128" height="128" viewBox="0 0 128 128" fill="none" xmlns="http://www.w3.org/2000/svg">
<path d="M37.76 32.6401C48.512 33.1521 58.752 29.1841 66.944 22.4001C73.088 17.2801 79.744 13.0561 87.808 16.8961C89.856 17.9201 92.032 19.2001 94.08 20.6081C102.784 27.0081 110.336 35.0721 113.536 45.1841C113.664 45.4401 113.792 45.5681 114.048 45.6961C120.96 48.7681 123.008 54.1441 121.472 61.3121C120.832 64.2561 120.32 67.3281 119.936 70.6561C118.144 83.5841 112 94.3361 100.864 100.864C97.536 102.784 97.152 105.088 98.432 108.672C99.328 111.36 94.592 112 92.928 112C73.984 112 55.424 112 37.248 112C36.224 112 35.2 112 34.176 111.744C29.312 111.104 30.592 107.648 31.744 104.576C32.64 102.4 30.592 101.504 29.056 100.736C28.416 100.48 27.904 100.096 27.264 99.7121C11.904 89.4721 7.93601 73.0881 7.29601 55.4241C7.16801 51.7121 7.55201 48.3841 12.032 48.1281C13.824 48.0001 15.488 48.5121 17.28 48.0001C21.504 46.8481 21.888 42.2401 23.936 39.0401C27.008 34.0481 32.128 32.3841 37.76 32.6401ZM71.552 28.6721C63.872 36.0961 52.736 39.8081 42.112 40.5761C39.808 40.7041 37.504 40.8321 35.2 40.8321C32 40.8321 29.056 43.2641 29.696 46.7201C30.08 48.3841 31.872 48.2561 33.152 48.0001C33.92 47.8721 34.688 47.8721 35.456 47.8721C57.984 48.0001 79.872 47.7441 101.632 48.0001C103.168 48.0001 104.192 47.4881 104.96 46.4641C105.088 46.2081 105.088 46.0801 105.088 45.8241C104.96 44.8001 104.576 43.7761 104.064 42.8801C100.736 37.3761 96.128 32.3841 90.368 27.5201C83.328 22.0161 77.696 22.9121 71.552 28.6721ZM85.76 96.8961C105.216 93.8241 112.384 77.9521 113.024 60.0321C113.152 55.9361 108.928 55.9361 105.984 55.9361C75.904 55.9361 46.592 55.9361 18.048 56.0641C17.408 56.0641 17.024 56.1921 16.768 56.3201C14.72 57.3441 16.384 64.0001 19.456 63.1041C24.448 61.6961 29.056 62.3361 34.176 62.5921C36.096 62.7201 38.4 62.5921 40.832 62.4641C47.488 61.9521 53.632 61.6961 59.264 61.6961C69.12 61.6961 79.232 61.8241 89.472 61.9521C93.056 61.9521 96.768 61.6961 100.224 61.8241C102.528 61.9521 103.68 63.1041 103.808 65.2801C104.192 77.0561 97.28 87.4241 88.064 94.7201C87.296 95.3601 86.4 96.0001 85.632 96.6401C85.376 96.8961 85.376 97.0241 85.76 96.8961ZM48.768 97.0241C54.4 98.6881 61.184 100.48 66.816 99.3281C64.384 99.2001 62.208 98.6881 60.416 97.9201C56.704 96.5121 52.736 95.2321 48.896 96.5121C48.256 96.7681 48.256 96.8961 48.768 97.0241Z" fill="white"/>
</svg>
