<svg width="128" height="128" viewBox="0 0 128 128" fill="none" xmlns="http://www.w3.org/2000/svg">
<path d="M94.6 32C81.4 32 70.6 42.8 70.6 56C70.6 79.8 56.6 101.8 35 112L9.40002 124H56.4C90.6 124 118.4 96.2 118.4 62C120.2 44.2 110 32.2 94.6 32ZM90.2 107.6C79.6 115.6 66.8 120 53.2 120C52 120 51.2 119 51.2 118C51.2 117 52 116 53.2 116C65.8 116 77.8 112 87.8 104.4C88.6 103.8 90 104 90.6 104.8C91.4 105.6 91.2 107 90.2 107.6ZM102.2 95.8C100.8 97.6 99.4 99.2 98 100.8C97.6 101.2 96.4 102 95.2 100.8C94.4 100 94.4 98.8 95.2 98C96.4 96.6 97.8 95.2 99 93.4C99.6 92.6 101 92.4 101.8 93C102.6 93.6 102.8 94.8 102.2 95.8ZM96.4 28C96.2 23 96.6 13.8 100.4 9.8C101.6 8.6 102.8 8 104.6 8C105.6 8 106.6 7 106.6 6C106.6 5 105.6 4 104.6 4C101.8 4 99.4 5 97.6 7.2C92.6 12.6 92.4 23.6 92.6 28.2C93.2 28 95.8 28 96.4 28Z" fill="white"/>
</svg>
