<svg width="128" height="128" viewBox="0 0 128 128" fill="none" xmlns="http://www.w3.org/2000/svg">
<g clip-path="url(#clip0_322_122)">
<path d="M101.707 26.2934L94.1866 33.8134C102.179 41.8265 106.667 52.6824 106.667 64.0001C106.667 87.5734 87.5733 106.667 64 106.667C40.4266 106.667 21.3333 87.5734 21.3333 64.0001C21.3333 42.2401 37.6 24.3201 58.6666 21.7067V32.4801C43.52 35.0401 32 48.1601 32 64.0001C32 81.6534 46.3466 96.0001 64 96.0001C81.6533 96.0001 96 81.6534 96 64.0001C96 55.1467 92.4266 47.1467 86.6133 41.3867L79.0933 48.9067C82.9333 52.8001 85.3333 58.1334 85.3333 64.0001C85.3333 75.7867 75.7866 85.3334 64 85.3334C52.2133 85.3334 42.6666 75.7867 42.6666 64.0001C42.6666 54.0801 49.4933 45.8134 58.6666 43.4134V54.8267C55.4666 56.6934 53.3333 60.0534 53.3333 64.0001C53.3333 69.8667 58.1333 74.6667 64 74.6667C69.8666 74.6667 74.6666 69.8667 74.6666 64.0001C74.6666 60.0534 72.5333 56.6401 69.3333 54.8267V10.6667H64C34.56 10.6667 10.6666 34.5601 10.6666 64.0001C10.6666 93.4401 34.56 117.333 64 117.333C93.44 117.333 117.333 93.4401 117.333 64.0001C117.333 49.2801 111.36 35.9467 101.707 26.2934Z" fill="#010101"/>
</g>
<defs>
<clipPath id="clip0_322_122">
<rect width="128" height="128" fill="white"/>
</clipPath>
</defs>
</svg>
