<svg width="128" height="128" viewBox="0 0 128 128" fill="none" xmlns="http://www.w3.org/2000/svg">
<path d="M119.819 24.1813L101.333 42.6666C99.1938 44.7004 96.3444 45.8178 93.3927 45.7805C90.4409 45.7431 87.6206 44.554 85.5333 42.4666C83.446 40.3793 82.2568 37.559 82.2194 34.6073C82.1821 31.6556 83.2995 28.8061 85.3333 26.6666L103.819 8.18125C99.6874 6.30638 95.2034 5.3354 90.6667 5.33325C85.6705 5.33397 80.744 6.50452 76.2815 8.75117C71.819 10.9978 67.9446 14.2582 64.9684 18.2711C61.9923 22.2841 59.9971 26.9382 59.1427 31.8607C58.2882 36.7832 58.5983 41.8374 60.048 46.6186L9.75467 96.9119C6.9257 99.7409 5.3364 103.578 5.3364 107.579C5.3364 109.56 5.72658 111.521 6.48467 113.351C7.24276 115.182 8.35391 116.844 9.75467 118.245C11.1554 119.646 12.8184 120.757 14.6486 121.515C16.4788 122.273 18.4404 122.664 20.4213 122.664C24.4221 122.664 28.259 121.074 31.088 118.245L81.3813 67.9519C86.1625 69.4016 91.2167 69.7117 96.1393 68.8573C101.062 68.0028 105.716 66.0077 109.729 63.0315C113.742 60.0554 117.002 56.1809 119.249 51.7184C121.495 47.2559 122.666 42.3294 122.667 37.3333C122.667 32.6399 121.632 28.1973 119.819 24.1813ZM21.3333 112C19.9189 112 18.5623 111.438 17.5621 110.438C16.5619 109.438 16 108.081 16 106.667C16 105.252 16.5619 103.896 17.5621 102.895C18.5623 101.895 19.9189 101.333 21.3333 101.333C22.7478 101.333 24.1044 101.895 25.1046 102.895C26.1048 103.896 26.6667 105.252 26.6667 106.667C26.6667 108.081 26.1048 109.438 25.1046 110.438C24.1044 111.438 22.7478 112 21.3333 112Z" fill="#434040"/>
</svg>
