<svg width="128" height="128" viewBox="0 0 128 128" fill="none" xmlns="http://www.w3.org/2000/svg">
<path d="M103.534 123.099H24.4662C21.2775 123.178 18.1873 121.991 15.871 119.799C13.5547 117.606 12.2008 114.585 12.1051 111.397V65.2069C12.1051 63.9945 12.5867 62.8318 13.444 61.9744C14.3014 61.1171 15.4641 60.6355 16.6765 60.6355C17.8889 60.6355 19.0517 61.1171 19.909 61.9744C20.7663 62.8318 21.248 63.9945 21.248 65.2069V111.397C21.3486 112.157 21.7403 112.849 22.3405 113.326C22.9407 113.804 23.7028 114.03 24.4662 113.957H103.534C104.297 114.03 105.059 113.804 105.659 113.326C106.26 112.849 106.651 112.157 106.752 111.397V65.2069C106.752 63.9945 107.234 62.8318 108.091 61.9744C108.948 61.1171 110.111 60.6355 111.323 60.6355C112.536 60.6355 113.699 61.1171 114.556 61.9744C115.413 62.8318 115.895 63.9945 115.895 65.2069V111.397C115.799 114.585 114.445 117.606 112.129 119.799C109.813 121.991 106.722 123.178 103.534 123.099Z" fill="#010101"/>
<path d="M76.032 70.5829C73.0642 70.5785 70.1592 69.7286 67.6571 68.1326L64 65.6823C63.0071 65.063 61.8604 64.7347 60.6903 64.7347C59.5201 64.7347 58.3734 65.063 57.3805 65.6823L53.3577 68.0961C50.6744 69.7013 47.5676 70.4557 44.4469 70.2599C41.3262 70.064 38.3381 68.9271 35.8765 66.9989C34.8521 66.1764 33.5958 65.6954 32.284 65.6232C30.9722 65.5511 29.6707 65.8915 28.5623 66.5966L27.0263 67.5475C24.1795 69.328 20.8267 70.1242 17.4834 69.8137C14.14 69.5031 10.9912 68.103 8.52111 65.8286L5.81483 63.3418C4.2586 61.8858 3.02 60.1239 2.17671 58.1667C1.33341 56.2095 0.903609 54.0992 0.914256 51.9681V42.8252C0.938997 39.0945 1.88095 35.4272 3.65711 32.1463L12.3611 15.6526C14.011 12.4627 16.4937 9.77887 19.5457 7.88588C22.5976 5.99288 26.1051 4.96132 29.696 4.90063H98.304C101.895 4.96132 105.402 5.99288 108.454 7.88588C111.506 9.77887 113.989 12.4627 115.639 15.6526L124.343 32.1463C126.081 35.437 126.985 39.1038 126.976 42.8252V51.2001C126.97 53.5836 126.413 55.9335 125.347 58.0654C124.281 60.1974 122.735 62.0534 120.832 63.4881L116.224 66.9258C113.475 69.0017 110.108 70.0911 106.664 70.0181C103.22 69.9451 99.9015 68.714 97.2434 66.5235L96.3291 65.8286C95.3165 64.9893 94.0663 64.4886 92.7543 64.3967C91.4423 64.3049 90.1345 64.6266 89.0148 65.3166L83.8948 68.4252C81.5198 69.8482 78.8007 70.5943 76.032 70.5829ZM60.5257 55.5521C63.4992 55.5529 66.4085 56.4168 68.9005 58.0389L72.5577 60.4526C73.5505 61.0719 74.6972 61.4002 75.8674 61.4002C77.0376 61.4002 78.1843 61.0719 79.1771 60.4526L84.3337 57.3075C87.0611 55.6653 90.2297 54.9068 93.4051 55.136C96.5806 55.3651 99.6074 56.5707 102.071 58.5875L103.095 59.4286C104.185 60.3011 105.539 60.7765 106.935 60.7765C108.331 60.7765 109.685 60.3011 110.775 59.4286L115.383 55.9909C116.144 55.4381 116.77 54.7197 117.214 53.8899C117.657 53.06 117.906 52.1403 117.943 51.2001V42.8252C117.935 40.6438 117.395 38.4973 116.37 36.5715L107.557 19.9681C106.699 18.2323 105.384 16.7634 103.754 15.7195C102.124 14.6755 100.239 14.096 98.304 14.0435H29.696C27.7607 14.096 25.8764 14.6755 24.246 15.7195C22.6156 16.7634 21.3009 18.2323 20.4434 19.9681L11.6297 36.5715C10.5876 38.5301 10.0473 40.7164 10.0571 42.9349V52.0778C10.0641 52.9331 10.2425 53.7783 10.5817 54.5634C10.9209 55.3486 11.414 56.0578 12.032 56.6492L14.7383 59.1361C15.7427 60.0645 17.0253 60.6357 18.3873 60.7614C19.7493 60.887 21.1147 60.5599 22.272 59.8309L23.808 58.8801C26.4949 57.2035 29.6343 56.3985 32.7964 56.5753C35.9585 56.752 38.9887 57.9019 41.472 59.8675C42.4724 60.6475 43.6853 61.1069 44.9515 61.1852C46.2176 61.2635 47.4779 60.9572 48.5668 60.3063L52.5531 57.8926C54.9412 56.386 57.7022 55.5754 60.5257 55.5521Z" fill="#010101"/>
<path d="M120.21 44.3245H7.78969C6.57727 44.3245 5.41451 43.8429 4.5572 42.9856C3.69989 42.1282 3.21826 40.9655 3.21826 39.7531C3.21826 38.5407 3.69989 37.3779 4.5572 36.5206C5.41451 35.6633 6.57727 35.1816 7.78969 35.1816H120.21C121.423 35.1816 122.585 35.6633 123.443 36.5206C124.3 37.3779 124.782 38.5407 124.782 39.7531C124.782 40.9655 124.3 42.1282 123.443 42.9856C122.585 43.8429 121.423 44.3245 120.21 44.3245ZM78.6286 120.978C77.4161 120.978 76.2534 120.497 75.3961 119.639C74.5388 118.782 74.0571 117.619 74.0571 116.407V94.1714C74.0571 93.6431 73.9531 93.12 73.7509 92.6319C73.5487 92.1438 73.2524 91.7003 72.8789 91.3268C72.5053 90.9532 72.0618 90.6569 71.5737 90.4547C71.0857 90.2526 70.5626 90.1485 70.0343 90.1485H57.9657C57.4374 90.1485 56.9143 90.2526 56.4262 90.4547C55.9381 90.6569 55.4947 90.9532 55.1211 91.3268C54.7475 91.7003 54.4512 92.1438 54.2491 92.6319C54.0469 93.12 53.9428 93.6431 53.9428 94.1714V116.407C53.9428 117.619 53.4612 118.782 52.6039 119.639C51.7466 120.497 50.5838 120.978 49.3714 120.978C48.159 120.978 46.9962 120.497 46.1389 119.639C45.2816 118.782 44.8 117.619 44.8 116.407V94.1714C44.8096 90.6826 46.1998 87.3394 48.6668 84.8725C51.1337 82.4055 54.4769 81.0153 57.9657 81.0056H70.0343C73.5231 81.0153 76.8662 82.4055 79.3332 84.8725C81.8001 87.3394 83.1903 90.6826 83.2 94.1714V116.407C83.2 117.619 82.7184 118.782 81.861 119.639C81.0037 120.497 79.841 120.978 78.6286 120.978Z" fill="#010101"/>
</svg>
