<svg width="128" height="128" viewBox="0 0 128 128" fill="none" xmlns="http://www.w3.org/2000/svg">
<path fill-rule="evenodd" clip-rule="evenodd" d="M26.6667 6.66669C22.7768 6.66669 19.0463 8.21192 16.2958 10.9625C13.5452 13.713 12 17.4435 12 21.3334V104C12 108.597 13.8262 113.006 17.0768 116.257C20.3274 119.507 24.7362 121.333 29.3333 121.333H98.6667C103.264 121.333 107.673 119.507 110.923 116.257C114.174 113.006 116 108.597 116 104V21.3334C116 17.4435 114.455 13.713 111.704 10.9625C108.954 8.21192 105.223 6.66669 101.333 6.66669C97.4435 6.66669 93.713 8.21192 90.9624 10.9625C88.2119 13.713 86.6667 17.4435 86.6667 21.3334V38.6667C86.6667 40.0812 86.1048 41.4377 85.1046 42.4379C84.1044 43.4381 82.7478 44 81.3333 44H78.6667C78.6667 42.048 77.6853 40.5867 76.8427 39.696C76.0197 38.8528 75.0628 38.1517 74.0107 37.6214C72.208 36.688 69.904 36 68 36H60C58.0907 36 55.7867 36.688 53.9893 37.6214C53.056 38.112 52.016 38.784 51.1627 39.696C50.0227 40.8424 49.3676 42.3836 49.3333 44H46.6667C45.2522 44 43.8956 43.4381 42.8954 42.4379C41.8952 41.4377 41.3333 40.0812 41.3333 38.6667V21.3334C41.3333 17.4435 39.7881 13.713 37.0376 10.9625C34.287 8.21192 30.5565 6.66669 26.6667 6.66669Z" fill="black"/>
</svg>
