<svg width="128" height="128" viewBox="0 0 128 128" fill="none" xmlns="http://www.w3.org/2000/svg">
<path d="M94 48C94 45.792 92.208 44 90 44H60C57.792 44 56 45.792 56 48C56 50.208 57.792 52 60 52H90C92.208 52 94 50.208 94 48ZM90 64H72C69.792 64 68 65.792 68 68C68 70.208 69.792 72 72 72H90C92.208 72 94 70.208 94 68C94 65.792 92.208 64 90 64ZM94 28C94 25.792 92.208 24 90 24H50C47.792 24 46 25.792 46 28C46 30.208 47.792 32 50 32H90C92.208 32 94 30.208 94 28Z" fill="#010101"/>
<path d="M122 90H114V20C114 11.178 106.822 4 98 4H18C9.178 4 2 11.178 2 20V34C2 36.208 3.792 38 6 38H26V44.604C12.322 47.392 2 59.512 2 74C2 88.494 12.332 100.618 26.02 103.398C26.122 108.856 28.28 113.976 32.152 117.848C36.118 121.816 41.39 124 47 124H106C111.344 124 116.366 121.92 120.142 118.142C123.92 114.366 126 109.342 126 104V94C126 91.792 124.208 90 122 90ZM10 20C10 15.588 13.588 12 18 12C22.412 12 26 15.588 26 20V30H10V20ZM10 74C10 61.87 19.87 52 32 52C44.13 52 54 61.87 54 74C54 86.13 44.13 96 32 96C19.87 96 10 86.13 10 74ZM34.046 103.896C49.634 102.838 62 89.852 62 74C62 58.134 49.61 45.138 34 44.102V34V30.4V20C34 17.084 33.204 14.356 31.836 12H98C102.412 12 106 15.588 106 20V90H64C61.792 90 60 91.792 60 94V103C60 106.42 58.612 109.77 56.192 112.192C53.736 114.648 50.47 116 47 116C43.53 116 40.264 114.648 37.808 112.192C35.6 109.982 34.264 107 34.046 103.896ZM118 104C118 107.206 116.752 110.22 114.486 112.486C112.22 114.752 109.208 116 106 116H63.474C66.4 112.308 68 107.78 68 103V98H118V104Z" fill="#010101"/>
<path d="M40.828 65.172C39.266 63.61 36.734 63.61 35.172 65.172L23.172 77.172C21.61 78.734 21.61 81.266 23.172 82.828C23.954 83.61 24.976 84 26 84C27.024 84 28.046 83.61 28.828 82.828L40.828 70.828C42.39 69.266 42.39 66.734 40.828 65.172ZM28.04 66C28.04 63.792 26.25 62 24.04 62H24.02C21.812 62 20.03 63.792 20.03 66C20.03 68.208 21.83 70 24.04 70C26.25 70 28.04 68.208 28.04 66ZM40.02 78C37.812 78 36.03 79.792 36.03 82C36.03 84.208 37.83 86 40.04 86C42.25 86 44.04 84.208 44.04 82C44.04 79.792 42.25 78 40.04 78H40.02Z" fill="#010101"/>
</svg>
