<svg width="128" height="128" viewBox="0 0 128 128" fill="none" xmlns="http://www.w3.org/2000/svg">
<path d="M53.3333 96.0001C54.7478 96.0001 56.1044 95.4382 57.1046 94.438C58.1048 93.4378 58.6667 92.0812 58.6667 90.6667V58.6667C58.6667 57.2523 58.1048 55.8957 57.1046 54.8955C56.1044 53.8953 54.7478 53.3334 53.3333 53.3334C51.9188 53.3334 50.5623 53.8953 49.5621 54.8955C48.5619 55.8957 48 57.2523 48 58.6667V90.6667C48 92.0812 48.5619 93.4378 49.5621 94.438C50.5623 95.4382 51.9188 96.0001 53.3333 96.0001ZM106.667 32.0001H85.3333V26.6667C85.3333 22.4233 83.6476 18.3536 80.647 15.353C77.6465 12.3525 73.5768 10.6667 69.3333 10.6667H58.6667C54.4232 10.6667 50.3535 12.3525 47.353 15.353C44.3524 18.3536 42.6667 22.4233 42.6667 26.6667V32.0001H21.3333C19.9188 32.0001 18.5623 32.562 17.5621 33.5622C16.5619 34.5624 16 35.9189 16 37.3334C16 38.7479 16.5619 40.1045 17.5621 41.1046C18.5623 42.1048 19.9188 42.6667 21.3333 42.6667H26.6667V101.333C26.6667 105.577 28.3524 109.647 31.353 112.647C34.3535 115.648 38.4232 117.333 42.6667 117.333H85.3333C89.5768 117.333 93.6465 115.648 96.647 112.647C99.6476 109.647 101.333 105.577 101.333 101.333V42.6667H106.667C108.081 42.6667 109.438 42.1048 110.438 41.1046C111.438 40.1045 112 38.7479 112 37.3334C112 35.9189 111.438 34.5624 110.438 33.5622C109.438 32.562 108.081 32.0001 106.667 32.0001ZM53.3333 26.6667C53.3333 25.2523 53.8952 23.8957 54.8954 22.8955C55.8956 21.8953 57.2522 21.3334 58.6667 21.3334H69.3333C70.7478 21.3334 72.1044 21.8953 73.1046 22.8955C74.1048 23.8957 74.6667 25.2523 74.6667 26.6667V32.0001H53.3333V26.6667ZM90.6667 101.333C90.6667 102.748 90.1048 104.104 89.1046 105.105C88.1044 106.105 86.7478 106.667 85.3333 106.667H42.6667C41.2522 106.667 39.8956 106.105 38.8954 105.105C37.8952 104.104 37.3333 102.748 37.3333 101.333V42.6667H90.6667V101.333ZM74.6667 96.0001C76.0812 96.0001 77.4377 95.4382 78.4379 94.438C79.4381 93.4378 80 92.0812 80 90.6667V58.6667C80 57.2523 79.4381 55.8957 78.4379 54.8955C77.4377 53.8953 76.0812 53.3334 74.6667 53.3334C73.2522 53.3334 71.8956 53.8953 70.8954 54.8955C69.8952 55.8957 69.3333 57.2523 69.3333 58.6667V90.6667C69.3333 92.0812 69.8952 93.4378 70.8954 94.438C71.8956 95.4382 73.2522 96.0001 74.6667 96.0001Z" fill="#010101"/>
</svg>
