<svg width="128" height="128" viewBox="0 0 128 128" fill="none" xmlns="http://www.w3.org/2000/svg">
<path d="M76 27V41C76 42.6569 77.3431 44 79 44H93" stroke="black" stroke-width="5"/>
<path d="M35 54.5V35C35 30.0294 39.0294 26 44 26H74.0785C75.9108 26 77.6701 26.7184 78.9786 28.0011L88.0509 36.8939L91.1244 40.1967C92.3299 41.4921 93 43.1959 93 44.9654V93C93 97.9706 88.9706 102 84 102H44C39.0294 102 35 97.9706 35 93V90" stroke="black" stroke-width="5" stroke-linecap="round"/>
<path d="M45.94 65.5998L41.38 72.4198L46.16 79.5598C46.24 79.6932 46.2533 79.7998 46.2 79.8798C46.16 79.9598 46.0666 79.9998 45.92 79.9998H42.5C42.26 79.9998 42.0533 79.8532 41.88 79.5598L39.22 75.5998L36.56 79.5598C36.44 79.7465 36.34 79.8665 36.26 79.9198C36.18 79.9732 36.0666 79.9998 35.92 79.9998H32.54C32.3933 79.9998 32.2933 79.9665 32.24 79.8998C32.2 79.8198 32.22 79.7065 32.3 79.5598L37.08 72.4198L32.56 65.5998C32.48 65.4798 32.4533 65.3798 32.48 65.2998C32.5066 65.2065 32.5933 65.1598 32.74 65.1598H36.2C36.3466 65.1598 36.46 65.1932 36.54 65.2598C36.62 65.3265 36.7133 65.4398 36.82 65.5998L39.24 69.1998L41.64 65.5998C41.7333 65.4532 41.8266 65.3465 41.92 65.2798C42.0133 65.1998 42.1333 65.1598 42.28 65.1598H45.7C45.8466 65.1598 45.94 65.2065 45.98 65.2998C46.02 65.3932 46.0066 65.4932 45.94 65.5998ZM48.1312 79.5598V65.5998C48.1312 65.4532 48.1712 65.3465 48.2512 65.2798C48.3446 65.1998 48.4446 65.1598 48.5512 65.1598H51.5512C51.8312 65.1598 51.9712 65.3065 51.9712 65.5998V76.4598H57.5312C57.8112 76.4598 57.9512 76.6065 57.9512 76.8998V79.5598C57.9512 79.8532 57.8112 79.9998 57.5312 79.9998H48.5512C48.2712 79.9998 48.1312 79.8532 48.1312 79.5598ZM62.0225 75.2198C62.1425 75.3132 62.2891 75.4398 62.4625 75.5998C62.6358 75.7465 62.8358 75.8998 63.0625 76.0598C63.3958 76.2865 63.7291 76.4665 64.0625 76.5998C64.4091 76.7198 64.7625 76.7798 65.1225 76.7798C65.8158 76.7798 66.2825 76.6398 66.5225 76.3598C66.7758 76.0798 66.9025 75.7532 66.9025 75.3798C66.9025 75.1665 66.8225 74.9798 66.6625 74.8198C66.5025 74.6598 66.3091 74.5198 66.0825 74.3998C65.8691 74.2665 65.6358 74.1598 65.3825 74.0798C65.1425 73.9865 64.9291 73.9065 64.7425 73.8398C63.1291 73.2798 61.9225 72.6198 61.1225 71.8598C60.3358 71.0998 59.9425 70.1332 59.9425 68.9598C59.9425 68.3332 60.0691 67.7665 60.3225 67.2598C60.5758 66.7532 60.9291 66.3198 61.3825 65.9598C61.8491 65.5998 62.4091 65.3265 63.0625 65.1398C63.7158 64.9398 64.4425 64.8398 65.2425 64.8398C65.8425 64.8398 66.4225 64.9065 66.9825 65.0398C67.5558 65.1732 68.1091 65.3932 68.6425 65.6998C69.0958 65.9665 69.4891 66.2398 69.8225 66.5198C70.1558 66.7998 70.3225 67.0332 70.3225 67.2198C70.3225 67.3398 70.2358 67.4998 70.0625 67.6998L68.5225 69.3398C68.4158 69.4465 68.3025 69.4998 68.1825 69.4998C68.0891 69.4998 68.0025 69.4732 67.9225 69.4198C67.8558 69.3665 67.7758 69.2998 67.6825 69.2198L67.5825 69.1398C67.3158 68.9132 66.9891 68.6932 66.6025 68.4798C66.2291 68.2532 65.8291 68.1398 65.4025 68.1398C64.9625 68.1398 64.5825 68.2132 64.2625 68.3598C63.9425 68.5065 63.7825 68.7732 63.7825 69.1598C63.7825 69.5332 63.9691 69.8198 64.3425 70.0198C64.7158 70.2198 65.2691 70.4398 66.0025 70.6798C66.7091 70.9198 67.3625 71.1665 67.9625 71.4198C68.5625 71.6732 69.0758 71.9798 69.5025 72.3398C69.9425 72.6865 70.2825 73.1065 70.5225 73.5998C70.7625 74.0798 70.8825 74.6665 70.8825 75.3598C70.8825 76.0932 70.7291 76.7598 70.4225 77.3598C70.1291 77.9465 69.7225 78.4532 69.2025 78.8798C68.6825 79.2932 68.0691 79.6198 67.3625 79.8598C66.6558 80.0865 65.8958 80.1998 65.0825 80.1998C64.5625 80.1998 64.0491 80.1332 63.5425 79.9998C63.0358 79.8665 62.5425 79.6865 62.0625 79.4598C61.5958 79.2332 61.1558 78.9665 60.7425 78.6598C60.3291 78.3532 59.9625 78.0198 59.6425 77.6598L59.6025 77.6398C59.5891 77.6132 59.5758 77.5998 59.5625 77.5998C59.5491 77.5865 59.5358 77.5732 59.5225 77.5598C59.3758 77.3998 59.3025 77.2665 59.3025 77.1598C59.3025 77.0532 59.3758 76.9265 59.5225 76.7798L61.2625 75.1198C61.3958 75.0265 61.5091 74.9798 61.6025 74.9798C61.7091 74.9798 61.8491 75.0598 62.0225 75.2198Z" fill="black"/>
<path fill-rule="evenodd" clip-rule="evenodd" d="M65.2425 65.0898C64.4631 65.0898 63.7616 65.1873 63.1356 65.3789L63.1312 65.3803C62.5044 65.5594 61.9744 65.8193 61.5366 66.1567C61.1118 66.4943 60.7825 66.8988 60.5461 67.3716C60.3119 67.84 60.1925 68.3678 60.1925 68.9598C60.1925 70.0705 60.5618 70.9702 61.2954 71.6793C62.0594 72.4048 63.2287 73.0498 64.8244 73.6037L64.8266 73.6044C65.014 73.6713 65.2271 73.7512 65.4656 73.8439C65.732 73.9287 65.9795 74.0416 66.2074 74.1831C66.4498 74.3124 66.6614 74.4652 66.8392 74.6431C67.043 74.8468 67.1525 75.0959 67.1525 75.3798C67.1525 75.8149 67.003 76.2003 66.71 76.5252C66.3938 76.8915 65.8282 77.0298 65.1225 77.0298C64.7341 77.0298 64.3531 76.965 63.9807 76.8361L63.9695 76.8322C63.6175 76.6914 63.2684 76.5022 62.9219 76.2666L62.9183 76.2641C62.6869 76.1008 62.4809 75.943 62.301 75.7907L62.2927 75.7837C62.1221 75.6262 61.9813 75.5045 61.869 75.4172L61.8607 75.4107L61.8529 75.4035C61.7743 75.331 61.7114 75.2843 61.6634 75.2569C61.622 75.2332 61.6026 75.2302 61.6011 75.2299C61.5838 75.2304 61.527 75.2424 61.4207 75.3144L59.6972 76.9587C59.6346 77.0215 59.5959 77.072 59.5738 77.1101C59.5558 77.1413 59.5529 77.157 59.5525 77.16C59.5529 77.163 59.5558 77.1816 59.5765 77.2194C59.6 77.2621 59.6402 77.3179 59.7032 77.387L59.7089 77.3927C59.73 77.4061 59.7468 77.4206 59.7592 77.4331C59.7628 77.4366 59.7662 77.4402 59.7695 77.4439L59.7973 77.4578L59.8293 77.4938C60.1372 77.8401 60.4909 78.1619 60.8914 78.4591C61.2918 78.7561 61.7181 79.0146 62.1705 79.2344C62.6364 79.4543 63.1149 79.6288 63.6061 79.7581C64.0921 79.886 64.5841 79.9498 65.0825 79.9498C65.8716 79.9498 66.6049 79.84 67.2841 79.6224C67.9653 79.3909 68.5513 79.0778 69.0454 78.6853C69.5382 78.2806 69.9219 77.8019 70.1989 77.248L70.1999 77.2461C70.487 76.6843 70.6325 76.0572 70.6325 75.3598C70.6325 74.6944 70.5172 74.1483 70.2989 73.7116L70.2977 73.7092C70.0745 73.2505 69.7588 72.86 69.3477 72.5362L69.3412 72.531C68.9366 72.1897 68.4458 71.8953 67.8652 71.6502C67.2718 71.3996 66.6246 71.1552 65.9233 70.917C65.1861 70.6757 64.6169 70.4505 64.2244 70.2402C64.0094 70.125 63.8341 69.9773 63.713 69.7913C63.5908 69.6036 63.5325 69.3903 63.5325 69.1598C63.5325 68.9322 63.5797 68.7218 63.6881 68.5412C63.7974 68.3591 63.9587 68.2241 64.1583 68.1326C64.5181 67.9677 64.9352 67.8898 65.4025 67.8898C65.8743 67.8898 66.3175 68.0154 66.7277 68.2634C67.1221 68.4813 67.4609 68.7088 67.7415 68.9469L67.8453 69.0299C67.9327 69.1048 68.0071 69.1671 68.0689 69.2168C68.1064 69.2401 68.1428 69.2498 68.1825 69.2498C68.2197 69.2498 68.272 69.2359 68.3432 69.1656L69.8767 67.5325C69.9546 67.4422 70.0063 67.3686 70.0376 67.3108C70.0533 67.2819 70.0624 67.2596 70.0674 67.2434C70.0698 67.2355 70.0711 67.2296 70.0718 67.2256C70.0725 67.2216 70.0725 67.2198 70.0725 67.2198C70.0725 67.1998 70.0623 67.1457 69.994 67.0502C69.9275 66.957 69.8196 66.844 69.6617 66.7113C69.3412 66.4421 68.9601 66.1768 68.5168 65.916C68.0041 65.6213 67.4739 65.4108 66.9258 65.2833L66.9246 65.283C66.3843 65.1544 65.8238 65.0898 65.2425 65.0898ZM62.9915 64.9001C63.6716 64.6922 64.4227 64.5898 65.2425 64.5898C65.8609 64.5898 66.4602 64.6586 67.0397 64.7965C67.6378 64.9356 68.2137 65.1649 68.7671 65.4831L68.7692 65.4843C69.2322 65.7567 69.6373 66.0378 69.9833 66.3284C70.1586 66.4757 70.3008 66.6194 70.4009 66.7595C70.4993 66.8973 70.5725 67.0532 70.5725 67.2198C70.5725 67.3375 70.531 67.4497 70.4773 67.5489C70.4224 67.6503 70.3451 67.7555 70.2514 67.8636L70.2449 67.8711L68.6993 69.5167C68.5585 69.6576 68.3848 69.7498 68.1825 69.7498C68.0382 69.7498 67.9035 69.7077 67.7838 69.6279L67.7748 69.6218L67.7663 69.6151C67.6975 69.56 67.6163 69.4923 67.523 69.4124L67.4205 69.3304C67.1693 69.1169 66.8573 68.906 66.4817 68.6987L66.4726 68.6937C66.1374 68.4902 65.7823 68.3898 65.4025 68.3898C64.9897 68.3898 64.6468 68.4587 64.3666 68.5871C64.2462 68.6423 64.1676 68.7139 64.1168 68.7985C64.0652 68.8845 64.0325 69.0009 64.0325 69.1598C64.0325 69.3027 64.0675 69.4194 64.132 69.5184C64.1975 69.6191 64.3022 69.7147 64.4605 69.7995C64.8145 69.9891 65.3515 70.2037 66.0802 70.4422L66.0829 70.4431C66.7944 70.6848 67.4534 70.9336 68.0597 71.1895C68.6777 71.4504 69.2124 71.7686 69.6605 72.1461C70.1275 72.5148 70.4905 72.963 70.7467 73.4892C71.0079 74.0123 71.1325 74.6392 71.1325 75.3598C71.1325 76.1289 70.9714 76.8348 70.6455 77.4728C70.6456 77.4726 70.6453 77.4731 70.6455 77.4728L70.4226 77.3599L70.6461 77.4716C70.6459 77.4721 70.6457 77.4724 70.6455 77.4728C70.3361 78.0912 69.9071 78.625 69.361 79.0731L69.358 79.0756C68.8129 79.5089 68.1734 79.8484 67.4429 80.0966L67.4388 80.0979C66.7052 80.3332 65.9192 80.4498 65.0825 80.4498C64.5408 80.4498 64.0061 80.3804 63.4788 80.2416C62.9572 80.1043 62.4494 79.919 61.9557 79.6859L61.9532 79.6847C61.4727 79.4513 61.0194 79.1766 60.5935 78.8606C60.1811 78.5547 59.8124 78.2219 59.488 77.8621L59.5307 77.8834L59.5475 77.8498H59.5625C59.5574 77.8498 59.5523 77.8501 59.5475 77.8498L59.6425 77.6598L59.4575 77.8243C59.4329 77.8114 59.4156 77.7965 59.4057 77.7866C59.3998 77.7808 59.3952 77.7753 59.3915 77.7708C59.3884 77.7668 59.3861 77.7634 59.3845 77.761C59.3826 77.7582 59.3812 77.7559 59.3803 77.7543C59.3794 77.7528 59.379 77.7519 59.3789 77.7516L59.397 77.7879L59.338 77.7289C59.1862 77.5634 59.0525 77.3681 59.0525 77.1598C59.0525 76.9469 59.1911 76.7576 59.3457 76.6031L59.3498 76.5989L61.1036 74.9259L61.1191 74.915C61.2668 74.8117 61.4321 74.7298 61.6025 74.7298C61.716 74.7298 61.8215 74.7714 61.9115 74.8228C62.001 74.8739 62.0921 74.9446 62.1842 75.0289C62.1814 75.0268 62.1787 75.0246 62.176 75.0225L62.0225 75.2198L62.192 75.0361C62.1894 75.0337 62.1868 75.0313 62.1842 75.0289C62.3092 75.1267 62.4575 75.2551 62.628 75.4124C62.6267 75.4113 62.6253 75.4101 62.624 75.409L62.4625 75.5998L62.632 75.4161C62.6307 75.4149 62.6294 75.4137 62.628 75.4124C62.7934 75.5521 62.9854 75.6994 63.2048 75.8543C63.2042 75.8539 63.2036 75.8535 63.203 75.8531L63.0625 76.0598L63.2066 75.8556C63.206 75.8552 63.2054 75.8547 63.2048 75.8543C63.5225 76.0702 63.8375 76.2401 64.1498 76.3655C64.148 76.3649 64.1461 76.3642 64.1442 76.3636L64.0625 76.5998L64.1553 76.3677C64.1535 76.367 64.1516 76.3663 64.1498 76.3655C64.4689 76.4753 64.7928 76.5298 65.1225 76.5298C65.8016 76.5298 66.1683 76.3889 66.3327 76.1971L66.337 76.1921C66.5493 75.9574 66.6525 75.6904 66.6525 75.3798C66.6525 75.2371 66.602 75.1129 66.4857 74.9966C66.3455 74.8564 66.173 74.7307 65.9655 74.6208L65.9576 74.6166L65.95 74.6118C65.7555 74.4903 65.5415 74.3922 65.3072 74.3182L65.2994 74.3158L65.2919 74.3128C65.0539 74.2203 64.8431 74.1413 64.6594 74.0756C64.6598 74.0758 64.6601 74.0759 64.6605 74.076L64.7425 73.8398L64.6584 74.0753C64.6587 74.0754 64.6591 74.0755 64.6594 74.0756C63.0295 73.5098 61.7862 72.8352 60.9503 72.0411L60.9488 72.0396C60.1095 71.2289 59.6925 70.1955 59.6925 68.9598C59.6925 68.2985 59.8264 67.693 60.0989 67.148C60.3689 66.608 60.7457 66.1462 61.227 65.7641L61.2297 65.7619C61.7245 65.3802 62.3133 65.0942 62.9915 64.9001ZM62.9915 64.9001C62.9908 64.9003 62.99 64.9006 62.9893 64.9008L63.0625 65.1398L62.9938 64.8995C62.993 64.8997 62.9923 64.8999 62.9915 64.9001ZM59.4544 77.8453L59.4161 77.8262L59.397 77.7879L59.4544 77.8453ZM59.4634 77.8498L59.488 77.8621C59.4843 77.858 59.4806 77.8539 59.477 77.8498H59.4634ZM59.4634 77.8498L59.4544 77.8453L59.4589 77.8498H59.4634ZM32.7376 65.4098C32.7384 65.4098 32.7392 65.4098 32.74 65.4098H36.2C36.3117 65.4098 36.3601 65.4354 36.3799 65.4519C36.432 65.4953 36.5094 65.5847 36.612 65.7385L39.2408 69.6492L41.848 65.7385L41.8509 65.7341C41.935 65.6019 42.0079 65.5242 42.0653 65.4833L42.0743 65.4769L42.0827 65.4697C42.1223 65.4357 42.1809 65.4098 42.28 65.4098H45.7C45.7234 65.4098 45.7403 65.4117 45.7518 65.4139C45.7504 65.4219 45.7456 65.4385 45.7297 65.4645L41.0792 72.4199L45.9485 79.6933C45.9618 79.7161 45.9699 79.7336 45.9748 79.7464C45.9612 79.7484 45.9432 79.7498 45.92 79.7498H42.5C42.3829 79.7498 42.2444 79.6852 42.0952 79.4327L42.0915 79.4264L39.22 75.1515L36.3524 79.4204L36.3497 79.4247C36.2301 79.6106 36.154 79.6901 36.1213 79.7118C36.0987 79.7269 36.0414 79.7498 35.92 79.7498H32.54C32.5192 79.7498 32.5016 79.7489 32.4868 79.7475C32.4934 79.7311 32.5024 79.7116 32.5144 79.6889L37.3804 72.4205L32.7684 65.4617C32.7549 65.4416 32.7447 65.424 32.7376 65.4098ZM32.4464 64.9747C32.5397 64.9245 32.644 64.9098 32.74 64.9098H36.2C36.3816 64.9098 36.5598 64.951 36.7 65.0678C36.8079 65.1577 36.917 65.2948 37.0277 65.4607C37.0278 65.4609 37.0276 65.4606 37.0277 65.4607L39.2391 68.7504L41.4305 65.4633C41.5304 65.3068 41.6408 65.1745 41.7659 65.0828C41.9114 64.9619 42.0895 64.9098 42.28 64.9098H45.7C45.8948 64.9098 46.1133 64.9764 46.2098 65.2014C46.2898 65.3882 46.2503 65.5749 46.152 65.7323L46.1479 65.7389L41.6808 72.4198L46.3746 79.4311C46.4688 79.5881 46.5403 79.8059 46.4163 80.0056C46.3084 80.2041 46.0923 80.2498 45.92 80.2498H42.5C42.1394 80.2498 41.8657 80.0241 41.6686 79.6935L39.22 76.0482L36.7689 79.6972C36.6488 79.8837 36.5255 80.0433 36.3986 80.1279C36.2613 80.2194 36.0918 80.2498 35.92 80.2498H32.54C32.3701 80.2498 32.1708 80.2136 32.0447 80.056L32.0282 80.0353L32.0164 80.0116C31.9174 79.8138 31.9937 79.5993 32.0805 79.4401L32.0859 79.4302L36.7796 72.4191L32.352 65.7385C32.352 65.7386 32.3519 65.7384 32.352 65.7385C32.2597 65.6 32.1802 65.4161 32.2411 65.2259C32.274 65.1159 32.3463 65.0287 32.4464 64.9747ZM48.5512 65.4098C48.5132 65.4098 48.4693 65.4222 48.4139 65.4697L48.4113 65.4719C48.4083 65.4744 48.3812 65.4968 48.3812 65.5998V79.5598C48.3812 79.6708 48.4079 79.7076 48.4171 79.7172C48.4241 79.7247 48.4528 79.7498 48.5512 79.7498H57.5312C57.6296 79.7498 57.6583 79.7247 57.6654 79.7172C57.6745 79.7076 57.7012 79.6708 57.7012 79.5598V76.8998C57.7012 76.7889 57.6745 76.7521 57.6654 76.7425C57.6583 76.735 57.6296 76.7098 57.5312 76.7098H51.7212V65.5998C51.7212 65.4889 51.6945 65.4521 51.6854 65.4425C51.6783 65.435 51.6496 65.4098 51.5512 65.4098H48.5512ZM48.0897 65.089C48.2208 64.9771 48.3764 64.9098 48.5512 64.9098H51.5512C51.7328 64.9098 51.9141 64.958 52.0471 65.0972C52.1779 65.2343 52.2212 65.4175 52.2212 65.5998V76.2098H57.5312C57.7128 76.2098 57.8941 76.258 58.0271 76.3972C58.1579 76.5343 58.2012 76.7175 58.2012 76.8998V79.5598C58.2012 79.7422 58.1579 79.9254 58.0271 80.0625C57.8941 80.2017 57.7128 80.2498 57.5312 80.2498H48.5512C48.3696 80.2498 48.1883 80.2017 48.0554 80.0625C47.9245 79.9254 47.8812 79.7422 47.8812 79.5598V65.5998C47.8812 65.4112 47.9333 65.2202 48.0897 65.089Z" fill="black"/>
</svg>
